G04 MADE WITH FRITZING*
G04 WWW.FRITZING.ORG*
G04 DOUBLE SIDED*
G04 HOLES PLATED*
G04 CONTOUR ON CENTER OF CONTOUR VECTOR*
%ASAXBY*%
%FSLAX23Y23*%
%MOIN*%
%OFA0B0*%
%SFA1.0B1.0*%
%ADD10C,0.049370*%
%ADD11C,0.109000*%
%ADD12C,0.088000*%
%ADD13C,0.072992*%
%ADD14C,0.062000*%
%ADD15R,0.109000X0.109000*%
%ADD16R,0.088000X0.088000*%
%ADD17R,0.147795X0.072992*%
%ADD18R,0.072992X0.084803*%
%ADD19R,0.072992X0.072992*%
%ADD20R,0.001000X0.001000*%
%LNMASK1*%
G90*
G70*
G54D10*
X1299Y449D03*
X1099Y449D03*
G54D11*
X598Y1650D03*
X598Y1850D03*
X998Y1750D03*
G54D12*
X2298Y2050D03*
X2298Y2050D03*
X1598Y2250D03*
X1598Y2350D03*
G54D10*
X2098Y2150D03*
X798Y1350D03*
X798Y1150D03*
X1098Y1350D03*
X1098Y1150D03*
X1398Y1350D03*
X1398Y1150D03*
X1698Y1350D03*
X1698Y1150D03*
X1998Y1350D03*
X1998Y1150D03*
X2298Y1350D03*
X2298Y1150D03*
G54D13*
X953Y2262D03*
X953Y2361D03*
X953Y2262D03*
X953Y2361D03*
G54D14*
X1698Y2150D03*
X1798Y2150D03*
X1798Y2450D03*
X1698Y2450D03*
X1898Y2150D03*
X1998Y2150D03*
X1898Y2450D03*
X1998Y2450D03*
X1698Y2150D03*
X1798Y2150D03*
X1798Y2450D03*
X1698Y2450D03*
X1898Y2150D03*
X1998Y2150D03*
X1898Y2450D03*
X1998Y2450D03*
G54D12*
X1698Y1650D03*
X1698Y1550D03*
G54D15*
X598Y1850D03*
G54D16*
X1598Y2250D03*
G54D17*
X1885Y1750D03*
X2098Y1750D03*
G54D18*
X1098Y2250D03*
X1220Y2250D03*
G54D19*
X953Y2262D03*
X953Y2262D03*
G54D16*
X1698Y1650D03*
G54D18*
X1198Y1550D03*
X1320Y1550D03*
X798Y1350D03*
X920Y1350D03*
X1098Y1350D03*
X1220Y1350D03*
X1698Y1350D03*
X1820Y1350D03*
X1398Y1350D03*
X1520Y1350D03*
X1998Y1350D03*
X2120Y1350D03*
X2298Y1150D03*
X2420Y1150D03*
X1998Y1150D03*
X2120Y1150D03*
X1698Y1150D03*
X1820Y1150D03*
X1398Y1150D03*
X1520Y1150D03*
X1098Y1150D03*
X1220Y1150D03*
X798Y1150D03*
X920Y1150D03*
G54D20*
X1692Y2507D02*
X1703Y2507D01*
X1792Y2507D02*
X1803Y2507D01*
X1892Y2507D02*
X1903Y2507D01*
X1992Y2507D02*
X2002Y2507D01*
X1688Y2506D02*
X1706Y2506D01*
X1788Y2506D02*
X1806Y2506D01*
X1888Y2506D02*
X1906Y2506D01*
X1988Y2506D02*
X2006Y2506D01*
X1685Y2505D02*
X1709Y2505D01*
X1785Y2505D02*
X1809Y2505D01*
X1885Y2505D02*
X1909Y2505D01*
X1985Y2505D02*
X2009Y2505D01*
X1683Y2504D02*
X1711Y2504D01*
X1783Y2504D02*
X1811Y2504D01*
X1883Y2504D02*
X1911Y2504D01*
X1983Y2504D02*
X2011Y2504D01*
X1682Y2503D02*
X1713Y2503D01*
X1782Y2503D02*
X1813Y2503D01*
X1882Y2503D02*
X1913Y2503D01*
X1982Y2503D02*
X2013Y2503D01*
X1680Y2502D02*
X1714Y2502D01*
X1780Y2502D02*
X1814Y2502D01*
X1880Y2502D02*
X1914Y2502D01*
X1980Y2502D02*
X2014Y2502D01*
X1679Y2501D02*
X1716Y2501D01*
X1779Y2501D02*
X1816Y2501D01*
X1879Y2501D02*
X1916Y2501D01*
X1979Y2501D02*
X2016Y2501D01*
X1677Y2500D02*
X1717Y2500D01*
X1777Y2500D02*
X1817Y2500D01*
X1877Y2500D02*
X1917Y2500D01*
X1977Y2500D02*
X2017Y2500D01*
X1676Y2499D02*
X1718Y2499D01*
X1776Y2499D02*
X1818Y2499D01*
X1876Y2499D02*
X1918Y2499D01*
X1976Y2499D02*
X2018Y2499D01*
X1675Y2498D02*
X1719Y2498D01*
X1775Y2498D02*
X1819Y2498D01*
X1875Y2498D02*
X1919Y2498D01*
X1975Y2498D02*
X2019Y2498D01*
X1674Y2497D02*
X1720Y2497D01*
X1774Y2497D02*
X1820Y2497D01*
X1874Y2497D02*
X1920Y2497D01*
X1974Y2497D02*
X2020Y2497D01*
X1674Y2496D02*
X1721Y2496D01*
X1774Y2496D02*
X1821Y2496D01*
X1873Y2496D02*
X1921Y2496D01*
X1973Y2496D02*
X2021Y2496D01*
X1673Y2495D02*
X1722Y2495D01*
X1773Y2495D02*
X1822Y2495D01*
X1873Y2495D02*
X1921Y2495D01*
X1973Y2495D02*
X2021Y2495D01*
X1672Y2494D02*
X1722Y2494D01*
X1772Y2494D02*
X1822Y2494D01*
X1872Y2494D02*
X1922Y2494D01*
X1972Y2494D02*
X2022Y2494D01*
X1671Y2493D02*
X1723Y2493D01*
X1771Y2493D02*
X1823Y2493D01*
X1871Y2493D02*
X1923Y2493D01*
X1971Y2493D02*
X2023Y2493D01*
X1671Y2492D02*
X1723Y2492D01*
X1771Y2492D02*
X1823Y2492D01*
X1871Y2492D02*
X1923Y2492D01*
X1971Y2492D02*
X2023Y2492D01*
X1670Y2491D02*
X1724Y2491D01*
X1770Y2491D02*
X1824Y2491D01*
X1870Y2491D02*
X1924Y2491D01*
X1970Y2491D02*
X2024Y2491D01*
X1670Y2490D02*
X1725Y2490D01*
X1770Y2490D02*
X1824Y2490D01*
X1870Y2490D02*
X1924Y2490D01*
X1970Y2490D02*
X2024Y2490D01*
X1669Y2489D02*
X1725Y2489D01*
X1769Y2489D02*
X1825Y2489D01*
X1869Y2489D02*
X1925Y2489D01*
X1969Y2489D02*
X2025Y2489D01*
X1669Y2488D02*
X1725Y2488D01*
X1769Y2488D02*
X1825Y2488D01*
X1869Y2488D02*
X1925Y2488D01*
X1969Y2488D02*
X2025Y2488D01*
X1669Y2487D02*
X1726Y2487D01*
X1769Y2487D02*
X1826Y2487D01*
X1869Y2487D02*
X1926Y2487D01*
X1969Y2487D02*
X2026Y2487D01*
X1668Y2486D02*
X1726Y2486D01*
X1768Y2486D02*
X1826Y2486D01*
X1868Y2486D02*
X1926Y2486D01*
X1968Y2486D02*
X2026Y2486D01*
X1668Y2485D02*
X1726Y2485D01*
X1768Y2485D02*
X1826Y2485D01*
X1868Y2485D02*
X1926Y2485D01*
X1968Y2485D02*
X2026Y2485D01*
X1668Y2484D02*
X1727Y2484D01*
X1768Y2484D02*
X1827Y2484D01*
X1868Y2484D02*
X1927Y2484D01*
X1968Y2484D02*
X2027Y2484D01*
X1667Y2483D02*
X1727Y2483D01*
X1767Y2483D02*
X1827Y2483D01*
X1867Y2483D02*
X1927Y2483D01*
X1967Y2483D02*
X2027Y2483D01*
X1667Y2482D02*
X1727Y2482D01*
X1767Y2482D02*
X1827Y2482D01*
X1867Y2482D02*
X1927Y2482D01*
X1967Y2482D02*
X2027Y2482D01*
X1667Y2481D02*
X1727Y2481D01*
X1767Y2481D02*
X1827Y2481D01*
X1867Y2481D02*
X1927Y2481D01*
X1967Y2481D02*
X2027Y2481D01*
X1667Y2480D02*
X1727Y2480D01*
X1767Y2480D02*
X1827Y2480D01*
X1867Y2480D02*
X1927Y2480D01*
X1967Y2480D02*
X2027Y2480D01*
X1667Y2479D02*
X1728Y2479D01*
X1767Y2479D02*
X1828Y2479D01*
X1867Y2479D02*
X1927Y2479D01*
X1967Y2479D02*
X2027Y2479D01*
X1667Y2478D02*
X1728Y2478D01*
X1767Y2478D02*
X1828Y2478D01*
X1867Y2478D02*
X1928Y2478D01*
X1967Y2478D02*
X2028Y2478D01*
X1667Y2477D02*
X1728Y2477D01*
X1767Y2477D02*
X1828Y2477D01*
X1867Y2477D02*
X1928Y2477D01*
X1967Y2477D02*
X2028Y2477D01*
X1667Y2476D02*
X1728Y2476D01*
X1767Y2476D02*
X1828Y2476D01*
X1867Y2476D02*
X1928Y2476D01*
X1967Y2476D02*
X2028Y2476D01*
X1667Y2475D02*
X1728Y2475D01*
X1767Y2475D02*
X1828Y2475D01*
X1867Y2475D02*
X1928Y2475D01*
X1967Y2475D02*
X2028Y2475D01*
X1667Y2474D02*
X1728Y2474D01*
X1767Y2474D02*
X1828Y2474D01*
X1867Y2474D02*
X1928Y2474D01*
X1967Y2474D02*
X2028Y2474D01*
X1667Y2473D02*
X1728Y2473D01*
X1767Y2473D02*
X1828Y2473D01*
X1867Y2473D02*
X1928Y2473D01*
X1967Y2473D02*
X2028Y2473D01*
X1667Y2472D02*
X1728Y2472D01*
X1767Y2472D02*
X1828Y2472D01*
X1867Y2472D02*
X1928Y2472D01*
X1967Y2472D02*
X2028Y2472D01*
X1667Y2471D02*
X1728Y2471D01*
X1767Y2471D02*
X1828Y2471D01*
X1867Y2471D02*
X1928Y2471D01*
X1967Y2471D02*
X2028Y2471D01*
X1667Y2470D02*
X1728Y2470D01*
X1767Y2470D02*
X1828Y2470D01*
X1867Y2470D02*
X1928Y2470D01*
X1967Y2470D02*
X2028Y2470D01*
X1667Y2469D02*
X1728Y2469D01*
X1767Y2469D02*
X1828Y2469D01*
X1867Y2469D02*
X1928Y2469D01*
X1967Y2469D02*
X2028Y2469D01*
X1667Y2468D02*
X1728Y2468D01*
X1767Y2468D02*
X1828Y2468D01*
X1867Y2468D02*
X1928Y2468D01*
X1967Y2468D02*
X2028Y2468D01*
X1667Y2467D02*
X1728Y2467D01*
X1767Y2467D02*
X1828Y2467D01*
X1867Y2467D02*
X1928Y2467D01*
X1967Y2467D02*
X2028Y2467D01*
X1667Y2466D02*
X1728Y2466D01*
X1767Y2466D02*
X1828Y2466D01*
X1867Y2466D02*
X1928Y2466D01*
X1967Y2466D02*
X2028Y2466D01*
X1667Y2465D02*
X1728Y2465D01*
X1767Y2465D02*
X1828Y2465D01*
X1867Y2465D02*
X1928Y2465D01*
X1967Y2465D02*
X2028Y2465D01*
X1667Y2464D02*
X1728Y2464D01*
X1767Y2464D02*
X1828Y2464D01*
X1867Y2464D02*
X1928Y2464D01*
X1967Y2464D02*
X2028Y2464D01*
X1667Y2463D02*
X1728Y2463D01*
X1767Y2463D02*
X1828Y2463D01*
X1867Y2463D02*
X1928Y2463D01*
X1967Y2463D02*
X2028Y2463D01*
X1667Y2462D02*
X1728Y2462D01*
X1767Y2462D02*
X1828Y2462D01*
X1867Y2462D02*
X1928Y2462D01*
X1967Y2462D02*
X2028Y2462D01*
X1667Y2461D02*
X1693Y2461D01*
X1701Y2461D02*
X1728Y2461D01*
X1767Y2461D02*
X1793Y2461D01*
X1801Y2461D02*
X1828Y2461D01*
X1867Y2461D02*
X1893Y2461D01*
X1901Y2461D02*
X1928Y2461D01*
X1967Y2461D02*
X1993Y2461D01*
X2001Y2461D02*
X2028Y2461D01*
X1667Y2460D02*
X1691Y2460D01*
X1703Y2460D02*
X1728Y2460D01*
X1767Y2460D02*
X1791Y2460D01*
X1803Y2460D02*
X1828Y2460D01*
X1867Y2460D02*
X1891Y2460D01*
X1903Y2460D02*
X1928Y2460D01*
X1967Y2460D02*
X1991Y2460D01*
X2003Y2460D02*
X2028Y2460D01*
X1667Y2459D02*
X1690Y2459D01*
X1705Y2459D02*
X1728Y2459D01*
X1767Y2459D02*
X1790Y2459D01*
X1805Y2459D02*
X1828Y2459D01*
X1867Y2459D02*
X1890Y2459D01*
X1905Y2459D02*
X1928Y2459D01*
X1967Y2459D02*
X1990Y2459D01*
X2005Y2459D02*
X2028Y2459D01*
X1667Y2458D02*
X1689Y2458D01*
X1706Y2458D02*
X1728Y2458D01*
X1767Y2458D02*
X1789Y2458D01*
X1806Y2458D02*
X1828Y2458D01*
X1867Y2458D02*
X1889Y2458D01*
X1906Y2458D02*
X1928Y2458D01*
X1967Y2458D02*
X1988Y2458D01*
X2006Y2458D02*
X2028Y2458D01*
X1667Y2457D02*
X1688Y2457D01*
X1707Y2457D02*
X1728Y2457D01*
X1767Y2457D02*
X1788Y2457D01*
X1807Y2457D02*
X1828Y2457D01*
X1867Y2457D02*
X1888Y2457D01*
X1907Y2457D02*
X1928Y2457D01*
X1967Y2457D02*
X1988Y2457D01*
X2007Y2457D02*
X2028Y2457D01*
X1667Y2456D02*
X1687Y2456D01*
X1707Y2456D02*
X1728Y2456D01*
X1767Y2456D02*
X1787Y2456D01*
X1807Y2456D02*
X1828Y2456D01*
X1867Y2456D02*
X1887Y2456D01*
X1907Y2456D02*
X1928Y2456D01*
X1967Y2456D02*
X1987Y2456D01*
X2007Y2456D02*
X2028Y2456D01*
X1667Y2455D02*
X1687Y2455D01*
X1708Y2455D02*
X1728Y2455D01*
X1767Y2455D02*
X1786Y2455D01*
X1808Y2455D02*
X1828Y2455D01*
X1867Y2455D02*
X1886Y2455D01*
X1908Y2455D02*
X1928Y2455D01*
X1967Y2455D02*
X1986Y2455D01*
X2008Y2455D02*
X2028Y2455D01*
X1667Y2454D02*
X1686Y2454D01*
X1708Y2454D02*
X1728Y2454D01*
X1767Y2454D02*
X1786Y2454D01*
X1808Y2454D02*
X1828Y2454D01*
X1867Y2454D02*
X1886Y2454D01*
X1908Y2454D02*
X1928Y2454D01*
X1967Y2454D02*
X1986Y2454D01*
X2008Y2454D02*
X2028Y2454D01*
X1667Y2453D02*
X1686Y2453D01*
X1708Y2453D02*
X1728Y2453D01*
X1767Y2453D02*
X1786Y2453D01*
X1808Y2453D02*
X1828Y2453D01*
X1867Y2453D02*
X1886Y2453D01*
X1908Y2453D02*
X1928Y2453D01*
X1967Y2453D02*
X1986Y2453D01*
X2008Y2453D02*
X2028Y2453D01*
X1667Y2452D02*
X1686Y2452D01*
X1709Y2452D02*
X1728Y2452D01*
X1767Y2452D02*
X1786Y2452D01*
X1809Y2452D02*
X1828Y2452D01*
X1867Y2452D02*
X1886Y2452D01*
X1909Y2452D02*
X1928Y2452D01*
X1967Y2452D02*
X1986Y2452D01*
X2008Y2452D02*
X2028Y2452D01*
X1667Y2451D02*
X1686Y2451D01*
X1709Y2451D02*
X1728Y2451D01*
X1767Y2451D02*
X1786Y2451D01*
X1809Y2451D02*
X1828Y2451D01*
X1867Y2451D02*
X1886Y2451D01*
X1909Y2451D02*
X1928Y2451D01*
X1967Y2451D02*
X1986Y2451D01*
X2009Y2451D02*
X2028Y2451D01*
X1667Y2450D02*
X1686Y2450D01*
X1709Y2450D02*
X1728Y2450D01*
X1767Y2450D02*
X1786Y2450D01*
X1809Y2450D02*
X1828Y2450D01*
X1867Y2450D02*
X1886Y2450D01*
X1909Y2450D02*
X1928Y2450D01*
X1967Y2450D02*
X1986Y2450D01*
X2009Y2450D02*
X2028Y2450D01*
X1667Y2449D02*
X1686Y2449D01*
X1709Y2449D02*
X1728Y2449D01*
X1767Y2449D02*
X1786Y2449D01*
X1809Y2449D02*
X1828Y2449D01*
X1867Y2449D02*
X1886Y2449D01*
X1908Y2449D02*
X1928Y2449D01*
X1967Y2449D02*
X1986Y2449D01*
X2008Y2449D02*
X2028Y2449D01*
X1667Y2448D02*
X1686Y2448D01*
X1708Y2448D02*
X1728Y2448D01*
X1767Y2448D02*
X1786Y2448D01*
X1808Y2448D02*
X1828Y2448D01*
X1867Y2448D02*
X1886Y2448D01*
X1908Y2448D02*
X1928Y2448D01*
X1967Y2448D02*
X1986Y2448D01*
X2008Y2448D02*
X2028Y2448D01*
X1667Y2447D02*
X1686Y2447D01*
X1708Y2447D02*
X1728Y2447D01*
X1767Y2447D02*
X1786Y2447D01*
X1808Y2447D02*
X1828Y2447D01*
X1867Y2447D02*
X1886Y2447D01*
X1908Y2447D02*
X1928Y2447D01*
X1967Y2447D02*
X1986Y2447D01*
X2008Y2447D02*
X2028Y2447D01*
X1667Y2446D02*
X1687Y2446D01*
X1708Y2446D02*
X1728Y2446D01*
X1767Y2446D02*
X1787Y2446D01*
X1808Y2446D02*
X1828Y2446D01*
X1867Y2446D02*
X1887Y2446D01*
X1908Y2446D02*
X1928Y2446D01*
X1967Y2446D02*
X1987Y2446D01*
X2008Y2446D02*
X2028Y2446D01*
X1667Y2445D02*
X1687Y2445D01*
X1707Y2445D02*
X1728Y2445D01*
X1767Y2445D02*
X1787Y2445D01*
X1807Y2445D02*
X1828Y2445D01*
X1867Y2445D02*
X1887Y2445D01*
X1907Y2445D02*
X1928Y2445D01*
X1967Y2445D02*
X1987Y2445D01*
X2007Y2445D02*
X2028Y2445D01*
X1667Y2444D02*
X1688Y2444D01*
X1706Y2444D02*
X1728Y2444D01*
X1767Y2444D02*
X1788Y2444D01*
X1806Y2444D02*
X1828Y2444D01*
X1867Y2444D02*
X1888Y2444D01*
X1906Y2444D02*
X1928Y2444D01*
X1967Y2444D02*
X1988Y2444D01*
X2006Y2444D02*
X2028Y2444D01*
X1667Y2443D02*
X1689Y2443D01*
X1706Y2443D02*
X1728Y2443D01*
X1767Y2443D02*
X1789Y2443D01*
X1806Y2443D02*
X1828Y2443D01*
X1867Y2443D02*
X1889Y2443D01*
X1906Y2443D02*
X1928Y2443D01*
X1967Y2443D02*
X1989Y2443D01*
X2005Y2443D02*
X2028Y2443D01*
X1667Y2442D02*
X1690Y2442D01*
X1704Y2442D02*
X1728Y2442D01*
X1767Y2442D02*
X1790Y2442D01*
X1804Y2442D02*
X1828Y2442D01*
X1867Y2442D02*
X1890Y2442D01*
X1904Y2442D02*
X1928Y2442D01*
X1967Y2442D02*
X1990Y2442D01*
X2004Y2442D02*
X2028Y2442D01*
X1667Y2441D02*
X1691Y2441D01*
X1703Y2441D02*
X1728Y2441D01*
X1767Y2441D02*
X1791Y2441D01*
X1803Y2441D02*
X1828Y2441D01*
X1867Y2441D02*
X1891Y2441D01*
X1903Y2441D02*
X1928Y2441D01*
X1967Y2441D02*
X1991Y2441D01*
X2003Y2441D02*
X2028Y2441D01*
X1667Y2440D02*
X1694Y2440D01*
X1701Y2440D02*
X1728Y2440D01*
X1767Y2440D02*
X1794Y2440D01*
X1801Y2440D02*
X1828Y2440D01*
X1867Y2440D02*
X1894Y2440D01*
X1901Y2440D02*
X1928Y2440D01*
X1967Y2440D02*
X1994Y2440D01*
X2001Y2440D02*
X2028Y2440D01*
X1667Y2439D02*
X1728Y2439D01*
X1767Y2439D02*
X1828Y2439D01*
X1867Y2439D02*
X1928Y2439D01*
X1967Y2439D02*
X2028Y2439D01*
X1667Y2438D02*
X1728Y2438D01*
X1767Y2438D02*
X1828Y2438D01*
X1867Y2438D02*
X1928Y2438D01*
X1967Y2438D02*
X2028Y2438D01*
X1667Y2437D02*
X1728Y2437D01*
X1767Y2437D02*
X1828Y2437D01*
X1867Y2437D02*
X1928Y2437D01*
X1967Y2437D02*
X2028Y2437D01*
X1667Y2436D02*
X1728Y2436D01*
X1767Y2436D02*
X1828Y2436D01*
X1867Y2436D02*
X1928Y2436D01*
X1967Y2436D02*
X2028Y2436D01*
X1667Y2435D02*
X1728Y2435D01*
X1767Y2435D02*
X1828Y2435D01*
X1867Y2435D02*
X1928Y2435D01*
X1967Y2435D02*
X2028Y2435D01*
X1667Y2434D02*
X1728Y2434D01*
X1767Y2434D02*
X1828Y2434D01*
X1867Y2434D02*
X1928Y2434D01*
X1967Y2434D02*
X2028Y2434D01*
X1667Y2433D02*
X1728Y2433D01*
X1767Y2433D02*
X1828Y2433D01*
X1867Y2433D02*
X1928Y2433D01*
X1967Y2433D02*
X2028Y2433D01*
X1667Y2432D02*
X1728Y2432D01*
X1767Y2432D02*
X1828Y2432D01*
X1867Y2432D02*
X1928Y2432D01*
X1967Y2432D02*
X2028Y2432D01*
X1667Y2431D02*
X1728Y2431D01*
X1767Y2431D02*
X1828Y2431D01*
X1867Y2431D02*
X1928Y2431D01*
X1967Y2431D02*
X2028Y2431D01*
X1667Y2430D02*
X1728Y2430D01*
X1767Y2430D02*
X1828Y2430D01*
X1867Y2430D02*
X1928Y2430D01*
X1967Y2430D02*
X2028Y2430D01*
X1667Y2429D02*
X1728Y2429D01*
X1767Y2429D02*
X1828Y2429D01*
X1867Y2429D02*
X1928Y2429D01*
X1967Y2429D02*
X2028Y2429D01*
X1667Y2428D02*
X1728Y2428D01*
X1767Y2428D02*
X1828Y2428D01*
X1867Y2428D02*
X1928Y2428D01*
X1967Y2428D02*
X2028Y2428D01*
X1667Y2427D02*
X1728Y2427D01*
X1767Y2427D02*
X1828Y2427D01*
X1867Y2427D02*
X1928Y2427D01*
X1967Y2427D02*
X2028Y2427D01*
X1667Y2426D02*
X1728Y2426D01*
X1767Y2426D02*
X1828Y2426D01*
X1867Y2426D02*
X1928Y2426D01*
X1967Y2426D02*
X2028Y2426D01*
X1667Y2425D02*
X1728Y2425D01*
X1767Y2425D02*
X1828Y2425D01*
X1867Y2425D02*
X1928Y2425D01*
X1967Y2425D02*
X2028Y2425D01*
X1667Y2424D02*
X1728Y2424D01*
X1767Y2424D02*
X1828Y2424D01*
X1867Y2424D02*
X1928Y2424D01*
X1967Y2424D02*
X2028Y2424D01*
X1667Y2423D02*
X1728Y2423D01*
X1767Y2423D02*
X1828Y2423D01*
X1867Y2423D02*
X1928Y2423D01*
X1967Y2423D02*
X2028Y2423D01*
X1667Y2422D02*
X1728Y2422D01*
X1767Y2422D02*
X1827Y2422D01*
X1867Y2422D02*
X1927Y2422D01*
X1967Y2422D02*
X2027Y2422D01*
X1667Y2421D02*
X1727Y2421D01*
X1767Y2421D02*
X1827Y2421D01*
X1867Y2421D02*
X1927Y2421D01*
X1967Y2421D02*
X2027Y2421D01*
X1667Y2420D02*
X1727Y2420D01*
X1767Y2420D02*
X1827Y2420D01*
X1867Y2420D02*
X1927Y2420D01*
X1967Y2420D02*
X2027Y2420D01*
X1667Y2419D02*
X1727Y2419D01*
X1767Y2419D02*
X1827Y2419D01*
X1867Y2419D02*
X1927Y2419D01*
X1967Y2419D02*
X2027Y2419D01*
X1667Y2418D02*
X1727Y2418D01*
X1767Y2418D02*
X1827Y2418D01*
X1867Y2418D02*
X1927Y2418D01*
X1967Y2418D02*
X2027Y2418D01*
X1668Y2417D02*
X1727Y2417D01*
X1768Y2417D02*
X1827Y2417D01*
X1868Y2417D02*
X1927Y2417D01*
X1968Y2417D02*
X2027Y2417D01*
X1668Y2416D02*
X1726Y2416D01*
X1768Y2416D02*
X1826Y2416D01*
X1868Y2416D02*
X1926Y2416D01*
X1968Y2416D02*
X2026Y2416D01*
X1668Y2415D02*
X1726Y2415D01*
X1768Y2415D02*
X1826Y2415D01*
X1868Y2415D02*
X1926Y2415D01*
X1968Y2415D02*
X2026Y2415D01*
X1669Y2414D02*
X1726Y2414D01*
X1769Y2414D02*
X1826Y2414D01*
X1869Y2414D02*
X1926Y2414D01*
X1969Y2414D02*
X2026Y2414D01*
X1669Y2413D02*
X1725Y2413D01*
X1769Y2413D02*
X1825Y2413D01*
X1869Y2413D02*
X1925Y2413D01*
X1969Y2413D02*
X2025Y2413D01*
X1669Y2412D02*
X1725Y2412D01*
X1769Y2412D02*
X1825Y2412D01*
X1869Y2412D02*
X1925Y2412D01*
X1969Y2412D02*
X2025Y2412D01*
X1670Y2411D02*
X1724Y2411D01*
X1770Y2411D02*
X1824Y2411D01*
X1870Y2411D02*
X1924Y2411D01*
X1970Y2411D02*
X2024Y2411D01*
X1670Y2410D02*
X1724Y2410D01*
X1770Y2410D02*
X1824Y2410D01*
X1870Y2410D02*
X1924Y2410D01*
X1970Y2410D02*
X2024Y2410D01*
X1671Y2409D02*
X1723Y2409D01*
X1771Y2409D02*
X1823Y2409D01*
X1871Y2409D02*
X1923Y2409D01*
X1971Y2409D02*
X2023Y2409D01*
X1672Y2408D02*
X1723Y2408D01*
X1772Y2408D02*
X1823Y2408D01*
X1872Y2408D02*
X1923Y2408D01*
X1972Y2408D02*
X2023Y2408D01*
X1672Y2407D02*
X1722Y2407D01*
X1772Y2407D02*
X1822Y2407D01*
X1872Y2407D02*
X1922Y2407D01*
X1972Y2407D02*
X2022Y2407D01*
X1673Y2406D02*
X1721Y2406D01*
X1773Y2406D02*
X1821Y2406D01*
X1873Y2406D02*
X1921Y2406D01*
X1973Y2406D02*
X2021Y2406D01*
X1674Y2405D02*
X1721Y2405D01*
X1774Y2405D02*
X1821Y2405D01*
X1874Y2405D02*
X1921Y2405D01*
X1974Y2405D02*
X2021Y2405D01*
X1675Y2404D02*
X1720Y2404D01*
X1775Y2404D02*
X1820Y2404D01*
X1875Y2404D02*
X1920Y2404D01*
X1975Y2404D02*
X2020Y2404D01*
X1675Y2403D02*
X1719Y2403D01*
X1775Y2403D02*
X1819Y2403D01*
X1875Y2403D02*
X1919Y2403D01*
X1975Y2403D02*
X2019Y2403D01*
X1677Y2402D02*
X1718Y2402D01*
X1777Y2402D02*
X1818Y2402D01*
X1877Y2402D02*
X1918Y2402D01*
X1977Y2402D02*
X2018Y2402D01*
X1678Y2401D02*
X1717Y2401D01*
X1778Y2401D02*
X1817Y2401D01*
X1878Y2401D02*
X1917Y2401D01*
X1978Y2401D02*
X2017Y2401D01*
X1679Y2400D02*
X1715Y2400D01*
X1779Y2400D02*
X1815Y2400D01*
X1879Y2400D02*
X1915Y2400D01*
X1979Y2400D02*
X2015Y2400D01*
X1680Y2399D02*
X1714Y2399D01*
X1780Y2399D02*
X1814Y2399D01*
X1880Y2399D02*
X1914Y2399D01*
X1980Y2399D02*
X2014Y2399D01*
X1682Y2398D02*
X1712Y2398D01*
X1782Y2398D02*
X1812Y2398D01*
X1882Y2398D02*
X1912Y2398D01*
X1982Y2398D02*
X2012Y2398D01*
X1684Y2397D02*
X1710Y2397D01*
X1784Y2397D02*
X1810Y2397D01*
X1884Y2397D02*
X1910Y2397D01*
X1984Y2397D02*
X2010Y2397D01*
X1686Y2396D02*
X1708Y2396D01*
X1786Y2396D02*
X1808Y2396D01*
X1886Y2396D02*
X1908Y2396D01*
X1986Y2396D02*
X2008Y2396D01*
X1689Y2395D02*
X1705Y2395D01*
X1789Y2395D02*
X1805Y2395D01*
X1889Y2395D02*
X1905Y2395D01*
X1989Y2395D02*
X2005Y2395D01*
X1693Y2394D02*
X1701Y2394D01*
X1793Y2394D02*
X1801Y2394D01*
X1893Y2394D02*
X1901Y2394D01*
X1993Y2394D02*
X2001Y2394D01*
X1691Y2207D02*
X1703Y2207D01*
X1791Y2207D02*
X1803Y2207D01*
X1891Y2207D02*
X1903Y2207D01*
X1991Y2207D02*
X2003Y2207D01*
X1688Y2206D02*
X1706Y2206D01*
X1788Y2206D02*
X1806Y2206D01*
X1888Y2206D02*
X1906Y2206D01*
X1988Y2206D02*
X2006Y2206D01*
X1685Y2205D02*
X1709Y2205D01*
X1785Y2205D02*
X1809Y2205D01*
X1885Y2205D02*
X1909Y2205D01*
X1985Y2205D02*
X2009Y2205D01*
X1683Y2204D02*
X1711Y2204D01*
X1783Y2204D02*
X1811Y2204D01*
X1883Y2204D02*
X1911Y2204D01*
X1983Y2204D02*
X2011Y2204D01*
X1681Y2203D02*
X1713Y2203D01*
X1781Y2203D02*
X1813Y2203D01*
X1881Y2203D02*
X1913Y2203D01*
X1981Y2203D02*
X2013Y2203D01*
X1680Y2202D02*
X1714Y2202D01*
X1780Y2202D02*
X1814Y2202D01*
X1880Y2202D02*
X1914Y2202D01*
X1980Y2202D02*
X2014Y2202D01*
X1679Y2201D02*
X1716Y2201D01*
X1779Y2201D02*
X1816Y2201D01*
X1878Y2201D02*
X1916Y2201D01*
X1978Y2201D02*
X2016Y2201D01*
X1677Y2200D02*
X1717Y2200D01*
X1777Y2200D02*
X1817Y2200D01*
X1877Y2200D02*
X1917Y2200D01*
X1977Y2200D02*
X2017Y2200D01*
X1676Y2199D02*
X1718Y2199D01*
X1776Y2199D02*
X1818Y2199D01*
X1876Y2199D02*
X1918Y2199D01*
X1976Y2199D02*
X2018Y2199D01*
X1675Y2198D02*
X1719Y2198D01*
X1775Y2198D02*
X1819Y2198D01*
X1875Y2198D02*
X1919Y2198D01*
X1975Y2198D02*
X2019Y2198D01*
X1674Y2197D02*
X1720Y2197D01*
X1774Y2197D02*
X1820Y2197D01*
X1874Y2197D02*
X1920Y2197D01*
X1974Y2197D02*
X2020Y2197D01*
X1673Y2196D02*
X1721Y2196D01*
X1773Y2196D02*
X1821Y2196D01*
X1873Y2196D02*
X1921Y2196D01*
X1973Y2196D02*
X2021Y2196D01*
X1673Y2195D02*
X1722Y2195D01*
X1773Y2195D02*
X1822Y2195D01*
X1873Y2195D02*
X1922Y2195D01*
X1973Y2195D02*
X2022Y2195D01*
X1672Y2194D02*
X1722Y2194D01*
X1772Y2194D02*
X1822Y2194D01*
X1872Y2194D02*
X1922Y2194D01*
X1972Y2194D02*
X2022Y2194D01*
X1671Y2193D02*
X1723Y2193D01*
X1771Y2193D02*
X1823Y2193D01*
X1871Y2193D02*
X1923Y2193D01*
X1971Y2193D02*
X2023Y2193D01*
X1671Y2192D02*
X1724Y2192D01*
X1771Y2192D02*
X1823Y2192D01*
X1871Y2192D02*
X1923Y2192D01*
X1971Y2192D02*
X2023Y2192D01*
X1670Y2191D02*
X1724Y2191D01*
X1770Y2191D02*
X1824Y2191D01*
X1870Y2191D02*
X1924Y2191D01*
X1970Y2191D02*
X2024Y2191D01*
X1670Y2190D02*
X1725Y2190D01*
X1770Y2190D02*
X1825Y2190D01*
X1870Y2190D02*
X1924Y2190D01*
X1970Y2190D02*
X2024Y2190D01*
X1669Y2189D02*
X1725Y2189D01*
X1769Y2189D02*
X1825Y2189D01*
X1869Y2189D02*
X1925Y2189D01*
X1969Y2189D02*
X2025Y2189D01*
X1669Y2188D02*
X1725Y2188D01*
X1769Y2188D02*
X1825Y2188D01*
X1869Y2188D02*
X1925Y2188D01*
X1969Y2188D02*
X2025Y2188D01*
X1669Y2187D02*
X1726Y2187D01*
X1769Y2187D02*
X1826Y2187D01*
X1869Y2187D02*
X1926Y2187D01*
X1969Y2187D02*
X2026Y2187D01*
X1668Y2186D02*
X1726Y2186D01*
X1768Y2186D02*
X1826Y2186D01*
X1868Y2186D02*
X1926Y2186D01*
X1968Y2186D02*
X2026Y2186D01*
X1668Y2185D02*
X1726Y2185D01*
X1768Y2185D02*
X1826Y2185D01*
X1868Y2185D02*
X1926Y2185D01*
X1968Y2185D02*
X2026Y2185D01*
X1668Y2184D02*
X1727Y2184D01*
X1768Y2184D02*
X1827Y2184D01*
X1868Y2184D02*
X1927Y2184D01*
X1968Y2184D02*
X2027Y2184D01*
X1667Y2183D02*
X1727Y2183D01*
X1767Y2183D02*
X1827Y2183D01*
X1867Y2183D02*
X1927Y2183D01*
X1967Y2183D02*
X2027Y2183D01*
X1667Y2182D02*
X1727Y2182D01*
X1767Y2182D02*
X1827Y2182D01*
X1867Y2182D02*
X1927Y2182D01*
X1967Y2182D02*
X2027Y2182D01*
X1667Y2181D02*
X1727Y2181D01*
X1767Y2181D02*
X1827Y2181D01*
X1867Y2181D02*
X1927Y2181D01*
X1967Y2181D02*
X2027Y2181D01*
X1667Y2180D02*
X1727Y2180D01*
X1767Y2180D02*
X1827Y2180D01*
X1867Y2180D02*
X1927Y2180D01*
X1967Y2180D02*
X2027Y2180D01*
X1667Y2179D02*
X1728Y2179D01*
X1767Y2179D02*
X1828Y2179D01*
X1867Y2179D02*
X1927Y2179D01*
X1967Y2179D02*
X2027Y2179D01*
X1667Y2178D02*
X1728Y2178D01*
X1767Y2178D02*
X1828Y2178D01*
X1867Y2178D02*
X1928Y2178D01*
X1967Y2178D02*
X2028Y2178D01*
X1667Y2177D02*
X1728Y2177D01*
X1767Y2177D02*
X1828Y2177D01*
X1867Y2177D02*
X1928Y2177D01*
X1967Y2177D02*
X2028Y2177D01*
X1667Y2176D02*
X1728Y2176D01*
X1767Y2176D02*
X1828Y2176D01*
X1867Y2176D02*
X1928Y2176D01*
X1967Y2176D02*
X2028Y2176D01*
X1667Y2175D02*
X1728Y2175D01*
X1767Y2175D02*
X1828Y2175D01*
X1867Y2175D02*
X1928Y2175D01*
X1967Y2175D02*
X2028Y2175D01*
X1667Y2174D02*
X1728Y2174D01*
X1767Y2174D02*
X1828Y2174D01*
X1867Y2174D02*
X1928Y2174D01*
X1967Y2174D02*
X2028Y2174D01*
X1667Y2173D02*
X1728Y2173D01*
X1767Y2173D02*
X1828Y2173D01*
X1867Y2173D02*
X1928Y2173D01*
X1967Y2173D02*
X2028Y2173D01*
X1667Y2172D02*
X1728Y2172D01*
X1767Y2172D02*
X1828Y2172D01*
X1867Y2172D02*
X1928Y2172D01*
X1967Y2172D02*
X2028Y2172D01*
X1667Y2171D02*
X1728Y2171D01*
X1767Y2171D02*
X1828Y2171D01*
X1867Y2171D02*
X1928Y2171D01*
X1967Y2171D02*
X2028Y2171D01*
X1667Y2170D02*
X1728Y2170D01*
X1767Y2170D02*
X1828Y2170D01*
X1867Y2170D02*
X1928Y2170D01*
X1967Y2170D02*
X2028Y2170D01*
X1667Y2169D02*
X1728Y2169D01*
X1767Y2169D02*
X1828Y2169D01*
X1867Y2169D02*
X1928Y2169D01*
X1967Y2169D02*
X2028Y2169D01*
X1667Y2168D02*
X1728Y2168D01*
X1767Y2168D02*
X1828Y2168D01*
X1867Y2168D02*
X1928Y2168D01*
X1967Y2168D02*
X2028Y2168D01*
X1667Y2167D02*
X1728Y2167D01*
X1767Y2167D02*
X1828Y2167D01*
X1867Y2167D02*
X1928Y2167D01*
X1967Y2167D02*
X2028Y2167D01*
X1667Y2166D02*
X1728Y2166D01*
X1767Y2166D02*
X1828Y2166D01*
X1867Y2166D02*
X1928Y2166D01*
X1967Y2166D02*
X2028Y2166D01*
X1667Y2165D02*
X1728Y2165D01*
X1767Y2165D02*
X1828Y2165D01*
X1867Y2165D02*
X1928Y2165D01*
X1967Y2165D02*
X2028Y2165D01*
X1667Y2164D02*
X1728Y2164D01*
X1767Y2164D02*
X1828Y2164D01*
X1867Y2164D02*
X1928Y2164D01*
X1967Y2164D02*
X2028Y2164D01*
X1667Y2163D02*
X1728Y2163D01*
X1767Y2163D02*
X1828Y2163D01*
X1867Y2163D02*
X1928Y2163D01*
X1967Y2163D02*
X2028Y2163D01*
X1667Y2162D02*
X1728Y2162D01*
X1767Y2162D02*
X1828Y2162D01*
X1867Y2162D02*
X1928Y2162D01*
X1967Y2162D02*
X2028Y2162D01*
X1667Y2161D02*
X1693Y2161D01*
X1702Y2161D02*
X1728Y2161D01*
X1767Y2161D02*
X1793Y2161D01*
X1802Y2161D02*
X1828Y2161D01*
X1867Y2161D02*
X1893Y2161D01*
X1902Y2161D02*
X1928Y2161D01*
X1967Y2161D02*
X1993Y2161D01*
X2002Y2161D02*
X2028Y2161D01*
X1667Y2160D02*
X1691Y2160D01*
X1704Y2160D02*
X1728Y2160D01*
X1767Y2160D02*
X1791Y2160D01*
X1804Y2160D02*
X1828Y2160D01*
X1867Y2160D02*
X1891Y2160D01*
X1904Y2160D02*
X1928Y2160D01*
X1967Y2160D02*
X1991Y2160D01*
X2004Y2160D02*
X2028Y2160D01*
X1667Y2159D02*
X1690Y2159D01*
X1705Y2159D02*
X1728Y2159D01*
X1767Y2159D02*
X1789Y2159D01*
X1805Y2159D02*
X1828Y2159D01*
X1867Y2159D02*
X1889Y2159D01*
X1905Y2159D02*
X1928Y2159D01*
X1967Y2159D02*
X1989Y2159D01*
X2005Y2159D02*
X2028Y2159D01*
X1667Y2158D02*
X1688Y2158D01*
X1706Y2158D02*
X1728Y2158D01*
X1767Y2158D02*
X1788Y2158D01*
X1806Y2158D02*
X1828Y2158D01*
X1867Y2158D02*
X1888Y2158D01*
X1906Y2158D02*
X1928Y2158D01*
X1967Y2158D02*
X1988Y2158D01*
X2006Y2158D02*
X2028Y2158D01*
X1667Y2157D02*
X1688Y2157D01*
X1707Y2157D02*
X1728Y2157D01*
X1767Y2157D02*
X1788Y2157D01*
X1807Y2157D02*
X1828Y2157D01*
X1867Y2157D02*
X1888Y2157D01*
X1907Y2157D02*
X1928Y2157D01*
X1967Y2157D02*
X1988Y2157D01*
X2007Y2157D02*
X2028Y2157D01*
X1667Y2156D02*
X1687Y2156D01*
X1707Y2156D02*
X1728Y2156D01*
X1767Y2156D02*
X1787Y2156D01*
X1807Y2156D02*
X1828Y2156D01*
X1867Y2156D02*
X1887Y2156D01*
X1907Y2156D02*
X1928Y2156D01*
X1967Y2156D02*
X1987Y2156D01*
X2007Y2156D02*
X2028Y2156D01*
X1667Y2155D02*
X1686Y2155D01*
X1708Y2155D02*
X1728Y2155D01*
X1767Y2155D02*
X1786Y2155D01*
X1808Y2155D02*
X1828Y2155D01*
X1867Y2155D02*
X1886Y2155D01*
X1908Y2155D02*
X1928Y2155D01*
X1967Y2155D02*
X1986Y2155D01*
X2008Y2155D02*
X2028Y2155D01*
X1667Y2154D02*
X1686Y2154D01*
X1708Y2154D02*
X1728Y2154D01*
X1767Y2154D02*
X1786Y2154D01*
X1808Y2154D02*
X1828Y2154D01*
X1867Y2154D02*
X1886Y2154D01*
X1908Y2154D02*
X1928Y2154D01*
X1967Y2154D02*
X1986Y2154D01*
X2008Y2154D02*
X2028Y2154D01*
X1667Y2153D02*
X1686Y2153D01*
X1708Y2153D02*
X1728Y2153D01*
X1767Y2153D02*
X1786Y2153D01*
X1808Y2153D02*
X1828Y2153D01*
X1867Y2153D02*
X1886Y2153D01*
X1908Y2153D02*
X1928Y2153D01*
X1967Y2153D02*
X1986Y2153D01*
X2008Y2153D02*
X2028Y2153D01*
X1667Y2152D02*
X1686Y2152D01*
X1709Y2152D02*
X1728Y2152D01*
X1767Y2152D02*
X1786Y2152D01*
X1809Y2152D02*
X1828Y2152D01*
X1867Y2152D02*
X1886Y2152D01*
X1909Y2152D02*
X1928Y2152D01*
X1967Y2152D02*
X1986Y2152D01*
X2008Y2152D02*
X2028Y2152D01*
X1667Y2151D02*
X1686Y2151D01*
X1709Y2151D02*
X1728Y2151D01*
X1767Y2151D02*
X1786Y2151D01*
X1809Y2151D02*
X1828Y2151D01*
X1867Y2151D02*
X1886Y2151D01*
X1909Y2151D02*
X1928Y2151D01*
X1967Y2151D02*
X1986Y2151D01*
X2009Y2151D02*
X2028Y2151D01*
X1667Y2150D02*
X1686Y2150D01*
X1709Y2150D02*
X1728Y2150D01*
X1767Y2150D02*
X1786Y2150D01*
X1809Y2150D02*
X1828Y2150D01*
X1867Y2150D02*
X1886Y2150D01*
X1909Y2150D02*
X1928Y2150D01*
X1967Y2150D02*
X1986Y2150D01*
X2009Y2150D02*
X2028Y2150D01*
X1667Y2149D02*
X1686Y2149D01*
X1709Y2149D02*
X1728Y2149D01*
X1767Y2149D02*
X1786Y2149D01*
X1809Y2149D02*
X1828Y2149D01*
X1867Y2149D02*
X1886Y2149D01*
X1908Y2149D02*
X1928Y2149D01*
X1967Y2149D02*
X1986Y2149D01*
X2008Y2149D02*
X2028Y2149D01*
X1667Y2148D02*
X1686Y2148D01*
X1708Y2148D02*
X1728Y2148D01*
X1767Y2148D02*
X1786Y2148D01*
X1808Y2148D02*
X1828Y2148D01*
X1867Y2148D02*
X1886Y2148D01*
X1908Y2148D02*
X1928Y2148D01*
X1967Y2148D02*
X1986Y2148D01*
X2008Y2148D02*
X2028Y2148D01*
X1667Y2147D02*
X1686Y2147D01*
X1708Y2147D02*
X1728Y2147D01*
X1767Y2147D02*
X1786Y2147D01*
X1808Y2147D02*
X1828Y2147D01*
X1867Y2147D02*
X1886Y2147D01*
X1908Y2147D02*
X1928Y2147D01*
X1967Y2147D02*
X1986Y2147D01*
X2008Y2147D02*
X2028Y2147D01*
X1667Y2146D02*
X1687Y2146D01*
X1708Y2146D02*
X1728Y2146D01*
X1767Y2146D02*
X1787Y2146D01*
X1808Y2146D02*
X1828Y2146D01*
X1867Y2146D02*
X1887Y2146D01*
X1908Y2146D02*
X1928Y2146D01*
X1967Y2146D02*
X1987Y2146D01*
X2008Y2146D02*
X2028Y2146D01*
X1667Y2145D02*
X1687Y2145D01*
X1707Y2145D02*
X1728Y2145D01*
X1767Y2145D02*
X1787Y2145D01*
X1807Y2145D02*
X1828Y2145D01*
X1867Y2145D02*
X1887Y2145D01*
X1907Y2145D02*
X1928Y2145D01*
X1967Y2145D02*
X1987Y2145D01*
X2007Y2145D02*
X2028Y2145D01*
X1667Y2144D02*
X1688Y2144D01*
X1706Y2144D02*
X1728Y2144D01*
X1767Y2144D02*
X1788Y2144D01*
X1806Y2144D02*
X1828Y2144D01*
X1867Y2144D02*
X1888Y2144D01*
X1906Y2144D02*
X1928Y2144D01*
X1967Y2144D02*
X1988Y2144D01*
X2006Y2144D02*
X2028Y2144D01*
X1667Y2143D02*
X1689Y2143D01*
X1705Y2143D02*
X1728Y2143D01*
X1767Y2143D02*
X1789Y2143D01*
X1805Y2143D02*
X1828Y2143D01*
X1867Y2143D02*
X1889Y2143D01*
X1905Y2143D02*
X1928Y2143D01*
X1967Y2143D02*
X1989Y2143D01*
X2005Y2143D02*
X2028Y2143D01*
X1667Y2142D02*
X1690Y2142D01*
X1704Y2142D02*
X1728Y2142D01*
X1767Y2142D02*
X1790Y2142D01*
X1804Y2142D02*
X1828Y2142D01*
X1867Y2142D02*
X1890Y2142D01*
X1904Y2142D02*
X1928Y2142D01*
X1967Y2142D02*
X1990Y2142D01*
X2004Y2142D02*
X2028Y2142D01*
X1667Y2141D02*
X1691Y2141D01*
X1703Y2141D02*
X1728Y2141D01*
X1767Y2141D02*
X1791Y2141D01*
X1803Y2141D02*
X1828Y2141D01*
X1867Y2141D02*
X1891Y2141D01*
X1903Y2141D02*
X1928Y2141D01*
X1967Y2141D02*
X1991Y2141D01*
X2003Y2141D02*
X2028Y2141D01*
X1667Y2140D02*
X1694Y2140D01*
X1700Y2140D02*
X1728Y2140D01*
X1767Y2140D02*
X1794Y2140D01*
X1800Y2140D02*
X1828Y2140D01*
X1867Y2140D02*
X1894Y2140D01*
X1900Y2140D02*
X1928Y2140D01*
X1967Y2140D02*
X1994Y2140D01*
X2000Y2140D02*
X2028Y2140D01*
X1667Y2139D02*
X1728Y2139D01*
X1767Y2139D02*
X1828Y2139D01*
X1867Y2139D02*
X1928Y2139D01*
X1967Y2139D02*
X2028Y2139D01*
X1667Y2138D02*
X1728Y2138D01*
X1767Y2138D02*
X1828Y2138D01*
X1867Y2138D02*
X1928Y2138D01*
X1967Y2138D02*
X2028Y2138D01*
X1667Y2137D02*
X1728Y2137D01*
X1767Y2137D02*
X1828Y2137D01*
X1867Y2137D02*
X1928Y2137D01*
X1967Y2137D02*
X2028Y2137D01*
X1667Y2136D02*
X1728Y2136D01*
X1767Y2136D02*
X1828Y2136D01*
X1867Y2136D02*
X1928Y2136D01*
X1967Y2136D02*
X2028Y2136D01*
X1667Y2135D02*
X1728Y2135D01*
X1767Y2135D02*
X1828Y2135D01*
X1867Y2135D02*
X1928Y2135D01*
X1967Y2135D02*
X2028Y2135D01*
X1667Y2134D02*
X1728Y2134D01*
X1767Y2134D02*
X1828Y2134D01*
X1867Y2134D02*
X1928Y2134D01*
X1967Y2134D02*
X2028Y2134D01*
X1667Y2133D02*
X1728Y2133D01*
X1767Y2133D02*
X1828Y2133D01*
X1867Y2133D02*
X1928Y2133D01*
X1967Y2133D02*
X2028Y2133D01*
X1667Y2132D02*
X1728Y2132D01*
X1767Y2132D02*
X1828Y2132D01*
X1867Y2132D02*
X1928Y2132D01*
X1967Y2132D02*
X2028Y2132D01*
X1667Y2131D02*
X1728Y2131D01*
X1767Y2131D02*
X1828Y2131D01*
X1867Y2131D02*
X1928Y2131D01*
X1967Y2131D02*
X2028Y2131D01*
X1667Y2130D02*
X1728Y2130D01*
X1767Y2130D02*
X1828Y2130D01*
X1867Y2130D02*
X1928Y2130D01*
X1967Y2130D02*
X2028Y2130D01*
X1667Y2129D02*
X1728Y2129D01*
X1767Y2129D02*
X1828Y2129D01*
X1867Y2129D02*
X1928Y2129D01*
X1967Y2129D02*
X2028Y2129D01*
X1667Y2128D02*
X1728Y2128D01*
X1767Y2128D02*
X1828Y2128D01*
X1867Y2128D02*
X1928Y2128D01*
X1967Y2128D02*
X2028Y2128D01*
X1667Y2127D02*
X1728Y2127D01*
X1767Y2127D02*
X1828Y2127D01*
X1867Y2127D02*
X1928Y2127D01*
X1967Y2127D02*
X2028Y2127D01*
X1667Y2126D02*
X1728Y2126D01*
X1767Y2126D02*
X1828Y2126D01*
X1867Y2126D02*
X1928Y2126D01*
X1967Y2126D02*
X2028Y2126D01*
X1667Y2125D02*
X1728Y2125D01*
X1767Y2125D02*
X1828Y2125D01*
X1867Y2125D02*
X1928Y2125D01*
X1967Y2125D02*
X2028Y2125D01*
X1667Y2124D02*
X1728Y2124D01*
X1767Y2124D02*
X1828Y2124D01*
X1867Y2124D02*
X1928Y2124D01*
X1967Y2124D02*
X2028Y2124D01*
X1667Y2123D02*
X1728Y2123D01*
X1767Y2123D02*
X1828Y2123D01*
X1867Y2123D02*
X1928Y2123D01*
X1967Y2123D02*
X2028Y2123D01*
X1667Y2122D02*
X1728Y2122D01*
X1767Y2122D02*
X1827Y2122D01*
X1867Y2122D02*
X1927Y2122D01*
X1967Y2122D02*
X2027Y2122D01*
X1667Y2121D02*
X1727Y2121D01*
X1767Y2121D02*
X1827Y2121D01*
X1867Y2121D02*
X1927Y2121D01*
X1967Y2121D02*
X2027Y2121D01*
X1667Y2120D02*
X1727Y2120D01*
X1767Y2120D02*
X1827Y2120D01*
X1867Y2120D02*
X1927Y2120D01*
X1967Y2120D02*
X2027Y2120D01*
X1667Y2119D02*
X1727Y2119D01*
X1767Y2119D02*
X1827Y2119D01*
X1867Y2119D02*
X1927Y2119D01*
X1967Y2119D02*
X2027Y2119D01*
X1667Y2118D02*
X1727Y2118D01*
X1767Y2118D02*
X1827Y2118D01*
X1867Y2118D02*
X1927Y2118D01*
X1967Y2118D02*
X2027Y2118D01*
X1668Y2117D02*
X1727Y2117D01*
X1768Y2117D02*
X1827Y2117D01*
X1868Y2117D02*
X1927Y2117D01*
X1968Y2117D02*
X2027Y2117D01*
X1668Y2116D02*
X1726Y2116D01*
X1768Y2116D02*
X1826Y2116D01*
X1868Y2116D02*
X1926Y2116D01*
X1968Y2116D02*
X2026Y2116D01*
X1668Y2115D02*
X1726Y2115D01*
X1768Y2115D02*
X1826Y2115D01*
X1868Y2115D02*
X1926Y2115D01*
X1968Y2115D02*
X2026Y2115D01*
X1669Y2114D02*
X1726Y2114D01*
X1769Y2114D02*
X1826Y2114D01*
X1869Y2114D02*
X1926Y2114D01*
X1969Y2114D02*
X2026Y2114D01*
X1669Y2113D02*
X1725Y2113D01*
X1769Y2113D02*
X1825Y2113D01*
X1869Y2113D02*
X1925Y2113D01*
X1969Y2113D02*
X2025Y2113D01*
X1670Y2112D02*
X1725Y2112D01*
X1769Y2112D02*
X1825Y2112D01*
X1869Y2112D02*
X1925Y2112D01*
X1969Y2112D02*
X2025Y2112D01*
X1670Y2111D02*
X1724Y2111D01*
X1770Y2111D02*
X1824Y2111D01*
X1870Y2111D02*
X1924Y2111D01*
X1970Y2111D02*
X2024Y2111D01*
X1670Y2110D02*
X1724Y2110D01*
X1770Y2110D02*
X1824Y2110D01*
X1870Y2110D02*
X1924Y2110D01*
X1970Y2110D02*
X2024Y2110D01*
X1671Y2109D02*
X1723Y2109D01*
X1771Y2109D02*
X1823Y2109D01*
X1871Y2109D02*
X1923Y2109D01*
X1971Y2109D02*
X2023Y2109D01*
X1672Y2108D02*
X1723Y2108D01*
X1772Y2108D02*
X1823Y2108D01*
X1872Y2108D02*
X1923Y2108D01*
X1972Y2108D02*
X2023Y2108D01*
X1672Y2107D02*
X1722Y2107D01*
X1772Y2107D02*
X1822Y2107D01*
X1872Y2107D02*
X1922Y2107D01*
X1972Y2107D02*
X2022Y2107D01*
X1673Y2106D02*
X1721Y2106D01*
X1773Y2106D02*
X1821Y2106D01*
X1873Y2106D02*
X1921Y2106D01*
X1973Y2106D02*
X2021Y2106D01*
X1674Y2105D02*
X1721Y2105D01*
X1774Y2105D02*
X1821Y2105D01*
X1874Y2105D02*
X1921Y2105D01*
X1974Y2105D02*
X2020Y2105D01*
X1675Y2104D02*
X1720Y2104D01*
X1775Y2104D02*
X1820Y2104D01*
X1875Y2104D02*
X1920Y2104D01*
X1975Y2104D02*
X2020Y2104D01*
X1676Y2103D02*
X1719Y2103D01*
X1776Y2103D02*
X1819Y2103D01*
X1876Y2103D02*
X1919Y2103D01*
X1976Y2103D02*
X2019Y2103D01*
X1677Y2102D02*
X1718Y2102D01*
X1777Y2102D02*
X1818Y2102D01*
X1877Y2102D02*
X1918Y2102D01*
X1977Y2102D02*
X2018Y2102D01*
X1678Y2101D02*
X1717Y2101D01*
X1778Y2101D02*
X1817Y2101D01*
X1878Y2101D02*
X1917Y2101D01*
X1978Y2101D02*
X2017Y2101D01*
X1679Y2100D02*
X1715Y2100D01*
X1779Y2100D02*
X1815Y2100D01*
X1879Y2100D02*
X1915Y2100D01*
X1979Y2100D02*
X2015Y2100D01*
X1680Y2099D02*
X1714Y2099D01*
X1780Y2099D02*
X1814Y2099D01*
X1880Y2099D02*
X1914Y2099D01*
X1980Y2099D02*
X2014Y2099D01*
X1682Y2098D02*
X1712Y2098D01*
X1782Y2098D02*
X1812Y2098D01*
X1882Y2098D02*
X1912Y2098D01*
X1982Y2098D02*
X2012Y2098D01*
X1684Y2097D02*
X1710Y2097D01*
X1784Y2097D02*
X1810Y2097D01*
X1884Y2097D02*
X1910Y2097D01*
X1984Y2097D02*
X2010Y2097D01*
X1686Y2096D02*
X1708Y2096D01*
X1786Y2096D02*
X1808Y2096D01*
X1886Y2096D02*
X1908Y2096D01*
X1986Y2096D02*
X2008Y2096D01*
X1689Y2095D02*
X1705Y2095D01*
X1789Y2095D02*
X1805Y2095D01*
X1889Y2095D02*
X1905Y2095D01*
X1989Y2095D02*
X2005Y2095D01*
X1694Y2094D02*
X1701Y2094D01*
X1794Y2094D02*
X1801Y2094D01*
X1894Y2094D02*
X1900Y2094D01*
X1994Y2094D02*
X2000Y2094D01*
D02*
G04 End of Mask1*
M02*