G04 MADE WITH FRITZING*
G04 WWW.FRITZING.ORG*
G04 DOUBLE SIDED*
G04 HOLES PLATED*
G04 CONTOUR ON CENTER OF CONTOUR VECTOR*
%ASAXBY*%
%FSLAX23Y23*%
%MOIN*%
%OFA0B0*%
%SFA1.0B1.0*%
%ADD10C,0.039370*%
%ADD11C,0.099000*%
%ADD12C,0.078000*%
%ADD13C,0.062992*%
%ADD14C,0.052000*%
%ADD15R,0.099000X0.099000*%
%ADD16R,0.078000X0.078000*%
%ADD17R,0.062992X0.062992*%
%ADD18R,0.157480X0.236220*%
%ADD19C,0.024000*%
%ADD20R,0.001000X0.001000*%
%LNCOPPER0*%
G90*
G70*
G54D10*
X1299Y449D03*
X1099Y449D03*
G54D11*
X598Y1650D03*
X598Y1850D03*
X998Y1750D03*
G54D12*
X2298Y2050D03*
X2298Y2050D03*
X1598Y2250D03*
X1598Y2350D03*
G54D10*
X2098Y2150D03*
X798Y1350D03*
X798Y1150D03*
X1098Y1350D03*
X1098Y1150D03*
X1398Y1350D03*
X1398Y1150D03*
X1698Y1350D03*
X1698Y1150D03*
X1998Y1350D03*
X1998Y1150D03*
X2298Y1350D03*
X2298Y1150D03*
G54D13*
X953Y2262D03*
X953Y2361D03*
X953Y2262D03*
X953Y2361D03*
G54D14*
X1698Y2150D03*
X1798Y2150D03*
X1798Y2450D03*
X1698Y2450D03*
X1898Y2150D03*
X1998Y2150D03*
X1898Y2450D03*
X1998Y2450D03*
G54D12*
X1698Y1650D03*
X1698Y1550D03*
G54D15*
X598Y1850D03*
G54D16*
X1598Y2250D03*
G54D17*
X953Y2262D03*
X953Y2262D03*
G54D18*
X198Y450D03*
X598Y150D03*
X598Y450D03*
X998Y150D03*
X998Y450D03*
X1398Y150D03*
X2198Y450D03*
X1798Y150D03*
X2598Y450D03*
X2198Y150D03*
X2998Y450D03*
X2598Y150D03*
G54D16*
X1698Y1650D03*
G54D19*
X798Y150D02*
X671Y150D01*
D02*
X798Y1131D02*
X798Y150D01*
D02*
X1200Y150D02*
X1071Y150D01*
D02*
X1200Y949D02*
X1200Y150D01*
D02*
X1098Y949D02*
X1200Y949D01*
D02*
X1098Y1131D02*
X1098Y949D01*
D02*
X1398Y1131D02*
X1398Y262D01*
D02*
X1700Y1131D02*
X1787Y262D01*
D02*
X1999Y150D02*
X2125Y150D01*
D02*
X1998Y1131D02*
X1999Y150D01*
D02*
X2300Y150D02*
X2525Y150D01*
D02*
X2298Y1131D02*
X2300Y150D01*
D02*
X198Y1350D02*
X198Y562D01*
D02*
X779Y1350D02*
X198Y1350D01*
D02*
X1099Y1249D02*
X598Y1249D01*
D02*
X598Y1249D02*
X598Y562D01*
D02*
X1098Y1331D02*
X1099Y1249D01*
D02*
X1299Y1350D02*
X1299Y468D01*
D02*
X1080Y449D02*
X1071Y449D01*
D02*
X1379Y1350D02*
X1299Y1350D01*
D02*
X1699Y1249D02*
X2197Y1249D01*
D02*
X2197Y1249D02*
X2198Y562D01*
D02*
X1698Y1331D02*
X1699Y1249D01*
D02*
X3099Y1448D02*
X3099Y249D01*
D02*
X3099Y249D02*
X2797Y249D01*
D02*
X2797Y249D02*
X2671Y376D01*
D02*
X1997Y1448D02*
X3099Y1448D01*
D02*
X1998Y1369D02*
X1997Y1448D01*
D02*
X2997Y1350D02*
X2998Y562D01*
D02*
X2317Y1350D02*
X2997Y1350D01*
D02*
X1698Y2548D02*
X1698Y2477D01*
D02*
X2098Y2548D02*
X1698Y2548D01*
D02*
X2098Y2169D02*
X2098Y2548D01*
G54D20*
X1692Y2502D02*
X1702Y2502D01*
X1792Y2502D02*
X1802Y2502D01*
X1892Y2502D02*
X1902Y2502D01*
X1992Y2502D02*
X2002Y2502D01*
X1689Y2501D02*
X1706Y2501D01*
X1789Y2501D02*
X1806Y2501D01*
X1889Y2501D02*
X1906Y2501D01*
X1989Y2501D02*
X2006Y2501D01*
X1686Y2500D02*
X1708Y2500D01*
X1786Y2500D02*
X1808Y2500D01*
X1886Y2500D02*
X1908Y2500D01*
X1986Y2500D02*
X2008Y2500D01*
X1685Y2499D02*
X1710Y2499D01*
X1785Y2499D02*
X1810Y2499D01*
X1885Y2499D02*
X1910Y2499D01*
X1985Y2499D02*
X2010Y2499D01*
X1683Y2498D02*
X1711Y2498D01*
X1783Y2498D02*
X1811Y2498D01*
X1883Y2498D02*
X1911Y2498D01*
X1983Y2498D02*
X2011Y2498D01*
X1682Y2497D02*
X1713Y2497D01*
X1782Y2497D02*
X1813Y2497D01*
X1882Y2497D02*
X1913Y2497D01*
X1982Y2497D02*
X2013Y2497D01*
X1680Y2496D02*
X1714Y2496D01*
X1780Y2496D02*
X1814Y2496D01*
X1880Y2496D02*
X1914Y2496D01*
X1980Y2496D02*
X2014Y2496D01*
X1679Y2495D02*
X1715Y2495D01*
X1779Y2495D02*
X1815Y2495D01*
X1879Y2495D02*
X1915Y2495D01*
X1979Y2495D02*
X2015Y2495D01*
X1678Y2494D02*
X1716Y2494D01*
X1778Y2494D02*
X1816Y2494D01*
X1878Y2494D02*
X1916Y2494D01*
X1978Y2494D02*
X2016Y2494D01*
X1678Y2493D02*
X1717Y2493D01*
X1778Y2493D02*
X1817Y2493D01*
X1878Y2493D02*
X1917Y2493D01*
X1978Y2493D02*
X2017Y2493D01*
X1677Y2492D02*
X1718Y2492D01*
X1777Y2492D02*
X1818Y2492D01*
X1877Y2492D02*
X1918Y2492D01*
X1977Y2492D02*
X2017Y2492D01*
X1676Y2491D02*
X1718Y2491D01*
X1776Y2491D02*
X1818Y2491D01*
X1876Y2491D02*
X1918Y2491D01*
X1976Y2491D02*
X2018Y2491D01*
X1675Y2490D02*
X1719Y2490D01*
X1775Y2490D02*
X1819Y2490D01*
X1875Y2490D02*
X1919Y2490D01*
X1975Y2490D02*
X2019Y2490D01*
X1675Y2489D02*
X1719Y2489D01*
X1775Y2489D02*
X1819Y2489D01*
X1875Y2489D02*
X1919Y2489D01*
X1975Y2489D02*
X2019Y2489D01*
X1674Y2488D02*
X1720Y2488D01*
X1774Y2488D02*
X1820Y2488D01*
X1874Y2488D02*
X1920Y2488D01*
X1974Y2488D02*
X2020Y2488D01*
X1674Y2487D02*
X1720Y2487D01*
X1774Y2487D02*
X1820Y2487D01*
X1874Y2487D02*
X1920Y2487D01*
X1974Y2487D02*
X2020Y2487D01*
X1673Y2486D02*
X1721Y2486D01*
X1773Y2486D02*
X1821Y2486D01*
X1873Y2486D02*
X1921Y2486D01*
X1973Y2486D02*
X2021Y2486D01*
X1673Y2485D02*
X1721Y2485D01*
X1773Y2485D02*
X1821Y2485D01*
X1873Y2485D02*
X1921Y2485D01*
X1973Y2485D02*
X2021Y2485D01*
X1673Y2484D02*
X1722Y2484D01*
X1773Y2484D02*
X1822Y2484D01*
X1873Y2484D02*
X1922Y2484D01*
X1973Y2484D02*
X2022Y2484D01*
X1672Y2483D02*
X1722Y2483D01*
X1772Y2483D02*
X1822Y2483D01*
X1872Y2483D02*
X1922Y2483D01*
X1972Y2483D02*
X2022Y2483D01*
X1672Y2482D02*
X1722Y2482D01*
X1772Y2482D02*
X1822Y2482D01*
X1872Y2482D02*
X1922Y2482D01*
X1972Y2482D02*
X2022Y2482D01*
X1672Y2481D02*
X1722Y2481D01*
X1772Y2481D02*
X1822Y2481D01*
X1872Y2481D02*
X1922Y2481D01*
X1972Y2481D02*
X2022Y2481D01*
X1672Y2480D02*
X1722Y2480D01*
X1772Y2480D02*
X1822Y2480D01*
X1872Y2480D02*
X1922Y2480D01*
X1972Y2480D02*
X2022Y2480D01*
X1672Y2479D02*
X1723Y2479D01*
X1772Y2479D02*
X1823Y2479D01*
X1872Y2479D02*
X1923Y2479D01*
X1972Y2479D02*
X2022Y2479D01*
X1672Y2478D02*
X1723Y2478D01*
X1772Y2478D02*
X1823Y2478D01*
X1872Y2478D02*
X1923Y2478D01*
X1972Y2478D02*
X2023Y2478D01*
X1672Y2477D02*
X1723Y2477D01*
X1772Y2477D02*
X1823Y2477D01*
X1872Y2477D02*
X1923Y2477D01*
X1972Y2477D02*
X2023Y2477D01*
X1672Y2476D02*
X1723Y2476D01*
X1772Y2476D02*
X1823Y2476D01*
X1872Y2476D02*
X1923Y2476D01*
X1972Y2476D02*
X2023Y2476D01*
X1672Y2475D02*
X1723Y2475D01*
X1772Y2475D02*
X1823Y2475D01*
X1872Y2475D02*
X1923Y2475D01*
X1972Y2475D02*
X2023Y2475D01*
X1672Y2474D02*
X1723Y2474D01*
X1772Y2474D02*
X1823Y2474D01*
X1872Y2474D02*
X1923Y2474D01*
X1972Y2474D02*
X2023Y2474D01*
X1672Y2473D02*
X1723Y2473D01*
X1772Y2473D02*
X1823Y2473D01*
X1872Y2473D02*
X1923Y2473D01*
X1972Y2473D02*
X2023Y2473D01*
X1672Y2472D02*
X1723Y2472D01*
X1772Y2472D02*
X1823Y2472D01*
X1872Y2472D02*
X1923Y2472D01*
X1972Y2472D02*
X2023Y2472D01*
X1672Y2471D02*
X1723Y2471D01*
X1772Y2471D02*
X1823Y2471D01*
X1872Y2471D02*
X1923Y2471D01*
X1972Y2471D02*
X2023Y2471D01*
X1672Y2470D02*
X1723Y2470D01*
X1772Y2470D02*
X1823Y2470D01*
X1872Y2470D02*
X1923Y2470D01*
X1972Y2470D02*
X2023Y2470D01*
X1672Y2469D02*
X1723Y2469D01*
X1772Y2469D02*
X1823Y2469D01*
X1872Y2469D02*
X1923Y2469D01*
X1972Y2469D02*
X2023Y2469D01*
X1672Y2468D02*
X1723Y2468D01*
X1772Y2468D02*
X1823Y2468D01*
X1872Y2468D02*
X1923Y2468D01*
X1972Y2468D02*
X2023Y2468D01*
X1672Y2467D02*
X1723Y2467D01*
X1772Y2467D02*
X1823Y2467D01*
X1872Y2467D02*
X1923Y2467D01*
X1972Y2467D02*
X2023Y2467D01*
X1672Y2466D02*
X1692Y2466D01*
X1702Y2466D02*
X1723Y2466D01*
X1772Y2466D02*
X1792Y2466D01*
X1802Y2466D02*
X1823Y2466D01*
X1872Y2466D02*
X1892Y2466D01*
X1902Y2466D02*
X1923Y2466D01*
X1972Y2466D02*
X1992Y2466D01*
X2002Y2466D02*
X2023Y2466D01*
X1672Y2465D02*
X1690Y2465D01*
X1705Y2465D02*
X1723Y2465D01*
X1772Y2465D02*
X1790Y2465D01*
X1805Y2465D02*
X1823Y2465D01*
X1872Y2465D02*
X1890Y2465D01*
X1905Y2465D02*
X1923Y2465D01*
X1972Y2465D02*
X1990Y2465D01*
X2005Y2465D02*
X2023Y2465D01*
X1672Y2464D02*
X1688Y2464D01*
X1706Y2464D02*
X1723Y2464D01*
X1772Y2464D02*
X1788Y2464D01*
X1806Y2464D02*
X1823Y2464D01*
X1872Y2464D02*
X1888Y2464D01*
X1906Y2464D02*
X1923Y2464D01*
X1972Y2464D02*
X1988Y2464D01*
X2006Y2464D02*
X2023Y2464D01*
X1672Y2463D02*
X1687Y2463D01*
X1708Y2463D02*
X1723Y2463D01*
X1772Y2463D02*
X1787Y2463D01*
X1808Y2463D02*
X1823Y2463D01*
X1872Y2463D02*
X1887Y2463D01*
X1908Y2463D02*
X1923Y2463D01*
X1972Y2463D02*
X1987Y2463D01*
X2008Y2463D02*
X2023Y2463D01*
X1672Y2462D02*
X1685Y2462D01*
X1709Y2462D02*
X1723Y2462D01*
X1772Y2462D02*
X1785Y2462D01*
X1809Y2462D02*
X1823Y2462D01*
X1872Y2462D02*
X1885Y2462D01*
X1909Y2462D02*
X1923Y2462D01*
X1972Y2462D02*
X1985Y2462D01*
X2009Y2462D02*
X2023Y2462D01*
X1672Y2461D02*
X1685Y2461D01*
X1710Y2461D02*
X1723Y2461D01*
X1772Y2461D02*
X1785Y2461D01*
X1810Y2461D02*
X1823Y2461D01*
X1872Y2461D02*
X1885Y2461D01*
X1910Y2461D02*
X1923Y2461D01*
X1972Y2461D02*
X1985Y2461D01*
X2010Y2461D02*
X2023Y2461D01*
X1672Y2460D02*
X1684Y2460D01*
X1711Y2460D02*
X1723Y2460D01*
X1772Y2460D02*
X1784Y2460D01*
X1811Y2460D02*
X1823Y2460D01*
X1872Y2460D02*
X1884Y2460D01*
X1911Y2460D02*
X1923Y2460D01*
X1972Y2460D02*
X1984Y2460D01*
X2011Y2460D02*
X2023Y2460D01*
X1672Y2459D02*
X1683Y2459D01*
X1711Y2459D02*
X1723Y2459D01*
X1772Y2459D02*
X1783Y2459D01*
X1811Y2459D02*
X1823Y2459D01*
X1872Y2459D02*
X1883Y2459D01*
X1911Y2459D02*
X1923Y2459D01*
X1972Y2459D02*
X1983Y2459D01*
X2011Y2459D02*
X2023Y2459D01*
X1672Y2458D02*
X1683Y2458D01*
X1712Y2458D02*
X1723Y2458D01*
X1772Y2458D02*
X1783Y2458D01*
X1812Y2458D02*
X1823Y2458D01*
X1872Y2458D02*
X1883Y2458D01*
X1912Y2458D02*
X1923Y2458D01*
X1972Y2458D02*
X1982Y2458D01*
X2012Y2458D02*
X2023Y2458D01*
X1672Y2457D02*
X1682Y2457D01*
X1712Y2457D02*
X1723Y2457D01*
X1772Y2457D02*
X1782Y2457D01*
X1812Y2457D02*
X1823Y2457D01*
X1872Y2457D02*
X1882Y2457D01*
X1912Y2457D02*
X1923Y2457D01*
X1972Y2457D02*
X1982Y2457D01*
X2012Y2457D02*
X2023Y2457D01*
X1672Y2456D02*
X1682Y2456D01*
X1713Y2456D02*
X1723Y2456D01*
X1772Y2456D02*
X1782Y2456D01*
X1813Y2456D02*
X1823Y2456D01*
X1872Y2456D02*
X1882Y2456D01*
X1913Y2456D02*
X1923Y2456D01*
X1972Y2456D02*
X1982Y2456D01*
X2013Y2456D02*
X2023Y2456D01*
X1672Y2455D02*
X1681Y2455D01*
X1713Y2455D02*
X1723Y2455D01*
X1772Y2455D02*
X1781Y2455D01*
X1813Y2455D02*
X1823Y2455D01*
X1872Y2455D02*
X1881Y2455D01*
X1913Y2455D02*
X1923Y2455D01*
X1972Y2455D02*
X1981Y2455D01*
X2013Y2455D02*
X2023Y2455D01*
X1672Y2454D02*
X1681Y2454D01*
X1713Y2454D02*
X1723Y2454D01*
X1772Y2454D02*
X1781Y2454D01*
X1813Y2454D02*
X1823Y2454D01*
X1872Y2454D02*
X1881Y2454D01*
X1913Y2454D02*
X1923Y2454D01*
X1972Y2454D02*
X1981Y2454D01*
X2013Y2454D02*
X2023Y2454D01*
X1672Y2453D02*
X1681Y2453D01*
X1713Y2453D02*
X1723Y2453D01*
X1772Y2453D02*
X1781Y2453D01*
X1813Y2453D02*
X1823Y2453D01*
X1872Y2453D02*
X1881Y2453D01*
X1913Y2453D02*
X1923Y2453D01*
X1972Y2453D02*
X1981Y2453D01*
X2013Y2453D02*
X2023Y2453D01*
X1672Y2452D02*
X1681Y2452D01*
X1714Y2452D02*
X1723Y2452D01*
X1772Y2452D02*
X1781Y2452D01*
X1814Y2452D02*
X1823Y2452D01*
X1872Y2452D02*
X1881Y2452D01*
X1913Y2452D02*
X1923Y2452D01*
X1972Y2452D02*
X1981Y2452D01*
X2013Y2452D02*
X2023Y2452D01*
X1672Y2451D02*
X1681Y2451D01*
X1714Y2451D02*
X1723Y2451D01*
X1772Y2451D02*
X1781Y2451D01*
X1814Y2451D02*
X1823Y2451D01*
X1872Y2451D02*
X1881Y2451D01*
X1914Y2451D02*
X1923Y2451D01*
X1972Y2451D02*
X1981Y2451D01*
X2014Y2451D02*
X2023Y2451D01*
X1672Y2450D02*
X1681Y2450D01*
X1714Y2450D02*
X1723Y2450D01*
X1772Y2450D02*
X1781Y2450D01*
X1814Y2450D02*
X1823Y2450D01*
X1872Y2450D02*
X1881Y2450D01*
X1914Y2450D02*
X1923Y2450D01*
X1972Y2450D02*
X1981Y2450D01*
X2014Y2450D02*
X2023Y2450D01*
X1672Y2449D02*
X1681Y2449D01*
X1714Y2449D02*
X1723Y2449D01*
X1772Y2449D02*
X1781Y2449D01*
X1813Y2449D02*
X1823Y2449D01*
X1872Y2449D02*
X1881Y2449D01*
X1913Y2449D02*
X1923Y2449D01*
X1972Y2449D02*
X1981Y2449D01*
X2013Y2449D02*
X2023Y2449D01*
X1672Y2448D02*
X1681Y2448D01*
X1713Y2448D02*
X1723Y2448D01*
X1772Y2448D02*
X1781Y2448D01*
X1813Y2448D02*
X1823Y2448D01*
X1872Y2448D02*
X1881Y2448D01*
X1913Y2448D02*
X1923Y2448D01*
X1972Y2448D02*
X1981Y2448D01*
X2013Y2448D02*
X2023Y2448D01*
X1672Y2447D02*
X1681Y2447D01*
X1713Y2447D02*
X1723Y2447D01*
X1772Y2447D02*
X1781Y2447D01*
X1813Y2447D02*
X1823Y2447D01*
X1872Y2447D02*
X1881Y2447D01*
X1913Y2447D02*
X1923Y2447D01*
X1972Y2447D02*
X1981Y2447D01*
X2013Y2447D02*
X2023Y2447D01*
X1672Y2446D02*
X1681Y2446D01*
X1713Y2446D02*
X1723Y2446D01*
X1772Y2446D02*
X1781Y2446D01*
X1813Y2446D02*
X1823Y2446D01*
X1872Y2446D02*
X1881Y2446D01*
X1913Y2446D02*
X1923Y2446D01*
X1972Y2446D02*
X1981Y2446D01*
X2013Y2446D02*
X2023Y2446D01*
X1672Y2445D02*
X1682Y2445D01*
X1713Y2445D02*
X1723Y2445D01*
X1772Y2445D02*
X1782Y2445D01*
X1813Y2445D02*
X1823Y2445D01*
X1872Y2445D02*
X1882Y2445D01*
X1913Y2445D02*
X1923Y2445D01*
X1972Y2445D02*
X1982Y2445D01*
X2013Y2445D02*
X2023Y2445D01*
X1672Y2444D02*
X1682Y2444D01*
X1712Y2444D02*
X1723Y2444D01*
X1772Y2444D02*
X1782Y2444D01*
X1812Y2444D02*
X1823Y2444D01*
X1872Y2444D02*
X1882Y2444D01*
X1912Y2444D02*
X1923Y2444D01*
X1972Y2444D02*
X1982Y2444D01*
X2012Y2444D02*
X2023Y2444D01*
X1672Y2443D02*
X1683Y2443D01*
X1712Y2443D02*
X1723Y2443D01*
X1772Y2443D02*
X1783Y2443D01*
X1812Y2443D02*
X1823Y2443D01*
X1872Y2443D02*
X1883Y2443D01*
X1912Y2443D02*
X1923Y2443D01*
X1972Y2443D02*
X1983Y2443D01*
X2012Y2443D02*
X2023Y2443D01*
X1672Y2442D02*
X1683Y2442D01*
X1711Y2442D02*
X1723Y2442D01*
X1772Y2442D02*
X1783Y2442D01*
X1811Y2442D02*
X1823Y2442D01*
X1872Y2442D02*
X1883Y2442D01*
X1911Y2442D02*
X1923Y2442D01*
X1972Y2442D02*
X1983Y2442D01*
X2011Y2442D02*
X2023Y2442D01*
X1672Y2441D02*
X1684Y2441D01*
X1710Y2441D02*
X1723Y2441D01*
X1772Y2441D02*
X1784Y2441D01*
X1810Y2441D02*
X1823Y2441D01*
X1872Y2441D02*
X1884Y2441D01*
X1910Y2441D02*
X1923Y2441D01*
X1972Y2441D02*
X1984Y2441D01*
X2010Y2441D02*
X2023Y2441D01*
X1672Y2440D02*
X1685Y2440D01*
X1710Y2440D02*
X1723Y2440D01*
X1772Y2440D02*
X1785Y2440D01*
X1810Y2440D02*
X1823Y2440D01*
X1872Y2440D02*
X1885Y2440D01*
X1909Y2440D02*
X1923Y2440D01*
X1972Y2440D02*
X1985Y2440D01*
X2009Y2440D02*
X2023Y2440D01*
X1672Y2439D02*
X1686Y2439D01*
X1709Y2439D02*
X1723Y2439D01*
X1772Y2439D02*
X1786Y2439D01*
X1809Y2439D02*
X1823Y2439D01*
X1872Y2439D02*
X1886Y2439D01*
X1909Y2439D02*
X1923Y2439D01*
X1972Y2439D02*
X1986Y2439D01*
X2009Y2439D02*
X2023Y2439D01*
X1672Y2438D02*
X1687Y2438D01*
X1707Y2438D02*
X1723Y2438D01*
X1772Y2438D02*
X1787Y2438D01*
X1807Y2438D02*
X1823Y2438D01*
X1872Y2438D02*
X1887Y2438D01*
X1907Y2438D02*
X1923Y2438D01*
X1972Y2438D02*
X1987Y2438D01*
X2007Y2438D02*
X2023Y2438D01*
X1672Y2437D02*
X1688Y2437D01*
X1706Y2437D02*
X1723Y2437D01*
X1772Y2437D02*
X1788Y2437D01*
X1806Y2437D02*
X1823Y2437D01*
X1872Y2437D02*
X1888Y2437D01*
X1906Y2437D02*
X1923Y2437D01*
X1972Y2437D02*
X1988Y2437D01*
X2006Y2437D02*
X2023Y2437D01*
X1672Y2436D02*
X1690Y2436D01*
X1704Y2436D02*
X1723Y2436D01*
X1772Y2436D02*
X1790Y2436D01*
X1804Y2436D02*
X1823Y2436D01*
X1872Y2436D02*
X1890Y2436D01*
X1904Y2436D02*
X1923Y2436D01*
X1972Y2436D02*
X1990Y2436D01*
X2004Y2436D02*
X2023Y2436D01*
X1672Y2435D02*
X1693Y2435D01*
X1701Y2435D02*
X1723Y2435D01*
X1772Y2435D02*
X1793Y2435D01*
X1801Y2435D02*
X1823Y2435D01*
X1872Y2435D02*
X1893Y2435D01*
X1901Y2435D02*
X1923Y2435D01*
X1972Y2435D02*
X1993Y2435D01*
X2001Y2435D02*
X2023Y2435D01*
X1672Y2434D02*
X1723Y2434D01*
X1772Y2434D02*
X1823Y2434D01*
X1872Y2434D02*
X1923Y2434D01*
X1972Y2434D02*
X2023Y2434D01*
X1672Y2433D02*
X1723Y2433D01*
X1772Y2433D02*
X1823Y2433D01*
X1872Y2433D02*
X1923Y2433D01*
X1972Y2433D02*
X2023Y2433D01*
X1672Y2432D02*
X1723Y2432D01*
X1772Y2432D02*
X1823Y2432D01*
X1872Y2432D02*
X1923Y2432D01*
X1972Y2432D02*
X2023Y2432D01*
X1672Y2431D02*
X1723Y2431D01*
X1772Y2431D02*
X1823Y2431D01*
X1872Y2431D02*
X1923Y2431D01*
X1972Y2431D02*
X2023Y2431D01*
X1672Y2430D02*
X1723Y2430D01*
X1772Y2430D02*
X1823Y2430D01*
X1872Y2430D02*
X1923Y2430D01*
X1972Y2430D02*
X2023Y2430D01*
X1672Y2429D02*
X1723Y2429D01*
X1772Y2429D02*
X1823Y2429D01*
X1872Y2429D02*
X1923Y2429D01*
X1972Y2429D02*
X2023Y2429D01*
X1672Y2428D02*
X1723Y2428D01*
X1772Y2428D02*
X1823Y2428D01*
X1872Y2428D02*
X1923Y2428D01*
X1972Y2428D02*
X2023Y2428D01*
X1672Y2427D02*
X1723Y2427D01*
X1772Y2427D02*
X1823Y2427D01*
X1872Y2427D02*
X1923Y2427D01*
X1972Y2427D02*
X2023Y2427D01*
X1672Y2426D02*
X1723Y2426D01*
X1772Y2426D02*
X1823Y2426D01*
X1872Y2426D02*
X1923Y2426D01*
X1972Y2426D02*
X2023Y2426D01*
X1672Y2425D02*
X1723Y2425D01*
X1772Y2425D02*
X1823Y2425D01*
X1872Y2425D02*
X1923Y2425D01*
X1972Y2425D02*
X2023Y2425D01*
X1672Y2424D02*
X1723Y2424D01*
X1772Y2424D02*
X1823Y2424D01*
X1872Y2424D02*
X1923Y2424D01*
X1972Y2424D02*
X2023Y2424D01*
X1672Y2423D02*
X1723Y2423D01*
X1772Y2423D02*
X1823Y2423D01*
X1872Y2423D02*
X1923Y2423D01*
X1972Y2423D02*
X2023Y2423D01*
X1672Y2422D02*
X1723Y2422D01*
X1772Y2422D02*
X1823Y2422D01*
X1872Y2422D02*
X1922Y2422D01*
X1972Y2422D02*
X2022Y2422D01*
X1672Y2421D02*
X1722Y2421D01*
X1772Y2421D02*
X1822Y2421D01*
X1872Y2421D02*
X1922Y2421D01*
X1972Y2421D02*
X2022Y2421D01*
X1672Y2420D02*
X1722Y2420D01*
X1772Y2420D02*
X1822Y2420D01*
X1872Y2420D02*
X1922Y2420D01*
X1972Y2420D02*
X2022Y2420D01*
X1672Y2419D02*
X1722Y2419D01*
X1772Y2419D02*
X1822Y2419D01*
X1872Y2419D02*
X1922Y2419D01*
X1972Y2419D02*
X2022Y2419D01*
X1673Y2418D02*
X1722Y2418D01*
X1773Y2418D02*
X1822Y2418D01*
X1873Y2418D02*
X1922Y2418D01*
X1972Y2418D02*
X2022Y2418D01*
X1673Y2417D02*
X1722Y2417D01*
X1773Y2417D02*
X1822Y2417D01*
X1873Y2417D02*
X1921Y2417D01*
X1973Y2417D02*
X2021Y2417D01*
X1673Y2416D02*
X1721Y2416D01*
X1773Y2416D02*
X1821Y2416D01*
X1873Y2416D02*
X1921Y2416D01*
X1973Y2416D02*
X2021Y2416D01*
X1674Y2415D02*
X1721Y2415D01*
X1774Y2415D02*
X1821Y2415D01*
X1874Y2415D02*
X1921Y2415D01*
X1973Y2415D02*
X2021Y2415D01*
X1674Y2414D02*
X1720Y2414D01*
X1774Y2414D02*
X1820Y2414D01*
X1874Y2414D02*
X1920Y2414D01*
X1974Y2414D02*
X2020Y2414D01*
X1675Y2413D02*
X1720Y2413D01*
X1775Y2413D02*
X1820Y2413D01*
X1875Y2413D02*
X1920Y2413D01*
X1974Y2413D02*
X2020Y2413D01*
X1675Y2412D02*
X1719Y2412D01*
X1775Y2412D02*
X1819Y2412D01*
X1875Y2412D02*
X1919Y2412D01*
X1975Y2412D02*
X2019Y2412D01*
X1676Y2411D02*
X1719Y2411D01*
X1776Y2411D02*
X1819Y2411D01*
X1876Y2411D02*
X1919Y2411D01*
X1976Y2411D02*
X2019Y2411D01*
X1676Y2410D02*
X1718Y2410D01*
X1776Y2410D02*
X1818Y2410D01*
X1876Y2410D02*
X1918Y2410D01*
X1976Y2410D02*
X2018Y2410D01*
X1677Y2409D02*
X1717Y2409D01*
X1777Y2409D02*
X1817Y2409D01*
X1877Y2409D02*
X1917Y2409D01*
X1977Y2409D02*
X2017Y2409D01*
X1678Y2408D02*
X1716Y2408D01*
X1778Y2408D02*
X1816Y2408D01*
X1878Y2408D02*
X1916Y2408D01*
X1978Y2408D02*
X2016Y2408D01*
X1679Y2407D02*
X1716Y2407D01*
X1779Y2407D02*
X1816Y2407D01*
X1879Y2407D02*
X1916Y2407D01*
X1979Y2407D02*
X2016Y2407D01*
X1680Y2406D02*
X1715Y2406D01*
X1780Y2406D02*
X1815Y2406D01*
X1880Y2406D02*
X1915Y2406D01*
X1980Y2406D02*
X2015Y2406D01*
X1681Y2405D02*
X1714Y2405D01*
X1781Y2405D02*
X1814Y2405D01*
X1881Y2405D02*
X1913Y2405D01*
X1981Y2405D02*
X2013Y2405D01*
X1682Y2404D02*
X1712Y2404D01*
X1782Y2404D02*
X1812Y2404D01*
X1882Y2404D02*
X1912Y2404D01*
X1982Y2404D02*
X2012Y2404D01*
X1683Y2403D02*
X1711Y2403D01*
X1783Y2403D02*
X1811Y2403D01*
X1883Y2403D02*
X1911Y2403D01*
X1983Y2403D02*
X2011Y2403D01*
X1685Y2402D02*
X1709Y2402D01*
X1785Y2402D02*
X1809Y2402D01*
X1885Y2402D02*
X1909Y2402D01*
X1985Y2402D02*
X2009Y2402D01*
X1687Y2401D02*
X1707Y2401D01*
X1787Y2401D02*
X1807Y2401D01*
X1887Y2401D02*
X1907Y2401D01*
X1987Y2401D02*
X2007Y2401D01*
X1689Y2400D02*
X1705Y2400D01*
X1789Y2400D02*
X1805Y2400D01*
X1889Y2400D02*
X1905Y2400D01*
X1989Y2400D02*
X2005Y2400D01*
X1694Y2399D02*
X1701Y2399D01*
X1794Y2399D02*
X1801Y2399D01*
X1894Y2399D02*
X1901Y2399D01*
X1993Y2399D02*
X2001Y2399D01*
X1692Y2202D02*
X1703Y2202D01*
X1792Y2202D02*
X1803Y2202D01*
X1892Y2202D02*
X1902Y2202D01*
X1992Y2202D02*
X2002Y2202D01*
X1689Y2201D02*
X1706Y2201D01*
X1789Y2201D02*
X1806Y2201D01*
X1888Y2201D02*
X1906Y2201D01*
X1988Y2201D02*
X2006Y2201D01*
X1686Y2200D02*
X1708Y2200D01*
X1786Y2200D02*
X1808Y2200D01*
X1886Y2200D02*
X1908Y2200D01*
X1986Y2200D02*
X2008Y2200D01*
X1685Y2199D02*
X1710Y2199D01*
X1784Y2199D02*
X1810Y2199D01*
X1884Y2199D02*
X1910Y2199D01*
X1984Y2199D02*
X2010Y2199D01*
X1683Y2198D02*
X1712Y2198D01*
X1783Y2198D02*
X1811Y2198D01*
X1883Y2198D02*
X1911Y2198D01*
X1983Y2198D02*
X2011Y2198D01*
X1682Y2197D02*
X1713Y2197D01*
X1782Y2197D02*
X1813Y2197D01*
X1882Y2197D02*
X1913Y2197D01*
X1982Y2197D02*
X2013Y2197D01*
X1680Y2196D02*
X1714Y2196D01*
X1780Y2196D02*
X1814Y2196D01*
X1880Y2196D02*
X1914Y2196D01*
X1980Y2196D02*
X2014Y2196D01*
X1679Y2195D02*
X1715Y2195D01*
X1779Y2195D02*
X1815Y2195D01*
X1879Y2195D02*
X1915Y2195D01*
X1979Y2195D02*
X2015Y2195D01*
X1678Y2194D02*
X1716Y2194D01*
X1778Y2194D02*
X1816Y2194D01*
X1878Y2194D02*
X1916Y2194D01*
X1978Y2194D02*
X2016Y2194D01*
X1678Y2193D02*
X1717Y2193D01*
X1778Y2193D02*
X1817Y2193D01*
X1878Y2193D02*
X1917Y2193D01*
X1978Y2193D02*
X2017Y2193D01*
X1677Y2192D02*
X1718Y2192D01*
X1777Y2192D02*
X1818Y2192D01*
X1877Y2192D02*
X1918Y2192D01*
X1977Y2192D02*
X2018Y2192D01*
X1676Y2191D02*
X1718Y2191D01*
X1776Y2191D02*
X1818Y2191D01*
X1876Y2191D02*
X1918Y2191D01*
X1976Y2191D02*
X2018Y2191D01*
X1675Y2190D02*
X1719Y2190D01*
X1775Y2190D02*
X1819Y2190D01*
X1875Y2190D02*
X1919Y2190D01*
X1975Y2190D02*
X2019Y2190D01*
X1675Y2189D02*
X1719Y2189D01*
X1775Y2189D02*
X1819Y2189D01*
X1875Y2189D02*
X1919Y2189D01*
X1975Y2189D02*
X2019Y2189D01*
X1674Y2188D02*
X1720Y2188D01*
X1774Y2188D02*
X1820Y2188D01*
X1874Y2188D02*
X1920Y2188D01*
X1974Y2188D02*
X2020Y2188D01*
X1674Y2187D02*
X1721Y2187D01*
X1774Y2187D02*
X1821Y2187D01*
X1874Y2187D02*
X1920Y2187D01*
X1974Y2187D02*
X2020Y2187D01*
X1673Y2186D02*
X1721Y2186D01*
X1773Y2186D02*
X1821Y2186D01*
X1873Y2186D02*
X1921Y2186D01*
X1973Y2186D02*
X2021Y2186D01*
X1673Y2185D02*
X1721Y2185D01*
X1773Y2185D02*
X1821Y2185D01*
X1873Y2185D02*
X1921Y2185D01*
X1973Y2185D02*
X2021Y2185D01*
X1673Y2184D02*
X1722Y2184D01*
X1773Y2184D02*
X1822Y2184D01*
X1873Y2184D02*
X1922Y2184D01*
X1973Y2184D02*
X2022Y2184D01*
X1672Y2183D02*
X1722Y2183D01*
X1772Y2183D02*
X1822Y2183D01*
X1872Y2183D02*
X1922Y2183D01*
X1972Y2183D02*
X2022Y2183D01*
X1672Y2182D02*
X1722Y2182D01*
X1772Y2182D02*
X1822Y2182D01*
X1872Y2182D02*
X1922Y2182D01*
X1972Y2182D02*
X2022Y2182D01*
X1672Y2181D02*
X1722Y2181D01*
X1772Y2181D02*
X1822Y2181D01*
X1872Y2181D02*
X1922Y2181D01*
X1972Y2181D02*
X2022Y2181D01*
X1672Y2180D02*
X1722Y2180D01*
X1772Y2180D02*
X1822Y2180D01*
X1872Y2180D02*
X1922Y2180D01*
X1972Y2180D02*
X2022Y2180D01*
X1672Y2179D02*
X1723Y2179D01*
X1772Y2179D02*
X1823Y2179D01*
X1872Y2179D02*
X1923Y2179D01*
X1972Y2179D02*
X2022Y2179D01*
X1672Y2178D02*
X1723Y2178D01*
X1772Y2178D02*
X1823Y2178D01*
X1872Y2178D02*
X1923Y2178D01*
X1972Y2178D02*
X2023Y2178D01*
X1672Y2177D02*
X1723Y2177D01*
X1772Y2177D02*
X1823Y2177D01*
X1872Y2177D02*
X1923Y2177D01*
X1972Y2177D02*
X2023Y2177D01*
X1672Y2176D02*
X1723Y2176D01*
X1772Y2176D02*
X1823Y2176D01*
X1872Y2176D02*
X1923Y2176D01*
X1972Y2176D02*
X2023Y2176D01*
X1672Y2175D02*
X1723Y2175D01*
X1772Y2175D02*
X1823Y2175D01*
X1872Y2175D02*
X1923Y2175D01*
X1972Y2175D02*
X2023Y2175D01*
X1672Y2174D02*
X1723Y2174D01*
X1772Y2174D02*
X1823Y2174D01*
X1872Y2174D02*
X1923Y2174D01*
X1972Y2174D02*
X2023Y2174D01*
X1672Y2173D02*
X1723Y2173D01*
X1772Y2173D02*
X1823Y2173D01*
X1872Y2173D02*
X1923Y2173D01*
X1972Y2173D02*
X2023Y2173D01*
X1672Y2172D02*
X1723Y2172D01*
X1772Y2172D02*
X1823Y2172D01*
X1872Y2172D02*
X1923Y2172D01*
X1972Y2172D02*
X2023Y2172D01*
X1672Y2171D02*
X1723Y2171D01*
X1772Y2171D02*
X1823Y2171D01*
X1872Y2171D02*
X1923Y2171D01*
X1972Y2171D02*
X2023Y2171D01*
X1672Y2170D02*
X1723Y2170D01*
X1772Y2170D02*
X1823Y2170D01*
X1872Y2170D02*
X1923Y2170D01*
X1972Y2170D02*
X2023Y2170D01*
X1672Y2169D02*
X1723Y2169D01*
X1772Y2169D02*
X1823Y2169D01*
X1872Y2169D02*
X1923Y2169D01*
X1972Y2169D02*
X2023Y2169D01*
X1672Y2168D02*
X1723Y2168D01*
X1772Y2168D02*
X1823Y2168D01*
X1872Y2168D02*
X1923Y2168D01*
X1972Y2168D02*
X2023Y2168D01*
X1672Y2167D02*
X1723Y2167D01*
X1772Y2167D02*
X1823Y2167D01*
X1872Y2167D02*
X1923Y2167D01*
X1972Y2167D02*
X2023Y2167D01*
X1672Y2166D02*
X1692Y2166D01*
X1702Y2166D02*
X1723Y2166D01*
X1772Y2166D02*
X1792Y2166D01*
X1802Y2166D02*
X1823Y2166D01*
X1872Y2166D02*
X1892Y2166D01*
X1902Y2166D02*
X1923Y2166D01*
X1972Y2166D02*
X1992Y2166D01*
X2002Y2166D02*
X2023Y2166D01*
X1672Y2165D02*
X1690Y2165D01*
X1705Y2165D02*
X1723Y2165D01*
X1772Y2165D02*
X1790Y2165D01*
X1805Y2165D02*
X1823Y2165D01*
X1872Y2165D02*
X1890Y2165D01*
X1905Y2165D02*
X1923Y2165D01*
X1972Y2165D02*
X1990Y2165D01*
X2005Y2165D02*
X2023Y2165D01*
X1672Y2164D02*
X1688Y2164D01*
X1706Y2164D02*
X1723Y2164D01*
X1772Y2164D02*
X1788Y2164D01*
X1806Y2164D02*
X1823Y2164D01*
X1872Y2164D02*
X1888Y2164D01*
X1906Y2164D02*
X1923Y2164D01*
X1972Y2164D02*
X1988Y2164D01*
X2006Y2164D02*
X2023Y2164D01*
X1672Y2163D02*
X1687Y2163D01*
X1708Y2163D02*
X1723Y2163D01*
X1772Y2163D02*
X1787Y2163D01*
X1808Y2163D02*
X1823Y2163D01*
X1872Y2163D02*
X1887Y2163D01*
X1908Y2163D02*
X1923Y2163D01*
X1972Y2163D02*
X1987Y2163D01*
X2008Y2163D02*
X2023Y2163D01*
X1672Y2162D02*
X1685Y2162D01*
X1709Y2162D02*
X1723Y2162D01*
X1772Y2162D02*
X1785Y2162D01*
X1809Y2162D02*
X1823Y2162D01*
X1872Y2162D02*
X1885Y2162D01*
X1909Y2162D02*
X1923Y2162D01*
X1972Y2162D02*
X1985Y2162D01*
X2009Y2162D02*
X2023Y2162D01*
X1672Y2161D02*
X1685Y2161D01*
X1710Y2161D02*
X1723Y2161D01*
X1772Y2161D02*
X1785Y2161D01*
X1810Y2161D02*
X1823Y2161D01*
X1872Y2161D02*
X1885Y2161D01*
X1910Y2161D02*
X1923Y2161D01*
X1972Y2161D02*
X1984Y2161D01*
X2010Y2161D02*
X2023Y2161D01*
X1672Y2160D02*
X1684Y2160D01*
X1711Y2160D02*
X1723Y2160D01*
X1772Y2160D02*
X1784Y2160D01*
X1811Y2160D02*
X1823Y2160D01*
X1872Y2160D02*
X1884Y2160D01*
X1911Y2160D02*
X1923Y2160D01*
X1972Y2160D02*
X1984Y2160D01*
X2011Y2160D02*
X2023Y2160D01*
X1672Y2159D02*
X1683Y2159D01*
X1711Y2159D02*
X1723Y2159D01*
X1772Y2159D02*
X1783Y2159D01*
X1811Y2159D02*
X1823Y2159D01*
X1872Y2159D02*
X1883Y2159D01*
X1911Y2159D02*
X1923Y2159D01*
X1972Y2159D02*
X1983Y2159D01*
X2011Y2159D02*
X2023Y2159D01*
X1672Y2158D02*
X1683Y2158D01*
X1712Y2158D02*
X1723Y2158D01*
X1772Y2158D02*
X1782Y2158D01*
X1812Y2158D02*
X1823Y2158D01*
X1872Y2158D02*
X1882Y2158D01*
X1912Y2158D02*
X1923Y2158D01*
X1972Y2158D02*
X1982Y2158D01*
X2012Y2158D02*
X2023Y2158D01*
X1672Y2157D02*
X1682Y2157D01*
X1712Y2157D02*
X1723Y2157D01*
X1772Y2157D02*
X1782Y2157D01*
X1812Y2157D02*
X1823Y2157D01*
X1872Y2157D02*
X1882Y2157D01*
X1912Y2157D02*
X1923Y2157D01*
X1972Y2157D02*
X1982Y2157D01*
X2012Y2157D02*
X2023Y2157D01*
X1672Y2156D02*
X1682Y2156D01*
X1713Y2156D02*
X1723Y2156D01*
X1772Y2156D02*
X1782Y2156D01*
X1813Y2156D02*
X1823Y2156D01*
X1872Y2156D02*
X1882Y2156D01*
X1913Y2156D02*
X1923Y2156D01*
X1972Y2156D02*
X1982Y2156D01*
X2013Y2156D02*
X2023Y2156D01*
X1672Y2155D02*
X1681Y2155D01*
X1713Y2155D02*
X1723Y2155D01*
X1772Y2155D02*
X1781Y2155D01*
X1813Y2155D02*
X1823Y2155D01*
X1872Y2155D02*
X1881Y2155D01*
X1913Y2155D02*
X1923Y2155D01*
X1972Y2155D02*
X1981Y2155D01*
X2013Y2155D02*
X2023Y2155D01*
X1672Y2154D02*
X1681Y2154D01*
X1713Y2154D02*
X1723Y2154D01*
X1772Y2154D02*
X1781Y2154D01*
X1813Y2154D02*
X1823Y2154D01*
X1872Y2154D02*
X1881Y2154D01*
X1913Y2154D02*
X1923Y2154D01*
X1972Y2154D02*
X1981Y2154D01*
X2013Y2154D02*
X2023Y2154D01*
X1672Y2153D02*
X1681Y2153D01*
X1713Y2153D02*
X1723Y2153D01*
X1772Y2153D02*
X1781Y2153D01*
X1813Y2153D02*
X1823Y2153D01*
X1872Y2153D02*
X1881Y2153D01*
X1913Y2153D02*
X1923Y2153D01*
X1972Y2153D02*
X1981Y2153D01*
X2013Y2153D02*
X2023Y2153D01*
X1672Y2152D02*
X1681Y2152D01*
X1714Y2152D02*
X1723Y2152D01*
X1772Y2152D02*
X1781Y2152D01*
X1814Y2152D02*
X1823Y2152D01*
X1872Y2152D02*
X1881Y2152D01*
X1913Y2152D02*
X1923Y2152D01*
X1972Y2152D02*
X1981Y2152D01*
X2013Y2152D02*
X2023Y2152D01*
X1672Y2151D02*
X1681Y2151D01*
X1714Y2151D02*
X1723Y2151D01*
X1772Y2151D02*
X1781Y2151D01*
X1814Y2151D02*
X1823Y2151D01*
X1872Y2151D02*
X1881Y2151D01*
X1914Y2151D02*
X1923Y2151D01*
X1972Y2151D02*
X1981Y2151D01*
X2014Y2151D02*
X2023Y2151D01*
X1672Y2150D02*
X1681Y2150D01*
X1714Y2150D02*
X1723Y2150D01*
X1772Y2150D02*
X1781Y2150D01*
X1814Y2150D02*
X1823Y2150D01*
X1872Y2150D02*
X1881Y2150D01*
X1914Y2150D02*
X1923Y2150D01*
X1972Y2150D02*
X1981Y2150D01*
X2014Y2150D02*
X2023Y2150D01*
X1672Y2149D02*
X1681Y2149D01*
X1713Y2149D02*
X1723Y2149D01*
X1772Y2149D02*
X1781Y2149D01*
X1813Y2149D02*
X1823Y2149D01*
X1872Y2149D02*
X1881Y2149D01*
X1913Y2149D02*
X1923Y2149D01*
X1972Y2149D02*
X1981Y2149D01*
X2013Y2149D02*
X2023Y2149D01*
X1672Y2148D02*
X1681Y2148D01*
X1713Y2148D02*
X1723Y2148D01*
X1772Y2148D02*
X1781Y2148D01*
X1813Y2148D02*
X1823Y2148D01*
X1872Y2148D02*
X1881Y2148D01*
X1913Y2148D02*
X1923Y2148D01*
X1972Y2148D02*
X1981Y2148D01*
X2013Y2148D02*
X2023Y2148D01*
X1672Y2147D02*
X1681Y2147D01*
X1713Y2147D02*
X1723Y2147D01*
X1772Y2147D02*
X1781Y2147D01*
X1813Y2147D02*
X1823Y2147D01*
X1872Y2147D02*
X1881Y2147D01*
X1913Y2147D02*
X1923Y2147D01*
X1972Y2147D02*
X1981Y2147D01*
X2013Y2147D02*
X2023Y2147D01*
X1672Y2146D02*
X1681Y2146D01*
X1713Y2146D02*
X1723Y2146D01*
X1772Y2146D02*
X1781Y2146D01*
X1813Y2146D02*
X1823Y2146D01*
X1872Y2146D02*
X1881Y2146D01*
X1913Y2146D02*
X1923Y2146D01*
X1972Y2146D02*
X1981Y2146D01*
X2013Y2146D02*
X2023Y2146D01*
X1672Y2145D02*
X1682Y2145D01*
X1713Y2145D02*
X1723Y2145D01*
X1772Y2145D02*
X1782Y2145D01*
X1813Y2145D02*
X1823Y2145D01*
X1872Y2145D02*
X1882Y2145D01*
X1913Y2145D02*
X1923Y2145D01*
X1972Y2145D02*
X1982Y2145D01*
X2013Y2145D02*
X2023Y2145D01*
X1672Y2144D02*
X1682Y2144D01*
X1712Y2144D02*
X1723Y2144D01*
X1772Y2144D02*
X1782Y2144D01*
X1812Y2144D02*
X1823Y2144D01*
X1872Y2144D02*
X1882Y2144D01*
X1912Y2144D02*
X1923Y2144D01*
X1972Y2144D02*
X1982Y2144D01*
X2012Y2144D02*
X2023Y2144D01*
X1672Y2143D02*
X1683Y2143D01*
X1712Y2143D02*
X1723Y2143D01*
X1772Y2143D02*
X1783Y2143D01*
X1812Y2143D02*
X1823Y2143D01*
X1872Y2143D02*
X1883Y2143D01*
X1912Y2143D02*
X1923Y2143D01*
X1972Y2143D02*
X1983Y2143D01*
X2012Y2143D02*
X2023Y2143D01*
X1672Y2142D02*
X1683Y2142D01*
X1711Y2142D02*
X1723Y2142D01*
X1772Y2142D02*
X1783Y2142D01*
X1811Y2142D02*
X1823Y2142D01*
X1872Y2142D02*
X1883Y2142D01*
X1911Y2142D02*
X1923Y2142D01*
X1972Y2142D02*
X1983Y2142D01*
X2011Y2142D02*
X2023Y2142D01*
X1672Y2141D02*
X1684Y2141D01*
X1710Y2141D02*
X1723Y2141D01*
X1772Y2141D02*
X1784Y2141D01*
X1810Y2141D02*
X1823Y2141D01*
X1872Y2141D02*
X1884Y2141D01*
X1910Y2141D02*
X1923Y2141D01*
X1972Y2141D02*
X1984Y2141D01*
X2010Y2141D02*
X2023Y2141D01*
X1672Y2140D02*
X1685Y2140D01*
X1709Y2140D02*
X1723Y2140D01*
X1772Y2140D02*
X1785Y2140D01*
X1809Y2140D02*
X1823Y2140D01*
X1872Y2140D02*
X1885Y2140D01*
X1909Y2140D02*
X1923Y2140D01*
X1972Y2140D02*
X1985Y2140D01*
X2009Y2140D02*
X2023Y2140D01*
X1672Y2139D02*
X1686Y2139D01*
X1709Y2139D02*
X1723Y2139D01*
X1772Y2139D02*
X1786Y2139D01*
X1809Y2139D02*
X1823Y2139D01*
X1872Y2139D02*
X1886Y2139D01*
X1908Y2139D02*
X1923Y2139D01*
X1972Y2139D02*
X1986Y2139D01*
X2008Y2139D02*
X2023Y2139D01*
X1672Y2138D02*
X1687Y2138D01*
X1707Y2138D02*
X1723Y2138D01*
X1772Y2138D02*
X1787Y2138D01*
X1807Y2138D02*
X1823Y2138D01*
X1872Y2138D02*
X1887Y2138D01*
X1907Y2138D02*
X1923Y2138D01*
X1972Y2138D02*
X1987Y2138D01*
X2007Y2138D02*
X2023Y2138D01*
X1672Y2137D02*
X1689Y2137D01*
X1706Y2137D02*
X1723Y2137D01*
X1772Y2137D02*
X1788Y2137D01*
X1806Y2137D02*
X1823Y2137D01*
X1872Y2137D02*
X1888Y2137D01*
X1906Y2137D02*
X1923Y2137D01*
X1972Y2137D02*
X1988Y2137D01*
X2006Y2137D02*
X2023Y2137D01*
X1672Y2136D02*
X1690Y2136D01*
X1704Y2136D02*
X1723Y2136D01*
X1772Y2136D02*
X1790Y2136D01*
X1804Y2136D02*
X1823Y2136D01*
X1872Y2136D02*
X1890Y2136D01*
X1904Y2136D02*
X1923Y2136D01*
X1972Y2136D02*
X1990Y2136D01*
X2004Y2136D02*
X2023Y2136D01*
X1672Y2135D02*
X1694Y2135D01*
X1701Y2135D02*
X1723Y2135D01*
X1772Y2135D02*
X1794Y2135D01*
X1801Y2135D02*
X1823Y2135D01*
X1872Y2135D02*
X1894Y2135D01*
X1901Y2135D02*
X1923Y2135D01*
X1972Y2135D02*
X1994Y2135D01*
X2001Y2135D02*
X2023Y2135D01*
X1672Y2134D02*
X1723Y2134D01*
X1772Y2134D02*
X1823Y2134D01*
X1872Y2134D02*
X1923Y2134D01*
X1972Y2134D02*
X2023Y2134D01*
X1672Y2133D02*
X1723Y2133D01*
X1772Y2133D02*
X1823Y2133D01*
X1872Y2133D02*
X1923Y2133D01*
X1972Y2133D02*
X2023Y2133D01*
X1672Y2132D02*
X1723Y2132D01*
X1772Y2132D02*
X1823Y2132D01*
X1872Y2132D02*
X1923Y2132D01*
X1972Y2132D02*
X2023Y2132D01*
X1672Y2131D02*
X1723Y2131D01*
X1772Y2131D02*
X1823Y2131D01*
X1872Y2131D02*
X1923Y2131D01*
X1972Y2131D02*
X2023Y2131D01*
X1672Y2130D02*
X1723Y2130D01*
X1772Y2130D02*
X1823Y2130D01*
X1872Y2130D02*
X1923Y2130D01*
X1972Y2130D02*
X2023Y2130D01*
X1672Y2129D02*
X1723Y2129D01*
X1772Y2129D02*
X1823Y2129D01*
X1872Y2129D02*
X1923Y2129D01*
X1972Y2129D02*
X2023Y2129D01*
X1672Y2128D02*
X1723Y2128D01*
X1772Y2128D02*
X1823Y2128D01*
X1872Y2128D02*
X1923Y2128D01*
X1972Y2128D02*
X2023Y2128D01*
X1672Y2127D02*
X1723Y2127D01*
X1772Y2127D02*
X1823Y2127D01*
X1872Y2127D02*
X1923Y2127D01*
X1972Y2127D02*
X2023Y2127D01*
X1672Y2126D02*
X1723Y2126D01*
X1772Y2126D02*
X1823Y2126D01*
X1872Y2126D02*
X1923Y2126D01*
X1972Y2126D02*
X2023Y2126D01*
X1672Y2125D02*
X1723Y2125D01*
X1772Y2125D02*
X1823Y2125D01*
X1872Y2125D02*
X1923Y2125D01*
X1972Y2125D02*
X2023Y2125D01*
X1672Y2124D02*
X1723Y2124D01*
X1772Y2124D02*
X1823Y2124D01*
X1872Y2124D02*
X1923Y2124D01*
X1972Y2124D02*
X2023Y2124D01*
X1672Y2123D02*
X1723Y2123D01*
X1772Y2123D02*
X1823Y2123D01*
X1872Y2123D02*
X1923Y2123D01*
X1972Y2123D02*
X2023Y2123D01*
X1672Y2122D02*
X1723Y2122D01*
X1772Y2122D02*
X1823Y2122D01*
X1872Y2122D02*
X1922Y2122D01*
X1972Y2122D02*
X2022Y2122D01*
X1672Y2121D02*
X1722Y2121D01*
X1772Y2121D02*
X1822Y2121D01*
X1872Y2121D02*
X1922Y2121D01*
X1972Y2121D02*
X2022Y2121D01*
X1672Y2120D02*
X1722Y2120D01*
X1772Y2120D02*
X1822Y2120D01*
X1872Y2120D02*
X1922Y2120D01*
X1972Y2120D02*
X2022Y2120D01*
X1672Y2119D02*
X1722Y2119D01*
X1772Y2119D02*
X1822Y2119D01*
X1872Y2119D02*
X1922Y2119D01*
X1972Y2119D02*
X2022Y2119D01*
X1673Y2118D02*
X1722Y2118D01*
X1773Y2118D02*
X1822Y2118D01*
X1873Y2118D02*
X1922Y2118D01*
X1973Y2118D02*
X2022Y2118D01*
X1673Y2117D02*
X1721Y2117D01*
X1773Y2117D02*
X1821Y2117D01*
X1873Y2117D02*
X1921Y2117D01*
X1973Y2117D02*
X2021Y2117D01*
X1673Y2116D02*
X1721Y2116D01*
X1773Y2116D02*
X1821Y2116D01*
X1873Y2116D02*
X1921Y2116D01*
X1973Y2116D02*
X2021Y2116D01*
X1674Y2115D02*
X1721Y2115D01*
X1774Y2115D02*
X1821Y2115D01*
X1874Y2115D02*
X1921Y2115D01*
X1973Y2115D02*
X2021Y2115D01*
X1674Y2114D02*
X1720Y2114D01*
X1774Y2114D02*
X1820Y2114D01*
X1874Y2114D02*
X1920Y2114D01*
X1974Y2114D02*
X2020Y2114D01*
X1675Y2113D02*
X1720Y2113D01*
X1775Y2113D02*
X1820Y2113D01*
X1875Y2113D02*
X1920Y2113D01*
X1975Y2113D02*
X2020Y2113D01*
X1675Y2112D02*
X1719Y2112D01*
X1775Y2112D02*
X1819Y2112D01*
X1875Y2112D02*
X1919Y2112D01*
X1975Y2112D02*
X2019Y2112D01*
X1676Y2111D02*
X1719Y2111D01*
X1776Y2111D02*
X1819Y2111D01*
X1876Y2111D02*
X1919Y2111D01*
X1976Y2111D02*
X2019Y2111D01*
X1676Y2110D02*
X1718Y2110D01*
X1776Y2110D02*
X1818Y2110D01*
X1876Y2110D02*
X1918Y2110D01*
X1976Y2110D02*
X2018Y2110D01*
X1677Y2109D02*
X1717Y2109D01*
X1777Y2109D02*
X1817Y2109D01*
X1877Y2109D02*
X1917Y2109D01*
X1977Y2109D02*
X2017Y2109D01*
X1678Y2108D02*
X1716Y2108D01*
X1778Y2108D02*
X1816Y2108D01*
X1878Y2108D02*
X1916Y2108D01*
X1978Y2108D02*
X2016Y2108D01*
X1679Y2107D02*
X1716Y2107D01*
X1779Y2107D02*
X1816Y2107D01*
X1879Y2107D02*
X1916Y2107D01*
X1979Y2107D02*
X2016Y2107D01*
X1680Y2106D02*
X1715Y2106D01*
X1780Y2106D02*
X1815Y2106D01*
X1880Y2106D02*
X1915Y2106D01*
X1980Y2106D02*
X2015Y2106D01*
X1681Y2105D02*
X1713Y2105D01*
X1781Y2105D02*
X1813Y2105D01*
X1881Y2105D02*
X1913Y2105D01*
X1981Y2105D02*
X2013Y2105D01*
X1682Y2104D02*
X1712Y2104D01*
X1782Y2104D02*
X1812Y2104D01*
X1882Y2104D02*
X1912Y2104D01*
X1982Y2104D02*
X2012Y2104D01*
X1683Y2103D02*
X1711Y2103D01*
X1783Y2103D02*
X1811Y2103D01*
X1883Y2103D02*
X1911Y2103D01*
X1983Y2103D02*
X2011Y2103D01*
X1685Y2102D02*
X1709Y2102D01*
X1785Y2102D02*
X1809Y2102D01*
X1885Y2102D02*
X1909Y2102D01*
X1985Y2102D02*
X2009Y2102D01*
X1687Y2101D02*
X1707Y2101D01*
X1787Y2101D02*
X1807Y2101D01*
X1887Y2101D02*
X1907Y2101D01*
X1987Y2101D02*
X2007Y2101D01*
X1690Y2100D02*
X1705Y2100D01*
X1790Y2100D02*
X1805Y2100D01*
X1890Y2100D02*
X1905Y2100D01*
X1990Y2100D02*
X2005Y2100D01*
X1694Y2099D02*
X1700Y2099D01*
X1794Y2099D02*
X1800Y2099D01*
X1894Y2099D02*
X1900Y2099D01*
X1994Y2099D02*
X2000Y2099D01*
D02*
G04 End of Copper0*
M02*