; NON-PLATED HOLES START AT T1
; THROUGH (PLATED) HOLES START AT T100
M48
INCH
T100C0.038000
T101C0.041000
T102C0.032000
T103C0.031497
T104C0.015748
%
T100
X022980Y020496
X015980Y022496
X016980Y016496
X016980Y015496
X015980Y023496
T101
X005980Y016496
X009980Y017496
X005980Y018496
T102
X017980Y024496
X018980Y021496
X016980Y021496
X016980Y024496
X019980Y024496
X019980Y021496
X017980Y021496
X018980Y024496
T103
X009532Y023606
X009532Y022622
T104
X022980Y013496
X013980Y013496
X013980Y011496
X007980Y011496
X020980Y021496
X010980Y013496
X019980Y011496
X007980Y013496
X019980Y013496
X010980Y011496
X010993Y004487
X012992Y004487
X016980Y013496
X022980Y011496
X016980Y011496
T00
M30
