G04 MADE WITH FRITZING*
G04 WWW.FRITZING.ORG*
G04 DOUBLE SIDED*
G04 HOLES PLATED*
G04 CONTOUR ON CENTER OF CONTOUR VECTOR*
%ASAXBY*%
%FSLAX23Y23*%
%MOIN*%
%OFA0B0*%
%SFA1.0B1.0*%
%ADD10C,0.075000*%
%ADD11C,0.078000*%
%ADD12C,0.099000*%
%ADD13C,0.077222*%
%ADD14C,0.039370*%
%ADD15R,0.075000X0.075000*%
%ADD16R,0.078000X0.078000*%
%ADD17R,0.099000X0.099000*%
%ADD18R,0.077222X0.077222*%
%ADD19C,0.024000*%
%LNCOPPER0*%
G90*
G70*
G54D10*
X2522Y1250D03*
X2922Y1250D03*
X2922Y2250D03*
X3022Y2250D03*
X322Y1350D03*
X422Y1350D03*
X522Y1350D03*
X622Y1350D03*
X722Y1350D03*
X822Y1350D03*
X922Y1350D03*
X1022Y1350D03*
X1122Y1350D03*
X1222Y1350D03*
X1322Y1350D03*
X1422Y1350D03*
X1522Y1350D03*
X1622Y1350D03*
X1722Y1350D03*
X1822Y1350D03*
G54D11*
X2522Y1950D03*
X2522Y1850D03*
X2522Y1750D03*
X1622Y1950D03*
X1622Y1850D03*
X1622Y1750D03*
X1422Y1950D03*
X1422Y1850D03*
X1422Y1750D03*
X1222Y1950D03*
X1222Y1850D03*
X1222Y1750D03*
X1022Y1950D03*
X1022Y1850D03*
X1022Y1750D03*
X822Y1950D03*
X822Y1850D03*
X822Y1750D03*
X622Y1950D03*
X622Y1850D03*
X622Y1750D03*
X422Y1950D03*
X422Y1850D03*
X422Y1750D03*
X222Y1950D03*
X222Y1850D03*
X222Y1750D03*
G54D12*
X1922Y1750D03*
X1922Y1950D03*
X2322Y1850D03*
G54D10*
X3078Y1750D03*
X2822Y1750D03*
X3078Y1927D03*
X2822Y1927D03*
G54D13*
X2522Y2750D03*
X2522Y2250D03*
X2522Y2750D03*
X2522Y2250D03*
G54D11*
X2622Y2750D03*
X2622Y2650D03*
X2622Y2550D03*
G54D14*
X1424Y3049D03*
G54D15*
X2922Y2250D03*
X322Y1350D03*
G54D16*
X2522Y1950D03*
X1622Y1950D03*
X1422Y1950D03*
X1222Y1950D03*
X1022Y1950D03*
X822Y1950D03*
X622Y1950D03*
X422Y1950D03*
X222Y1950D03*
G54D17*
X1922Y1950D03*
G54D18*
X2522Y2250D03*
X2522Y2250D03*
G54D16*
X2622Y2750D03*
G54D19*
X2611Y2139D02*
X2529Y1779D01*
D02*
X2624Y2250D02*
X2611Y2139D01*
D02*
X2550Y2250D02*
X2624Y2250D01*
D02*
X1452Y1750D02*
X1592Y1750D01*
D02*
X1252Y1750D02*
X1392Y1750D01*
D02*
X1052Y1750D02*
X1192Y1750D01*
D02*
X852Y1750D02*
X992Y1750D01*
D02*
X652Y1750D02*
X792Y1750D01*
D02*
X452Y1750D02*
X592Y1750D01*
D02*
X392Y1750D02*
X252Y1750D01*
D02*
X1896Y1932D02*
X1647Y1766D01*
D02*
X2550Y2250D02*
X2894Y2250D01*
D02*
X2322Y1649D02*
X522Y1649D01*
D02*
X522Y1649D02*
X522Y1378D01*
D02*
X2322Y1818D02*
X2322Y1649D01*
D02*
X324Y1151D02*
X720Y1151D01*
D02*
X720Y1151D02*
X722Y1321D01*
D02*
X322Y1321D02*
X324Y1151D01*
D02*
X121Y1552D02*
X121Y2252D01*
D02*
X121Y2252D02*
X2495Y2250D01*
D02*
X302Y1370D02*
X121Y1552D01*
D02*
X2521Y1450D02*
X821Y1450D01*
D02*
X821Y1450D02*
X822Y1378D01*
D02*
X2802Y1729D02*
X2521Y1450D01*
D02*
X2424Y1851D02*
X2424Y1552D01*
D02*
X2424Y1552D02*
X623Y1552D01*
D02*
X623Y1552D02*
X622Y1378D01*
D02*
X2492Y1850D02*
X2424Y1851D01*
D02*
X2521Y2349D02*
X1440Y3039D01*
D02*
X2522Y2277D02*
X2521Y2349D01*
G04 End of Copper0*
M02*