; NON-PLATED HOLES START AT T1
; THROUGH (PLATED) HOLES START AT T100
M48
INCH
T100C0.032778
T101C0.035000
T102C0.041000
T103C0.038000
T104C0.015748
%
T100
X025222Y022496
X025222Y027496
T101
X014222Y013496
X030781Y019267
X010222Y013496
X009222Y013496
X008222Y013496
X018222Y013496
X013222Y013496
X028222Y017496
X012222Y013496
X003222Y013496
X007222Y013496
X016222Y013496
X017222Y013496
X028222Y019267
X011222Y013496
X029222Y012496
X029222Y022496
X030781Y017496
X025222Y012496
X015222Y013496
X006222Y013496
X004222Y013496
X005222Y013496
X030222Y022496
T102
X023222Y018496
X019222Y019496
X019222Y017496
T103
X012222Y017496
X025222Y019496
X016222Y017496
X026222Y025496
X012222Y019496
X004222Y019496
X006222Y018496
X006222Y017496
X014222Y017496
X012222Y018496
X025222Y018496
X026222Y027496
X026222Y026496
X002222Y017496
X004222Y018496
X016222Y019496
X008222Y019496
X008222Y017496
X010222Y019496
X010222Y018496
X004222Y017496
X016222Y018496
X025222Y017496
X010222Y017496
X008222Y018496
X014222Y018496
X014222Y019496
X002222Y018496
X002222Y019496
X006222Y019496
T104
X014238Y030494
T00
M30
