; NON-PLATED HOLES START AT T1
; THROUGH (PLATED) HOLES START AT T100
M48
INCH
T100C0.035000
T101C0.038000
T102C0.031497
T103C0.165354
%
T100
X017222Y003267
X001222Y006496
X010222Y001496
X029222Y007496
X014663Y003267
X006222Y001496
X025222Y007496
X002222Y006496
X014663Y001496
X017222Y001496
T101
X022222Y001496
X022222Y002496
X003222Y002496
X004222Y029496
X004222Y028496
X022222Y003496
X003222Y003496
T102
X009709Y023573
X009709Y022589
T103
X016222Y029496
T00
M30
