G04 MADE WITH FRITZING*
G04 WWW.FRITZING.ORG*
G04 DOUBLE SIDED*
G04 HOLES PLATED*
G04 CONTOUR ON CENTER OF CONTOUR VECTOR*
%ASAXBY*%
%FSLAX23Y23*%
%MOIN*%
%OFA0B0*%
%SFA1.0B1.0*%
%ADD10C,0.075000*%
%ADD11C,0.062992*%
%ADD12C,0.078000*%
%ADD13C,0.322834*%
%ADD14R,0.062992X0.062992*%
%ADD15R,0.075000X0.075000*%
%ADD16R,0.078000X0.078000*%
%ADD17C,0.024000*%
%LNCOPPER1*%
G90*
G70*
G54D10*
X207Y527D03*
X524Y3036D03*
G54D11*
X971Y2259D03*
X971Y2357D03*
X971Y2259D03*
X971Y2357D03*
G54D12*
X322Y350D03*
X322Y250D03*
X2222Y350D03*
X2222Y250D03*
X2222Y150D03*
G54D10*
X2522Y750D03*
X2922Y750D03*
X622Y150D03*
X1022Y150D03*
X122Y650D03*
X222Y650D03*
X1466Y150D03*
X1722Y150D03*
X1466Y327D03*
X1722Y327D03*
X1466Y150D03*
X1722Y150D03*
X1466Y327D03*
X1722Y327D03*
G54D13*
X1622Y2950D03*
G54D12*
X422Y2950D03*
X422Y2850D03*
G54D14*
X971Y2259D03*
X971Y2259D03*
G54D15*
X122Y650D03*
G54D16*
X422Y2950D03*
G54D17*
X724Y748D02*
X1441Y341D01*
D02*
X421Y748D02*
X724Y748D01*
D02*
X422Y2819D02*
X421Y748D01*
D02*
X2193Y244D02*
X1750Y155D01*
D02*
X323Y650D02*
X251Y650D01*
D02*
X322Y380D02*
X323Y650D01*
D02*
X123Y250D02*
X122Y621D01*
D02*
X292Y250D02*
X123Y250D01*
D02*
X621Y348D02*
X622Y178D01*
D02*
X352Y349D02*
X621Y348D01*
D02*
X1022Y49D02*
X1022Y121D01*
D02*
X2224Y49D02*
X1022Y49D01*
D02*
X2223Y120D02*
X2224Y49D01*
D02*
X2224Y548D02*
X2222Y380D01*
D02*
X2499Y734D02*
X2224Y548D01*
D02*
X2923Y2248D02*
X2922Y778D01*
D02*
X998Y2259D02*
X2923Y2248D01*
D02*
X123Y548D02*
X207Y527D01*
D02*
X122Y621D02*
X123Y548D01*
D02*
X321Y3050D02*
X123Y2849D01*
D02*
X123Y2849D02*
X122Y678D01*
D02*
X524Y3036D02*
X321Y3050D01*
D02*
X1549Y2873D02*
X991Y2375D01*
D02*
X524Y3036D02*
X1549Y2873D01*
D02*
X221Y250D02*
X292Y250D01*
D02*
X207Y527D02*
X221Y250D01*
D02*
X1549Y2873D02*
X452Y2948D01*
G36*
X264Y628D02*
X264Y626D01*
X262Y626D01*
X262Y622D01*
X260Y622D01*
X260Y620D01*
X258Y620D01*
X258Y618D01*
X256Y618D01*
X256Y616D01*
X254Y616D01*
X254Y614D01*
X252Y614D01*
X252Y612D01*
X250Y612D01*
X250Y610D01*
X246Y610D01*
X246Y608D01*
X242Y608D01*
X242Y606D01*
X236Y606D01*
X236Y604D01*
X228Y604D01*
X228Y602D01*
X300Y602D01*
X300Y628D01*
X264Y628D01*
G37*
D02*
G36*
X170Y616D02*
X170Y602D01*
X216Y602D01*
X216Y604D01*
X208Y604D01*
X208Y606D01*
X202Y606D01*
X202Y608D01*
X198Y608D01*
X198Y610D01*
X196Y610D01*
X196Y612D01*
X192Y612D01*
X192Y614D01*
X190Y614D01*
X190Y616D01*
X170Y616D01*
G37*
D02*
G36*
X144Y602D02*
X144Y600D01*
X300Y600D01*
X300Y602D01*
X144Y602D01*
G37*
D02*
G36*
X144Y602D02*
X144Y600D01*
X300Y600D01*
X300Y602D01*
X144Y602D01*
G37*
D02*
G36*
X144Y600D02*
X144Y272D01*
X280Y272D01*
X280Y276D01*
X282Y276D01*
X282Y280D01*
X284Y280D01*
X284Y282D01*
X286Y282D01*
X286Y284D01*
X288Y284D01*
X288Y286D01*
X290Y286D01*
X290Y288D01*
X292Y288D01*
X292Y290D01*
X296Y290D01*
X296Y310D01*
X292Y310D01*
X292Y312D01*
X290Y312D01*
X290Y314D01*
X288Y314D01*
X288Y316D01*
X286Y316D01*
X286Y318D01*
X284Y318D01*
X284Y322D01*
X282Y322D01*
X282Y324D01*
X280Y324D01*
X280Y328D01*
X278Y328D01*
X278Y332D01*
X276Y332D01*
X276Y338D01*
X274Y338D01*
X274Y362D01*
X276Y362D01*
X276Y368D01*
X278Y368D01*
X278Y372D01*
X280Y372D01*
X280Y376D01*
X282Y376D01*
X282Y380D01*
X284Y380D01*
X284Y382D01*
X286Y382D01*
X286Y384D01*
X288Y384D01*
X288Y386D01*
X290Y386D01*
X290Y388D01*
X292Y388D01*
X292Y390D01*
X296Y390D01*
X296Y392D01*
X300Y392D01*
X300Y600D01*
X144Y600D01*
G37*
D02*
G36*
X410Y3110D02*
X410Y3108D01*
X388Y3108D01*
X388Y3106D01*
X374Y3106D01*
X374Y3104D01*
X362Y3104D01*
X362Y3102D01*
X352Y3102D01*
X352Y3100D01*
X344Y3100D01*
X344Y3098D01*
X336Y3098D01*
X336Y3096D01*
X328Y3096D01*
X328Y3094D01*
X322Y3094D01*
X322Y3092D01*
X316Y3092D01*
X316Y3090D01*
X310Y3090D01*
X310Y3088D01*
X304Y3088D01*
X304Y3086D01*
X298Y3086D01*
X298Y3084D01*
X294Y3084D01*
X294Y3082D01*
X288Y3082D01*
X288Y3080D01*
X282Y3080D01*
X282Y3078D01*
X278Y3078D01*
X278Y3076D01*
X274Y3076D01*
X274Y3074D01*
X270Y3074D01*
X270Y3072D01*
X266Y3072D01*
X266Y3070D01*
X262Y3070D01*
X262Y3068D01*
X258Y3068D01*
X258Y3066D01*
X254Y3066D01*
X254Y3064D01*
X250Y3064D01*
X250Y3062D01*
X246Y3062D01*
X246Y3060D01*
X242Y3060D01*
X242Y3058D01*
X238Y3058D01*
X238Y3056D01*
X236Y3056D01*
X236Y3054D01*
X232Y3054D01*
X232Y3052D01*
X228Y3052D01*
X228Y3050D01*
X226Y3050D01*
X226Y3048D01*
X222Y3048D01*
X222Y3046D01*
X220Y3046D01*
X220Y3044D01*
X216Y3044D01*
X216Y3042D01*
X214Y3042D01*
X214Y3040D01*
X210Y3040D01*
X210Y3038D01*
X208Y3038D01*
X208Y3036D01*
X204Y3036D01*
X204Y3034D01*
X202Y3034D01*
X202Y3032D01*
X200Y3032D01*
X200Y3030D01*
X196Y3030D01*
X196Y3028D01*
X194Y3028D01*
X194Y3026D01*
X192Y3026D01*
X192Y3024D01*
X188Y3024D01*
X188Y3022D01*
X186Y3022D01*
X186Y3020D01*
X184Y3020D01*
X184Y3018D01*
X182Y3018D01*
X182Y3016D01*
X180Y3016D01*
X180Y3014D01*
X176Y3014D01*
X176Y3012D01*
X174Y3012D01*
X174Y3010D01*
X172Y3010D01*
X172Y3008D01*
X170Y3008D01*
X170Y3006D01*
X168Y3006D01*
X168Y3004D01*
X166Y3004D01*
X166Y3002D01*
X164Y3002D01*
X164Y3000D01*
X470Y3000D01*
X470Y2998D01*
X472Y2998D01*
X472Y2902D01*
X470Y2902D01*
X470Y2900D01*
X460Y2900D01*
X460Y2880D01*
X462Y2880D01*
X462Y2876D01*
X464Y2876D01*
X464Y2874D01*
X466Y2874D01*
X466Y2870D01*
X468Y2870D01*
X468Y2864D01*
X470Y2864D01*
X470Y2854D01*
X472Y2854D01*
X472Y2846D01*
X470Y2846D01*
X470Y2836D01*
X468Y2836D01*
X468Y2830D01*
X466Y2830D01*
X466Y2826D01*
X464Y2826D01*
X464Y2824D01*
X462Y2824D01*
X462Y2820D01*
X460Y2820D01*
X460Y2818D01*
X458Y2818D01*
X458Y2816D01*
X456Y2816D01*
X456Y2814D01*
X454Y2814D01*
X454Y2812D01*
X452Y2812D01*
X452Y2810D01*
X448Y2810D01*
X448Y2808D01*
X446Y2808D01*
X446Y2806D01*
X444Y2806D01*
X444Y2778D01*
X1612Y2778D01*
X1612Y2780D01*
X1594Y2780D01*
X1594Y2782D01*
X1584Y2782D01*
X1584Y2784D01*
X1576Y2784D01*
X1576Y2786D01*
X1570Y2786D01*
X1570Y2788D01*
X1564Y2788D01*
X1564Y2790D01*
X1558Y2790D01*
X1558Y2792D01*
X1554Y2792D01*
X1554Y2794D01*
X1550Y2794D01*
X1550Y2796D01*
X1546Y2796D01*
X1546Y2798D01*
X1542Y2798D01*
X1542Y2800D01*
X1538Y2800D01*
X1538Y2802D01*
X1534Y2802D01*
X1534Y2804D01*
X1532Y2804D01*
X1532Y2806D01*
X1528Y2806D01*
X1528Y2808D01*
X1524Y2808D01*
X1524Y2810D01*
X1522Y2810D01*
X1522Y2812D01*
X1520Y2812D01*
X1520Y2814D01*
X1516Y2814D01*
X1516Y2816D01*
X1514Y2816D01*
X1514Y2818D01*
X1512Y2818D01*
X1512Y2820D01*
X1510Y2820D01*
X1510Y2822D01*
X1508Y2822D01*
X1508Y2824D01*
X1506Y2824D01*
X1506Y2826D01*
X1502Y2826D01*
X1502Y2828D01*
X1500Y2828D01*
X1500Y2830D01*
X1498Y2830D01*
X1498Y2834D01*
X1496Y2834D01*
X1496Y2836D01*
X1494Y2836D01*
X1494Y2838D01*
X1492Y2838D01*
X1492Y2840D01*
X1490Y2840D01*
X1490Y2842D01*
X1488Y2842D01*
X1488Y2844D01*
X1486Y2844D01*
X1486Y2848D01*
X1484Y2848D01*
X1484Y2850D01*
X1482Y2850D01*
X1482Y2852D01*
X1480Y2852D01*
X1480Y2856D01*
X1478Y2856D01*
X1478Y2860D01*
X1476Y2860D01*
X1476Y2862D01*
X1474Y2862D01*
X1474Y2866D01*
X1472Y2866D01*
X1472Y2870D01*
X1470Y2870D01*
X1470Y2874D01*
X1468Y2874D01*
X1468Y2878D01*
X1466Y2878D01*
X1466Y2882D01*
X1464Y2882D01*
X1464Y2886D01*
X1462Y2886D01*
X1462Y2892D01*
X1460Y2892D01*
X1460Y2898D01*
X1458Y2898D01*
X1458Y2906D01*
X1456Y2906D01*
X1456Y2912D01*
X1454Y2912D01*
X1454Y2924D01*
X1452Y2924D01*
X1452Y2944D01*
X1450Y2944D01*
X1450Y2956D01*
X1452Y2956D01*
X1452Y2976D01*
X1454Y2976D01*
X1454Y2988D01*
X1456Y2988D01*
X1456Y2994D01*
X1458Y2994D01*
X1458Y3002D01*
X1460Y3002D01*
X1460Y3008D01*
X1462Y3008D01*
X1462Y3014D01*
X1464Y3014D01*
X1464Y3018D01*
X1466Y3018D01*
X1466Y3022D01*
X1468Y3022D01*
X1468Y3026D01*
X1470Y3026D01*
X1470Y3030D01*
X1472Y3030D01*
X1472Y3034D01*
X1474Y3034D01*
X1474Y3038D01*
X1476Y3038D01*
X1476Y3040D01*
X1478Y3040D01*
X1478Y3044D01*
X1480Y3044D01*
X1480Y3048D01*
X1482Y3048D01*
X1482Y3050D01*
X1484Y3050D01*
X1484Y3052D01*
X1486Y3052D01*
X1486Y3056D01*
X1488Y3056D01*
X1488Y3058D01*
X1490Y3058D01*
X1490Y3060D01*
X1492Y3060D01*
X1492Y3062D01*
X1494Y3062D01*
X1494Y3064D01*
X1496Y3064D01*
X1496Y3066D01*
X1498Y3066D01*
X1498Y3070D01*
X1500Y3070D01*
X1500Y3072D01*
X1502Y3072D01*
X1502Y3074D01*
X1506Y3074D01*
X1506Y3076D01*
X1508Y3076D01*
X1508Y3078D01*
X1510Y3078D01*
X1510Y3080D01*
X1512Y3080D01*
X1512Y3082D01*
X1514Y3082D01*
X1514Y3084D01*
X1516Y3084D01*
X1516Y3086D01*
X1520Y3086D01*
X1520Y3088D01*
X1522Y3088D01*
X1522Y3090D01*
X1524Y3090D01*
X1524Y3110D01*
X410Y3110D01*
G37*
D02*
G36*
X1720Y3110D02*
X1720Y3090D01*
X1722Y3090D01*
X1722Y3088D01*
X1724Y3088D01*
X1724Y3086D01*
X1728Y3086D01*
X1728Y3084D01*
X1730Y3084D01*
X1730Y3082D01*
X1732Y3082D01*
X1732Y3080D01*
X1734Y3080D01*
X1734Y3078D01*
X1738Y3078D01*
X1738Y3076D01*
X1740Y3076D01*
X1740Y3074D01*
X1742Y3074D01*
X1742Y3072D01*
X1744Y3072D01*
X1744Y3070D01*
X1746Y3070D01*
X1746Y3068D01*
X1748Y3068D01*
X1748Y3066D01*
X1750Y3066D01*
X1750Y3062D01*
X1752Y3062D01*
X1752Y3060D01*
X1754Y3060D01*
X1754Y3058D01*
X1756Y3058D01*
X1756Y3056D01*
X1758Y3056D01*
X1758Y3052D01*
X1760Y3052D01*
X1760Y3050D01*
X1762Y3050D01*
X1762Y3048D01*
X1764Y3048D01*
X1764Y3044D01*
X1766Y3044D01*
X1766Y3042D01*
X1768Y3042D01*
X1768Y3038D01*
X1770Y3038D01*
X1770Y3034D01*
X1772Y3034D01*
X1772Y3032D01*
X1774Y3032D01*
X1774Y3028D01*
X1776Y3028D01*
X1776Y3024D01*
X1778Y3024D01*
X1778Y3020D01*
X1780Y3020D01*
X1780Y3014D01*
X1782Y3014D01*
X1782Y3008D01*
X1784Y3008D01*
X1784Y3004D01*
X1786Y3004D01*
X1786Y2996D01*
X1788Y2996D01*
X1788Y2988D01*
X1790Y2988D01*
X1790Y2978D01*
X1792Y2978D01*
X1792Y2964D01*
X1794Y2964D01*
X1794Y2936D01*
X1792Y2936D01*
X1792Y2922D01*
X1790Y2922D01*
X1790Y2912D01*
X1788Y2912D01*
X1788Y2904D01*
X1786Y2904D01*
X1786Y2896D01*
X1784Y2896D01*
X1784Y2892D01*
X1782Y2892D01*
X1782Y2886D01*
X1780Y2886D01*
X1780Y2880D01*
X1778Y2880D01*
X1778Y2876D01*
X1776Y2876D01*
X1776Y2872D01*
X1774Y2872D01*
X1774Y2868D01*
X1772Y2868D01*
X1772Y2866D01*
X1770Y2866D01*
X1770Y2862D01*
X1768Y2862D01*
X1768Y2858D01*
X1766Y2858D01*
X1766Y2856D01*
X1764Y2856D01*
X1764Y2852D01*
X1762Y2852D01*
X1762Y2850D01*
X1760Y2850D01*
X1760Y2848D01*
X1758Y2848D01*
X1758Y2844D01*
X1756Y2844D01*
X1756Y2842D01*
X1754Y2842D01*
X1754Y2840D01*
X1752Y2840D01*
X1752Y2838D01*
X1750Y2838D01*
X1750Y2834D01*
X1748Y2834D01*
X1748Y2832D01*
X1746Y2832D01*
X1746Y2830D01*
X1744Y2830D01*
X1744Y2828D01*
X1742Y2828D01*
X1742Y2826D01*
X1740Y2826D01*
X1740Y2824D01*
X1738Y2824D01*
X1738Y2822D01*
X1734Y2822D01*
X1734Y2820D01*
X1732Y2820D01*
X1732Y2818D01*
X1730Y2818D01*
X1730Y2816D01*
X1728Y2816D01*
X1728Y2814D01*
X1724Y2814D01*
X1724Y2812D01*
X1722Y2812D01*
X1722Y2810D01*
X1720Y2810D01*
X1720Y2808D01*
X1716Y2808D01*
X1716Y2806D01*
X1714Y2806D01*
X1714Y2804D01*
X1710Y2804D01*
X1710Y2802D01*
X1706Y2802D01*
X1706Y2800D01*
X1704Y2800D01*
X1704Y2798D01*
X1700Y2798D01*
X1700Y2796D01*
X1696Y2796D01*
X1696Y2794D01*
X1690Y2794D01*
X1690Y2792D01*
X1686Y2792D01*
X1686Y2790D01*
X1680Y2790D01*
X1680Y2788D01*
X1674Y2788D01*
X1674Y2786D01*
X1668Y2786D01*
X1668Y2784D01*
X1660Y2784D01*
X1660Y2782D01*
X1650Y2782D01*
X1650Y2780D01*
X1632Y2780D01*
X1632Y2778D01*
X3104Y2778D01*
X3104Y2784D01*
X3102Y2784D01*
X3102Y2796D01*
X3100Y2796D01*
X3100Y2804D01*
X3098Y2804D01*
X3098Y2812D01*
X3096Y2812D01*
X3096Y2820D01*
X3094Y2820D01*
X3094Y2826D01*
X3092Y2826D01*
X3092Y2834D01*
X3090Y2834D01*
X3090Y2840D01*
X3088Y2840D01*
X3088Y2846D01*
X3086Y2846D01*
X3086Y2850D01*
X3084Y2850D01*
X3084Y2856D01*
X3082Y2856D01*
X3082Y2860D01*
X3080Y2860D01*
X3080Y2866D01*
X3078Y2866D01*
X3078Y2870D01*
X3076Y2870D01*
X3076Y2876D01*
X3074Y2876D01*
X3074Y2880D01*
X3072Y2880D01*
X3072Y2884D01*
X3070Y2884D01*
X3070Y2888D01*
X3068Y2888D01*
X3068Y2892D01*
X3066Y2892D01*
X3066Y2896D01*
X3064Y2896D01*
X3064Y2900D01*
X3062Y2900D01*
X3062Y2904D01*
X3060Y2904D01*
X3060Y2906D01*
X3058Y2906D01*
X3058Y2910D01*
X3056Y2910D01*
X3056Y2914D01*
X3054Y2914D01*
X3054Y2918D01*
X3052Y2918D01*
X3052Y2920D01*
X3050Y2920D01*
X3050Y2924D01*
X3048Y2924D01*
X3048Y2926D01*
X3046Y2926D01*
X3046Y2930D01*
X3044Y2930D01*
X3044Y2934D01*
X3042Y2934D01*
X3042Y2936D01*
X3040Y2936D01*
X3040Y2940D01*
X3038Y2940D01*
X3038Y2942D01*
X3036Y2942D01*
X3036Y2944D01*
X3034Y2944D01*
X3034Y2948D01*
X3032Y2948D01*
X3032Y2950D01*
X3030Y2950D01*
X3030Y2952D01*
X3028Y2952D01*
X3028Y2956D01*
X3026Y2956D01*
X3026Y2958D01*
X3024Y2958D01*
X3024Y2960D01*
X3022Y2960D01*
X3022Y2964D01*
X3020Y2964D01*
X3020Y2966D01*
X3018Y2966D01*
X3018Y2968D01*
X3016Y2968D01*
X3016Y2970D01*
X3014Y2970D01*
X3014Y2972D01*
X3012Y2972D01*
X3012Y2974D01*
X3010Y2974D01*
X3010Y2978D01*
X3008Y2978D01*
X3008Y2980D01*
X3006Y2980D01*
X3006Y2982D01*
X3004Y2982D01*
X3004Y2984D01*
X3002Y2984D01*
X3002Y2986D01*
X3000Y2986D01*
X3000Y2988D01*
X2998Y2988D01*
X2998Y2990D01*
X2996Y2990D01*
X2996Y2992D01*
X2994Y2992D01*
X2994Y2994D01*
X2992Y2994D01*
X2992Y2996D01*
X2990Y2996D01*
X2990Y2998D01*
X2988Y2998D01*
X2988Y3000D01*
X2986Y3000D01*
X2986Y3002D01*
X2984Y3002D01*
X2984Y3004D01*
X2982Y3004D01*
X2982Y3006D01*
X2980Y3006D01*
X2980Y3008D01*
X2978Y3008D01*
X2978Y3010D01*
X2974Y3010D01*
X2974Y3012D01*
X2972Y3012D01*
X2972Y3014D01*
X2970Y3014D01*
X2970Y3016D01*
X2968Y3016D01*
X2968Y3018D01*
X2966Y3018D01*
X2966Y3020D01*
X2964Y3020D01*
X2964Y3022D01*
X2960Y3022D01*
X2960Y3024D01*
X2958Y3024D01*
X2958Y3026D01*
X2956Y3026D01*
X2956Y3028D01*
X2954Y3028D01*
X2954Y3030D01*
X2950Y3030D01*
X2950Y3032D01*
X2948Y3032D01*
X2948Y3034D01*
X2944Y3034D01*
X2944Y3036D01*
X2942Y3036D01*
X2942Y3038D01*
X2940Y3038D01*
X2940Y3040D01*
X2936Y3040D01*
X2936Y3042D01*
X2934Y3042D01*
X2934Y3044D01*
X2930Y3044D01*
X2930Y3046D01*
X2928Y3046D01*
X2928Y3048D01*
X2924Y3048D01*
X2924Y3050D01*
X2920Y3050D01*
X2920Y3052D01*
X2918Y3052D01*
X2918Y3054D01*
X2914Y3054D01*
X2914Y3056D01*
X2910Y3056D01*
X2910Y3058D01*
X2908Y3058D01*
X2908Y3060D01*
X2904Y3060D01*
X2904Y3062D01*
X2900Y3062D01*
X2900Y3064D01*
X2896Y3064D01*
X2896Y3066D01*
X2892Y3066D01*
X2892Y3068D01*
X2888Y3068D01*
X2888Y3070D01*
X2884Y3070D01*
X2884Y3072D01*
X2880Y3072D01*
X2880Y3074D01*
X2876Y3074D01*
X2876Y3076D01*
X2872Y3076D01*
X2872Y3078D01*
X2866Y3078D01*
X2866Y3080D01*
X2862Y3080D01*
X2862Y3082D01*
X2856Y3082D01*
X2856Y3084D01*
X2852Y3084D01*
X2852Y3086D01*
X2846Y3086D01*
X2846Y3088D01*
X2840Y3088D01*
X2840Y3090D01*
X2834Y3090D01*
X2834Y3092D01*
X2828Y3092D01*
X2828Y3094D01*
X2820Y3094D01*
X2820Y3096D01*
X2814Y3096D01*
X2814Y3098D01*
X2806Y3098D01*
X2806Y3100D01*
X2796Y3100D01*
X2796Y3102D01*
X2786Y3102D01*
X2786Y3104D01*
X2776Y3104D01*
X2776Y3106D01*
X2760Y3106D01*
X2760Y3108D01*
X2740Y3108D01*
X2740Y3110D01*
X1720Y3110D01*
G37*
D02*
G36*
X162Y3000D02*
X162Y2998D01*
X160Y2998D01*
X160Y2996D01*
X158Y2996D01*
X158Y2994D01*
X156Y2994D01*
X156Y2992D01*
X154Y2992D01*
X154Y2990D01*
X152Y2990D01*
X152Y2988D01*
X150Y2988D01*
X150Y2986D01*
X148Y2986D01*
X148Y2984D01*
X146Y2984D01*
X146Y2982D01*
X144Y2982D01*
X144Y2980D01*
X142Y2980D01*
X142Y2978D01*
X140Y2978D01*
X140Y2976D01*
X138Y2976D01*
X138Y2974D01*
X136Y2974D01*
X136Y2970D01*
X134Y2970D01*
X134Y2968D01*
X132Y2968D01*
X132Y2966D01*
X130Y2966D01*
X130Y2964D01*
X128Y2964D01*
X128Y2962D01*
X126Y2962D01*
X126Y2958D01*
X124Y2958D01*
X124Y2956D01*
X122Y2956D01*
X122Y2954D01*
X120Y2954D01*
X120Y2950D01*
X118Y2950D01*
X118Y2948D01*
X116Y2948D01*
X116Y2946D01*
X114Y2946D01*
X114Y2942D01*
X112Y2942D01*
X112Y2940D01*
X110Y2940D01*
X110Y2936D01*
X108Y2936D01*
X108Y2934D01*
X106Y2934D01*
X106Y2930D01*
X104Y2930D01*
X104Y2928D01*
X102Y2928D01*
X102Y2924D01*
X100Y2924D01*
X100Y2922D01*
X98Y2922D01*
X98Y2918D01*
X96Y2918D01*
X96Y2914D01*
X94Y2914D01*
X94Y2912D01*
X92Y2912D01*
X92Y2908D01*
X90Y2908D01*
X90Y2904D01*
X88Y2904D01*
X88Y2900D01*
X86Y2900D01*
X86Y2896D01*
X84Y2896D01*
X84Y2892D01*
X82Y2892D01*
X82Y2888D01*
X80Y2888D01*
X80Y2884D01*
X78Y2884D01*
X78Y2880D01*
X76Y2880D01*
X76Y2876D01*
X74Y2876D01*
X74Y2872D01*
X72Y2872D01*
X72Y2868D01*
X70Y2868D01*
X70Y2862D01*
X68Y2862D01*
X68Y2856D01*
X66Y2856D01*
X66Y2852D01*
X64Y2852D01*
X64Y2846D01*
X62Y2846D01*
X62Y2840D01*
X60Y2840D01*
X60Y2834D01*
X58Y2834D01*
X58Y2828D01*
X56Y2828D01*
X56Y2822D01*
X54Y2822D01*
X54Y2814D01*
X52Y2814D01*
X52Y2806D01*
X50Y2806D01*
X50Y2798D01*
X48Y2798D01*
X48Y2788D01*
X46Y2788D01*
X46Y2776D01*
X44Y2776D01*
X44Y2762D01*
X42Y2762D01*
X42Y2740D01*
X40Y2740D01*
X40Y698D01*
X228Y698D01*
X228Y696D01*
X236Y696D01*
X236Y694D01*
X242Y694D01*
X242Y692D01*
X246Y692D01*
X246Y690D01*
X250Y690D01*
X250Y688D01*
X252Y688D01*
X252Y686D01*
X254Y686D01*
X254Y684D01*
X256Y684D01*
X256Y682D01*
X258Y682D01*
X258Y680D01*
X260Y680D01*
X260Y678D01*
X262Y678D01*
X262Y674D01*
X264Y674D01*
X264Y672D01*
X332Y672D01*
X332Y670D01*
X336Y670D01*
X336Y668D01*
X338Y668D01*
X338Y666D01*
X340Y666D01*
X340Y664D01*
X342Y664D01*
X342Y660D01*
X344Y660D01*
X344Y394D01*
X346Y394D01*
X346Y392D01*
X348Y392D01*
X348Y390D01*
X352Y390D01*
X352Y388D01*
X354Y388D01*
X354Y386D01*
X356Y386D01*
X356Y384D01*
X358Y384D01*
X358Y382D01*
X360Y382D01*
X360Y380D01*
X362Y380D01*
X362Y376D01*
X364Y376D01*
X364Y374D01*
X366Y374D01*
X366Y372D01*
X468Y372D01*
X468Y370D01*
X628Y370D01*
X628Y368D01*
X632Y368D01*
X632Y366D01*
X634Y366D01*
X634Y364D01*
X638Y364D01*
X638Y360D01*
X640Y360D01*
X640Y358D01*
X642Y358D01*
X642Y350D01*
X644Y350D01*
X644Y280D01*
X1456Y280D01*
X1456Y282D01*
X1450Y282D01*
X1450Y284D01*
X1444Y284D01*
X1444Y286D01*
X1442Y286D01*
X1442Y288D01*
X1438Y288D01*
X1438Y290D01*
X1436Y290D01*
X1436Y292D01*
X1434Y292D01*
X1434Y294D01*
X1432Y294D01*
X1432Y296D01*
X1430Y296D01*
X1430Y298D01*
X1428Y298D01*
X1428Y300D01*
X1426Y300D01*
X1426Y304D01*
X1424Y304D01*
X1424Y308D01*
X1422Y308D01*
X1422Y314D01*
X1420Y314D01*
X1420Y324D01*
X1418Y324D01*
X1418Y330D01*
X1414Y330D01*
X1414Y332D01*
X1412Y332D01*
X1412Y334D01*
X1408Y334D01*
X1408Y336D01*
X1404Y336D01*
X1404Y338D01*
X1400Y338D01*
X1400Y340D01*
X1398Y340D01*
X1398Y342D01*
X1394Y342D01*
X1394Y344D01*
X1390Y344D01*
X1390Y346D01*
X1386Y346D01*
X1386Y348D01*
X1384Y348D01*
X1384Y350D01*
X1380Y350D01*
X1380Y352D01*
X1376Y352D01*
X1376Y354D01*
X1372Y354D01*
X1372Y356D01*
X1370Y356D01*
X1370Y358D01*
X1366Y358D01*
X1366Y360D01*
X1362Y360D01*
X1362Y362D01*
X1358Y362D01*
X1358Y364D01*
X1356Y364D01*
X1356Y366D01*
X1352Y366D01*
X1352Y368D01*
X1348Y368D01*
X1348Y370D01*
X1344Y370D01*
X1344Y372D01*
X1340Y372D01*
X1340Y374D01*
X1338Y374D01*
X1338Y376D01*
X1334Y376D01*
X1334Y378D01*
X1330Y378D01*
X1330Y380D01*
X1326Y380D01*
X1326Y382D01*
X1324Y382D01*
X1324Y384D01*
X1320Y384D01*
X1320Y386D01*
X1316Y386D01*
X1316Y388D01*
X1312Y388D01*
X1312Y390D01*
X1310Y390D01*
X1310Y392D01*
X1306Y392D01*
X1306Y394D01*
X1302Y394D01*
X1302Y396D01*
X1298Y396D01*
X1298Y398D01*
X1296Y398D01*
X1296Y400D01*
X1292Y400D01*
X1292Y402D01*
X1288Y402D01*
X1288Y404D01*
X1284Y404D01*
X1284Y406D01*
X1282Y406D01*
X1282Y408D01*
X1278Y408D01*
X1278Y410D01*
X1274Y410D01*
X1274Y412D01*
X1270Y412D01*
X1270Y414D01*
X1266Y414D01*
X1266Y416D01*
X1264Y416D01*
X1264Y418D01*
X1260Y418D01*
X1260Y420D01*
X1256Y420D01*
X1256Y422D01*
X1252Y422D01*
X1252Y424D01*
X1250Y424D01*
X1250Y426D01*
X1246Y426D01*
X1246Y428D01*
X1242Y428D01*
X1242Y430D01*
X1238Y430D01*
X1238Y432D01*
X1236Y432D01*
X1236Y434D01*
X1232Y434D01*
X1232Y436D01*
X1228Y436D01*
X1228Y438D01*
X1224Y438D01*
X1224Y440D01*
X1222Y440D01*
X1222Y442D01*
X1218Y442D01*
X1218Y444D01*
X1214Y444D01*
X1214Y446D01*
X1210Y446D01*
X1210Y448D01*
X1208Y448D01*
X1208Y450D01*
X1204Y450D01*
X1204Y452D01*
X1200Y452D01*
X1200Y454D01*
X1196Y454D01*
X1196Y456D01*
X1192Y456D01*
X1192Y458D01*
X1190Y458D01*
X1190Y460D01*
X1186Y460D01*
X1186Y462D01*
X1182Y462D01*
X1182Y464D01*
X1178Y464D01*
X1178Y466D01*
X1176Y466D01*
X1176Y468D01*
X1172Y468D01*
X1172Y470D01*
X1168Y470D01*
X1168Y472D01*
X1164Y472D01*
X1164Y474D01*
X1162Y474D01*
X1162Y476D01*
X1158Y476D01*
X1158Y478D01*
X1154Y478D01*
X1154Y480D01*
X1150Y480D01*
X1150Y482D01*
X1148Y482D01*
X1148Y484D01*
X1144Y484D01*
X1144Y486D01*
X1140Y486D01*
X1140Y488D01*
X1136Y488D01*
X1136Y490D01*
X1132Y490D01*
X1132Y492D01*
X1130Y492D01*
X1130Y494D01*
X1126Y494D01*
X1126Y496D01*
X1122Y496D01*
X1122Y498D01*
X1118Y498D01*
X1118Y500D01*
X1116Y500D01*
X1116Y502D01*
X1112Y502D01*
X1112Y504D01*
X1108Y504D01*
X1108Y506D01*
X1104Y506D01*
X1104Y508D01*
X1102Y508D01*
X1102Y510D01*
X1098Y510D01*
X1098Y512D01*
X1094Y512D01*
X1094Y514D01*
X1090Y514D01*
X1090Y516D01*
X1088Y516D01*
X1088Y518D01*
X1084Y518D01*
X1084Y520D01*
X1080Y520D01*
X1080Y522D01*
X1076Y522D01*
X1076Y524D01*
X1074Y524D01*
X1074Y526D01*
X1070Y526D01*
X1070Y528D01*
X1066Y528D01*
X1066Y530D01*
X1062Y530D01*
X1062Y532D01*
X1058Y532D01*
X1058Y534D01*
X1056Y534D01*
X1056Y536D01*
X1052Y536D01*
X1052Y538D01*
X1048Y538D01*
X1048Y540D01*
X1044Y540D01*
X1044Y542D01*
X1042Y542D01*
X1042Y544D01*
X1038Y544D01*
X1038Y546D01*
X1034Y546D01*
X1034Y548D01*
X1030Y548D01*
X1030Y550D01*
X1028Y550D01*
X1028Y552D01*
X1024Y552D01*
X1024Y554D01*
X1020Y554D01*
X1020Y556D01*
X1016Y556D01*
X1016Y558D01*
X1014Y558D01*
X1014Y560D01*
X1010Y560D01*
X1010Y562D01*
X1006Y562D01*
X1006Y564D01*
X1002Y564D01*
X1002Y566D01*
X1000Y566D01*
X1000Y568D01*
X996Y568D01*
X996Y570D01*
X992Y570D01*
X992Y572D01*
X988Y572D01*
X988Y574D01*
X984Y574D01*
X984Y576D01*
X982Y576D01*
X982Y578D01*
X978Y578D01*
X978Y580D01*
X974Y580D01*
X974Y582D01*
X970Y582D01*
X970Y584D01*
X968Y584D01*
X968Y586D01*
X964Y586D01*
X964Y588D01*
X960Y588D01*
X960Y590D01*
X956Y590D01*
X956Y592D01*
X954Y592D01*
X954Y594D01*
X950Y594D01*
X950Y596D01*
X946Y596D01*
X946Y598D01*
X942Y598D01*
X942Y600D01*
X940Y600D01*
X940Y602D01*
X936Y602D01*
X936Y604D01*
X932Y604D01*
X932Y606D01*
X928Y606D01*
X928Y608D01*
X926Y608D01*
X926Y610D01*
X922Y610D01*
X922Y612D01*
X918Y612D01*
X918Y614D01*
X914Y614D01*
X914Y616D01*
X910Y616D01*
X910Y618D01*
X908Y618D01*
X908Y620D01*
X904Y620D01*
X904Y622D01*
X900Y622D01*
X900Y624D01*
X896Y624D01*
X896Y626D01*
X894Y626D01*
X894Y628D01*
X890Y628D01*
X890Y630D01*
X886Y630D01*
X886Y632D01*
X882Y632D01*
X882Y634D01*
X880Y634D01*
X880Y636D01*
X876Y636D01*
X876Y638D01*
X872Y638D01*
X872Y640D01*
X868Y640D01*
X868Y642D01*
X866Y642D01*
X866Y644D01*
X862Y644D01*
X862Y646D01*
X858Y646D01*
X858Y648D01*
X854Y648D01*
X854Y650D01*
X852Y650D01*
X852Y652D01*
X848Y652D01*
X848Y654D01*
X844Y654D01*
X844Y656D01*
X840Y656D01*
X840Y658D01*
X836Y658D01*
X836Y660D01*
X834Y660D01*
X834Y662D01*
X830Y662D01*
X830Y664D01*
X826Y664D01*
X826Y666D01*
X822Y666D01*
X822Y668D01*
X820Y668D01*
X820Y670D01*
X816Y670D01*
X816Y672D01*
X812Y672D01*
X812Y674D01*
X808Y674D01*
X808Y676D01*
X806Y676D01*
X806Y678D01*
X802Y678D01*
X802Y680D01*
X798Y680D01*
X798Y682D01*
X794Y682D01*
X794Y684D01*
X792Y684D01*
X792Y686D01*
X788Y686D01*
X788Y688D01*
X784Y688D01*
X784Y690D01*
X780Y690D01*
X780Y692D01*
X776Y692D01*
X776Y694D01*
X774Y694D01*
X774Y696D01*
X770Y696D01*
X770Y698D01*
X766Y698D01*
X766Y700D01*
X762Y700D01*
X762Y702D01*
X760Y702D01*
X760Y704D01*
X756Y704D01*
X756Y706D01*
X752Y706D01*
X752Y708D01*
X748Y708D01*
X748Y710D01*
X746Y710D01*
X746Y712D01*
X742Y712D01*
X742Y714D01*
X738Y714D01*
X738Y716D01*
X734Y716D01*
X734Y718D01*
X732Y718D01*
X732Y720D01*
X728Y720D01*
X728Y722D01*
X724Y722D01*
X724Y724D01*
X720Y724D01*
X720Y726D01*
X416Y726D01*
X416Y728D01*
X410Y728D01*
X410Y730D01*
X408Y730D01*
X408Y732D01*
X406Y732D01*
X406Y734D01*
X404Y734D01*
X404Y736D01*
X402Y736D01*
X402Y740D01*
X400Y740D01*
X400Y746D01*
X398Y746D01*
X398Y1044D01*
X400Y1044D01*
X400Y2808D01*
X396Y2808D01*
X396Y2810D01*
X392Y2810D01*
X392Y2812D01*
X390Y2812D01*
X390Y2814D01*
X388Y2814D01*
X388Y2816D01*
X386Y2816D01*
X386Y2818D01*
X384Y2818D01*
X384Y2820D01*
X382Y2820D01*
X382Y2824D01*
X380Y2824D01*
X380Y2828D01*
X378Y2828D01*
X378Y2832D01*
X376Y2832D01*
X376Y2838D01*
X374Y2838D01*
X374Y2862D01*
X376Y2862D01*
X376Y2868D01*
X378Y2868D01*
X378Y2872D01*
X380Y2872D01*
X380Y2876D01*
X382Y2876D01*
X382Y2880D01*
X384Y2880D01*
X384Y2900D01*
X374Y2900D01*
X374Y3000D01*
X162Y3000D01*
G37*
D02*
G36*
X444Y2778D02*
X444Y2776D01*
X3104Y2776D01*
X3104Y2778D01*
X444Y2778D01*
G37*
D02*
G36*
X444Y2778D02*
X444Y2776D01*
X3104Y2776D01*
X3104Y2778D01*
X444Y2778D01*
G37*
D02*
G36*
X444Y2776D02*
X444Y2400D01*
X974Y2400D01*
X974Y2398D01*
X984Y2398D01*
X984Y2396D01*
X988Y2396D01*
X988Y2394D01*
X992Y2394D01*
X992Y2392D01*
X996Y2392D01*
X996Y2390D01*
X998Y2390D01*
X998Y2388D01*
X1000Y2388D01*
X1000Y2386D01*
X1002Y2386D01*
X1002Y2384D01*
X1004Y2384D01*
X1004Y2382D01*
X1006Y2382D01*
X1006Y2378D01*
X1008Y2378D01*
X1008Y2374D01*
X1010Y2374D01*
X1010Y2368D01*
X1012Y2368D01*
X1012Y2348D01*
X1010Y2348D01*
X1010Y2342D01*
X1008Y2342D01*
X1008Y2338D01*
X1006Y2338D01*
X1006Y2334D01*
X1004Y2334D01*
X1004Y2332D01*
X1002Y2332D01*
X1002Y2330D01*
X1000Y2330D01*
X1000Y2328D01*
X998Y2328D01*
X998Y2326D01*
X996Y2326D01*
X996Y2324D01*
X994Y2324D01*
X994Y2322D01*
X990Y2322D01*
X990Y2320D01*
X986Y2320D01*
X986Y2300D01*
X1012Y2300D01*
X1012Y2282D01*
X1028Y2282D01*
X1028Y2280D01*
X1396Y2280D01*
X1396Y2278D01*
X1764Y2278D01*
X1764Y2276D01*
X2132Y2276D01*
X2132Y2274D01*
X2500Y2274D01*
X2500Y2272D01*
X2868Y2272D01*
X2868Y2270D01*
X2930Y2270D01*
X2930Y2268D01*
X2934Y2268D01*
X2934Y2266D01*
X2938Y2266D01*
X2938Y2264D01*
X2940Y2264D01*
X2940Y2260D01*
X2942Y2260D01*
X2942Y2256D01*
X2944Y2256D01*
X2944Y792D01*
X2946Y792D01*
X2946Y790D01*
X2950Y790D01*
X2950Y788D01*
X2952Y788D01*
X2952Y786D01*
X2954Y786D01*
X2954Y784D01*
X2956Y784D01*
X2956Y782D01*
X2958Y782D01*
X2958Y780D01*
X2960Y780D01*
X2960Y778D01*
X2962Y778D01*
X2962Y774D01*
X2964Y774D01*
X2964Y770D01*
X2966Y770D01*
X2966Y766D01*
X2968Y766D01*
X2968Y758D01*
X2970Y758D01*
X2970Y742D01*
X2968Y742D01*
X2968Y734D01*
X2966Y734D01*
X2966Y730D01*
X2964Y730D01*
X2964Y726D01*
X2962Y726D01*
X2962Y722D01*
X2960Y722D01*
X2960Y720D01*
X2958Y720D01*
X2958Y718D01*
X2956Y718D01*
X2956Y716D01*
X2954Y716D01*
X2954Y714D01*
X2952Y714D01*
X2952Y712D01*
X2950Y712D01*
X2950Y710D01*
X2946Y710D01*
X2946Y708D01*
X2942Y708D01*
X2942Y706D01*
X2936Y706D01*
X2936Y704D01*
X2928Y704D01*
X2928Y702D01*
X3108Y702D01*
X3108Y2758D01*
X3106Y2758D01*
X3106Y2774D01*
X3104Y2774D01*
X3104Y2776D01*
X444Y2776D01*
G37*
D02*
G36*
X444Y2400D02*
X444Y2218D01*
X930Y2218D01*
X930Y2300D01*
X956Y2300D01*
X956Y2320D01*
X952Y2320D01*
X952Y2322D01*
X948Y2322D01*
X948Y2324D01*
X946Y2324D01*
X946Y2326D01*
X944Y2326D01*
X944Y2328D01*
X942Y2328D01*
X942Y2330D01*
X940Y2330D01*
X940Y2332D01*
X938Y2332D01*
X938Y2334D01*
X936Y2334D01*
X936Y2338D01*
X934Y2338D01*
X934Y2342D01*
X932Y2342D01*
X932Y2348D01*
X930Y2348D01*
X930Y2368D01*
X932Y2368D01*
X932Y2374D01*
X934Y2374D01*
X934Y2378D01*
X936Y2378D01*
X936Y2382D01*
X938Y2382D01*
X938Y2384D01*
X940Y2384D01*
X940Y2386D01*
X942Y2386D01*
X942Y2388D01*
X944Y2388D01*
X944Y2390D01*
X946Y2390D01*
X946Y2392D01*
X950Y2392D01*
X950Y2394D01*
X954Y2394D01*
X954Y2396D01*
X958Y2396D01*
X958Y2398D01*
X968Y2398D01*
X968Y2400D01*
X444Y2400D01*
G37*
D02*
G36*
X1012Y2238D02*
X1012Y2218D01*
X2900Y2218D01*
X2900Y2226D01*
X2864Y2226D01*
X2864Y2228D01*
X2498Y2228D01*
X2498Y2230D01*
X2132Y2230D01*
X2132Y2232D01*
X1764Y2232D01*
X1764Y2234D01*
X1398Y2234D01*
X1398Y2236D01*
X1032Y2236D01*
X1032Y2238D01*
X1012Y2238D01*
G37*
D02*
G36*
X444Y2218D02*
X444Y2216D01*
X2900Y2216D01*
X2900Y2218D01*
X444Y2218D01*
G37*
D02*
G36*
X444Y2218D02*
X444Y2216D01*
X2900Y2216D01*
X2900Y2218D01*
X444Y2218D01*
G37*
D02*
G36*
X444Y2216D02*
X444Y1030D01*
X442Y1030D01*
X442Y798D01*
X2528Y798D01*
X2528Y796D01*
X2536Y796D01*
X2536Y794D01*
X2542Y794D01*
X2542Y792D01*
X2546Y792D01*
X2546Y790D01*
X2550Y790D01*
X2550Y788D01*
X2552Y788D01*
X2552Y786D01*
X2554Y786D01*
X2554Y784D01*
X2556Y784D01*
X2556Y782D01*
X2558Y782D01*
X2558Y780D01*
X2560Y780D01*
X2560Y778D01*
X2562Y778D01*
X2562Y774D01*
X2564Y774D01*
X2564Y770D01*
X2566Y770D01*
X2566Y766D01*
X2568Y766D01*
X2568Y758D01*
X2570Y758D01*
X2570Y742D01*
X2568Y742D01*
X2568Y734D01*
X2566Y734D01*
X2566Y730D01*
X2564Y730D01*
X2564Y726D01*
X2562Y726D01*
X2562Y722D01*
X2560Y722D01*
X2560Y720D01*
X2558Y720D01*
X2558Y718D01*
X2556Y718D01*
X2556Y716D01*
X2554Y716D01*
X2554Y714D01*
X2552Y714D01*
X2552Y712D01*
X2550Y712D01*
X2550Y710D01*
X2546Y710D01*
X2546Y708D01*
X2542Y708D01*
X2542Y706D01*
X2536Y706D01*
X2536Y704D01*
X2528Y704D01*
X2528Y702D01*
X2916Y702D01*
X2916Y704D01*
X2908Y704D01*
X2908Y706D01*
X2902Y706D01*
X2902Y708D01*
X2898Y708D01*
X2898Y710D01*
X2896Y710D01*
X2896Y712D01*
X2892Y712D01*
X2892Y714D01*
X2890Y714D01*
X2890Y716D01*
X2888Y716D01*
X2888Y718D01*
X2886Y718D01*
X2886Y720D01*
X2884Y720D01*
X2884Y724D01*
X2882Y724D01*
X2882Y726D01*
X2880Y726D01*
X2880Y730D01*
X2878Y730D01*
X2878Y736D01*
X2876Y736D01*
X2876Y746D01*
X2874Y746D01*
X2874Y754D01*
X2876Y754D01*
X2876Y764D01*
X2878Y764D01*
X2878Y770D01*
X2880Y770D01*
X2880Y774D01*
X2882Y774D01*
X2882Y776D01*
X2884Y776D01*
X2884Y780D01*
X2886Y780D01*
X2886Y782D01*
X2888Y782D01*
X2888Y784D01*
X2890Y784D01*
X2890Y786D01*
X2892Y786D01*
X2892Y788D01*
X2896Y788D01*
X2896Y790D01*
X2898Y790D01*
X2898Y792D01*
X2900Y792D01*
X2900Y2216D01*
X444Y2216D01*
G37*
D02*
G36*
X442Y798D02*
X442Y770D01*
X732Y770D01*
X732Y768D01*
X736Y768D01*
X736Y766D01*
X740Y766D01*
X740Y764D01*
X742Y764D01*
X742Y762D01*
X746Y762D01*
X746Y760D01*
X750Y760D01*
X750Y758D01*
X754Y758D01*
X754Y756D01*
X756Y756D01*
X756Y754D01*
X760Y754D01*
X760Y752D01*
X764Y752D01*
X764Y750D01*
X768Y750D01*
X768Y748D01*
X772Y748D01*
X772Y746D01*
X774Y746D01*
X774Y744D01*
X778Y744D01*
X778Y742D01*
X782Y742D01*
X782Y740D01*
X786Y740D01*
X786Y738D01*
X788Y738D01*
X788Y736D01*
X792Y736D01*
X792Y734D01*
X796Y734D01*
X796Y732D01*
X800Y732D01*
X800Y730D01*
X802Y730D01*
X802Y728D01*
X806Y728D01*
X806Y726D01*
X810Y726D01*
X810Y724D01*
X814Y724D01*
X814Y722D01*
X816Y722D01*
X816Y720D01*
X820Y720D01*
X820Y718D01*
X824Y718D01*
X824Y716D01*
X828Y716D01*
X828Y714D01*
X830Y714D01*
X830Y712D01*
X834Y712D01*
X834Y710D01*
X838Y710D01*
X838Y708D01*
X842Y708D01*
X842Y706D01*
X846Y706D01*
X846Y704D01*
X848Y704D01*
X848Y702D01*
X852Y702D01*
X852Y700D01*
X856Y700D01*
X856Y698D01*
X860Y698D01*
X860Y696D01*
X862Y696D01*
X862Y694D01*
X866Y694D01*
X866Y692D01*
X870Y692D01*
X870Y690D01*
X874Y690D01*
X874Y688D01*
X876Y688D01*
X876Y686D01*
X880Y686D01*
X880Y684D01*
X884Y684D01*
X884Y682D01*
X888Y682D01*
X888Y680D01*
X890Y680D01*
X890Y678D01*
X894Y678D01*
X894Y676D01*
X898Y676D01*
X898Y674D01*
X902Y674D01*
X902Y672D01*
X904Y672D01*
X904Y670D01*
X908Y670D01*
X908Y668D01*
X912Y668D01*
X912Y666D01*
X916Y666D01*
X916Y664D01*
X920Y664D01*
X920Y662D01*
X922Y662D01*
X922Y660D01*
X926Y660D01*
X926Y658D01*
X930Y658D01*
X930Y656D01*
X934Y656D01*
X934Y654D01*
X936Y654D01*
X936Y652D01*
X940Y652D01*
X940Y650D01*
X944Y650D01*
X944Y648D01*
X948Y648D01*
X948Y646D01*
X950Y646D01*
X950Y644D01*
X954Y644D01*
X954Y642D01*
X958Y642D01*
X958Y640D01*
X962Y640D01*
X962Y638D01*
X964Y638D01*
X964Y636D01*
X968Y636D01*
X968Y634D01*
X972Y634D01*
X972Y632D01*
X976Y632D01*
X976Y630D01*
X978Y630D01*
X978Y628D01*
X982Y628D01*
X982Y626D01*
X986Y626D01*
X986Y624D01*
X990Y624D01*
X990Y622D01*
X994Y622D01*
X994Y620D01*
X996Y620D01*
X996Y618D01*
X1000Y618D01*
X1000Y616D01*
X1004Y616D01*
X1004Y614D01*
X1008Y614D01*
X1008Y612D01*
X1010Y612D01*
X1010Y610D01*
X1014Y610D01*
X1014Y608D01*
X1018Y608D01*
X1018Y606D01*
X1022Y606D01*
X1022Y604D01*
X1024Y604D01*
X1024Y602D01*
X1028Y602D01*
X1028Y600D01*
X1032Y600D01*
X1032Y598D01*
X1036Y598D01*
X1036Y596D01*
X1038Y596D01*
X1038Y594D01*
X1042Y594D01*
X1042Y592D01*
X1046Y592D01*
X1046Y590D01*
X1050Y590D01*
X1050Y588D01*
X1054Y588D01*
X1054Y586D01*
X1056Y586D01*
X1056Y584D01*
X1060Y584D01*
X1060Y582D01*
X1064Y582D01*
X1064Y580D01*
X1068Y580D01*
X1068Y578D01*
X1070Y578D01*
X1070Y576D01*
X1074Y576D01*
X1074Y574D01*
X1078Y574D01*
X1078Y572D01*
X1082Y572D01*
X1082Y570D01*
X1084Y570D01*
X1084Y568D01*
X1088Y568D01*
X1088Y566D01*
X1092Y566D01*
X1092Y564D01*
X1096Y564D01*
X1096Y562D01*
X1098Y562D01*
X1098Y560D01*
X1102Y560D01*
X1102Y558D01*
X1106Y558D01*
X1106Y556D01*
X1110Y556D01*
X1110Y554D01*
X1112Y554D01*
X1112Y552D01*
X1116Y552D01*
X1116Y550D01*
X1120Y550D01*
X1120Y548D01*
X1124Y548D01*
X1124Y546D01*
X1128Y546D01*
X1128Y544D01*
X1130Y544D01*
X1130Y542D01*
X1134Y542D01*
X1134Y540D01*
X1138Y540D01*
X1138Y538D01*
X1142Y538D01*
X1142Y536D01*
X1144Y536D01*
X1144Y534D01*
X1148Y534D01*
X1148Y532D01*
X1152Y532D01*
X1152Y530D01*
X1156Y530D01*
X1156Y528D01*
X1158Y528D01*
X1158Y526D01*
X1162Y526D01*
X1162Y524D01*
X1166Y524D01*
X1166Y522D01*
X1170Y522D01*
X1170Y520D01*
X1172Y520D01*
X1172Y518D01*
X1176Y518D01*
X1176Y516D01*
X1180Y516D01*
X1180Y514D01*
X1184Y514D01*
X1184Y512D01*
X1186Y512D01*
X1186Y510D01*
X1190Y510D01*
X1190Y508D01*
X1194Y508D01*
X1194Y506D01*
X1198Y506D01*
X1198Y504D01*
X1202Y504D01*
X1202Y502D01*
X1204Y502D01*
X1204Y500D01*
X1208Y500D01*
X1208Y498D01*
X1212Y498D01*
X1212Y496D01*
X1216Y496D01*
X1216Y494D01*
X1218Y494D01*
X1218Y492D01*
X1222Y492D01*
X1222Y490D01*
X1226Y490D01*
X1226Y488D01*
X1230Y488D01*
X1230Y486D01*
X1232Y486D01*
X1232Y484D01*
X1236Y484D01*
X1236Y482D01*
X1240Y482D01*
X1240Y480D01*
X1244Y480D01*
X1244Y478D01*
X1246Y478D01*
X1246Y476D01*
X1250Y476D01*
X1250Y474D01*
X1254Y474D01*
X1254Y472D01*
X1258Y472D01*
X1258Y470D01*
X1260Y470D01*
X1260Y468D01*
X1264Y468D01*
X1264Y466D01*
X1268Y466D01*
X1268Y464D01*
X1272Y464D01*
X1272Y462D01*
X1276Y462D01*
X1276Y460D01*
X1278Y460D01*
X1278Y458D01*
X1282Y458D01*
X1282Y456D01*
X1286Y456D01*
X1286Y454D01*
X1290Y454D01*
X1290Y452D01*
X1292Y452D01*
X1292Y450D01*
X1296Y450D01*
X1296Y448D01*
X1300Y448D01*
X1300Y446D01*
X1304Y446D01*
X1304Y444D01*
X1306Y444D01*
X1306Y442D01*
X1310Y442D01*
X1310Y440D01*
X1314Y440D01*
X1314Y438D01*
X1318Y438D01*
X1318Y436D01*
X1320Y436D01*
X1320Y434D01*
X1324Y434D01*
X1324Y432D01*
X1328Y432D01*
X1328Y430D01*
X1332Y430D01*
X1332Y428D01*
X1334Y428D01*
X1334Y426D01*
X1338Y426D01*
X1338Y424D01*
X1342Y424D01*
X1342Y422D01*
X1346Y422D01*
X1346Y420D01*
X1350Y420D01*
X1350Y418D01*
X1352Y418D01*
X1352Y416D01*
X1356Y416D01*
X1356Y414D01*
X1360Y414D01*
X1360Y412D01*
X1364Y412D01*
X1364Y410D01*
X1366Y410D01*
X1366Y408D01*
X1370Y408D01*
X1370Y406D01*
X1374Y406D01*
X1374Y404D01*
X1378Y404D01*
X1378Y402D01*
X1380Y402D01*
X1380Y400D01*
X1384Y400D01*
X1384Y398D01*
X1388Y398D01*
X1388Y396D01*
X1392Y396D01*
X1392Y394D01*
X1394Y394D01*
X1394Y392D01*
X1398Y392D01*
X1398Y390D01*
X1402Y390D01*
X1402Y388D01*
X1406Y388D01*
X1406Y386D01*
X1410Y386D01*
X1410Y384D01*
X1412Y384D01*
X1412Y382D01*
X1416Y382D01*
X1416Y380D01*
X1420Y380D01*
X1420Y378D01*
X1424Y378D01*
X1424Y376D01*
X1426Y376D01*
X1426Y374D01*
X1734Y374D01*
X1734Y372D01*
X1740Y372D01*
X1740Y370D01*
X1744Y370D01*
X1744Y368D01*
X1748Y368D01*
X1748Y366D01*
X1750Y366D01*
X1750Y364D01*
X1754Y364D01*
X1754Y362D01*
X1756Y362D01*
X1756Y360D01*
X1758Y360D01*
X1758Y356D01*
X1760Y356D01*
X1760Y354D01*
X1762Y354D01*
X1762Y350D01*
X1764Y350D01*
X1764Y348D01*
X1766Y348D01*
X1766Y342D01*
X1768Y342D01*
X1768Y334D01*
X1770Y334D01*
X1770Y320D01*
X1768Y320D01*
X1768Y312D01*
X1766Y312D01*
X1766Y306D01*
X1764Y306D01*
X1764Y304D01*
X1762Y304D01*
X1762Y300D01*
X1760Y300D01*
X1760Y298D01*
X1758Y298D01*
X1758Y296D01*
X1756Y296D01*
X1756Y292D01*
X1752Y292D01*
X1752Y290D01*
X1750Y290D01*
X1750Y288D01*
X1748Y288D01*
X1748Y286D01*
X1744Y286D01*
X1744Y284D01*
X1740Y284D01*
X1740Y282D01*
X1732Y282D01*
X1732Y280D01*
X2184Y280D01*
X2184Y282D01*
X2186Y282D01*
X2186Y284D01*
X2188Y284D01*
X2188Y286D01*
X2190Y286D01*
X2190Y288D01*
X2192Y288D01*
X2192Y290D01*
X2196Y290D01*
X2196Y310D01*
X2192Y310D01*
X2192Y312D01*
X2190Y312D01*
X2190Y314D01*
X2188Y314D01*
X2188Y316D01*
X2186Y316D01*
X2186Y318D01*
X2184Y318D01*
X2184Y322D01*
X2182Y322D01*
X2182Y324D01*
X2180Y324D01*
X2180Y328D01*
X2178Y328D01*
X2178Y332D01*
X2176Y332D01*
X2176Y338D01*
X2174Y338D01*
X2174Y362D01*
X2176Y362D01*
X2176Y368D01*
X2178Y368D01*
X2178Y372D01*
X2180Y372D01*
X2180Y376D01*
X2182Y376D01*
X2182Y380D01*
X2184Y380D01*
X2184Y382D01*
X2186Y382D01*
X2186Y384D01*
X2188Y384D01*
X2188Y386D01*
X2190Y386D01*
X2190Y388D01*
X2192Y388D01*
X2192Y390D01*
X2196Y390D01*
X2196Y392D01*
X2200Y392D01*
X2200Y452D01*
X2202Y452D01*
X2202Y556D01*
X2204Y556D01*
X2204Y560D01*
X2206Y560D01*
X2206Y562D01*
X2208Y562D01*
X2208Y564D01*
X2210Y564D01*
X2210Y566D01*
X2212Y566D01*
X2212Y568D01*
X2216Y568D01*
X2216Y570D01*
X2218Y570D01*
X2218Y572D01*
X2222Y572D01*
X2222Y574D01*
X2224Y574D01*
X2224Y576D01*
X2226Y576D01*
X2226Y578D01*
X2230Y578D01*
X2230Y580D01*
X2232Y580D01*
X2232Y582D01*
X2236Y582D01*
X2236Y584D01*
X2238Y584D01*
X2238Y586D01*
X2242Y586D01*
X2242Y588D01*
X2244Y588D01*
X2244Y590D01*
X2248Y590D01*
X2248Y592D01*
X2250Y592D01*
X2250Y594D01*
X2254Y594D01*
X2254Y596D01*
X2256Y596D01*
X2256Y598D01*
X2260Y598D01*
X2260Y600D01*
X2262Y600D01*
X2262Y602D01*
X2266Y602D01*
X2266Y604D01*
X2268Y604D01*
X2268Y606D01*
X2272Y606D01*
X2272Y608D01*
X2274Y608D01*
X2274Y610D01*
X2278Y610D01*
X2278Y612D01*
X2280Y612D01*
X2280Y614D01*
X2284Y614D01*
X2284Y616D01*
X2286Y616D01*
X2286Y618D01*
X2290Y618D01*
X2290Y620D01*
X2292Y620D01*
X2292Y622D01*
X2296Y622D01*
X2296Y624D01*
X2298Y624D01*
X2298Y626D01*
X2300Y626D01*
X2300Y628D01*
X2304Y628D01*
X2304Y630D01*
X2306Y630D01*
X2306Y632D01*
X2310Y632D01*
X2310Y634D01*
X2312Y634D01*
X2312Y636D01*
X2316Y636D01*
X2316Y638D01*
X2318Y638D01*
X2318Y640D01*
X2322Y640D01*
X2322Y642D01*
X2324Y642D01*
X2324Y644D01*
X2328Y644D01*
X2328Y646D01*
X2330Y646D01*
X2330Y648D01*
X2334Y648D01*
X2334Y650D01*
X2336Y650D01*
X2336Y652D01*
X2340Y652D01*
X2340Y654D01*
X2342Y654D01*
X2342Y656D01*
X2346Y656D01*
X2346Y658D01*
X2348Y658D01*
X2348Y660D01*
X2352Y660D01*
X2352Y662D01*
X2354Y662D01*
X2354Y664D01*
X2358Y664D01*
X2358Y666D01*
X2360Y666D01*
X2360Y668D01*
X2364Y668D01*
X2364Y670D01*
X2366Y670D01*
X2366Y672D01*
X2368Y672D01*
X2368Y674D01*
X2372Y674D01*
X2372Y676D01*
X2374Y676D01*
X2374Y678D01*
X2378Y678D01*
X2378Y680D01*
X2380Y680D01*
X2380Y682D01*
X2384Y682D01*
X2384Y684D01*
X2386Y684D01*
X2386Y686D01*
X2390Y686D01*
X2390Y688D01*
X2392Y688D01*
X2392Y690D01*
X2396Y690D01*
X2396Y692D01*
X2398Y692D01*
X2398Y694D01*
X2402Y694D01*
X2402Y696D01*
X2404Y696D01*
X2404Y698D01*
X2408Y698D01*
X2408Y700D01*
X2410Y700D01*
X2410Y702D01*
X2414Y702D01*
X2414Y704D01*
X2416Y704D01*
X2416Y706D01*
X2420Y706D01*
X2420Y708D01*
X2422Y708D01*
X2422Y710D01*
X2426Y710D01*
X2426Y712D01*
X2428Y712D01*
X2428Y714D01*
X2432Y714D01*
X2432Y716D01*
X2434Y716D01*
X2434Y718D01*
X2438Y718D01*
X2438Y720D01*
X2440Y720D01*
X2440Y722D01*
X2442Y722D01*
X2442Y724D01*
X2446Y724D01*
X2446Y726D01*
X2448Y726D01*
X2448Y728D01*
X2452Y728D01*
X2452Y730D01*
X2454Y730D01*
X2454Y732D01*
X2458Y732D01*
X2458Y734D01*
X2460Y734D01*
X2460Y736D01*
X2464Y736D01*
X2464Y738D01*
X2466Y738D01*
X2466Y740D01*
X2470Y740D01*
X2470Y742D01*
X2472Y742D01*
X2472Y744D01*
X2474Y744D01*
X2474Y754D01*
X2476Y754D01*
X2476Y764D01*
X2478Y764D01*
X2478Y770D01*
X2480Y770D01*
X2480Y774D01*
X2482Y774D01*
X2482Y776D01*
X2484Y776D01*
X2484Y780D01*
X2486Y780D01*
X2486Y782D01*
X2488Y782D01*
X2488Y784D01*
X2490Y784D01*
X2490Y786D01*
X2492Y786D01*
X2492Y788D01*
X2496Y788D01*
X2496Y790D01*
X2498Y790D01*
X2498Y792D01*
X2502Y792D01*
X2502Y794D01*
X2508Y794D01*
X2508Y796D01*
X2516Y796D01*
X2516Y798D01*
X442Y798D01*
G37*
D02*
G36*
X2492Y704D02*
X2492Y702D01*
X2516Y702D01*
X2516Y704D01*
X2492Y704D01*
G37*
D02*
G36*
X2490Y702D02*
X2490Y700D01*
X3108Y700D01*
X3108Y702D01*
X2490Y702D01*
G37*
D02*
G36*
X2490Y702D02*
X2490Y700D01*
X3108Y700D01*
X3108Y702D01*
X2490Y702D01*
G37*
D02*
G36*
X2490Y702D02*
X2490Y700D01*
X3108Y700D01*
X3108Y702D01*
X2490Y702D01*
G37*
D02*
G36*
X2486Y700D02*
X2486Y698D01*
X2484Y698D01*
X2484Y696D01*
X2480Y696D01*
X2480Y694D01*
X2478Y694D01*
X2478Y692D01*
X2474Y692D01*
X2474Y690D01*
X2472Y690D01*
X2472Y688D01*
X2468Y688D01*
X2468Y686D01*
X2466Y686D01*
X2466Y684D01*
X2462Y684D01*
X2462Y682D01*
X2460Y682D01*
X2460Y680D01*
X2456Y680D01*
X2456Y678D01*
X2454Y678D01*
X2454Y676D01*
X2450Y676D01*
X2450Y674D01*
X2448Y674D01*
X2448Y672D01*
X2444Y672D01*
X2444Y670D01*
X2442Y670D01*
X2442Y668D01*
X2438Y668D01*
X2438Y666D01*
X2436Y666D01*
X2436Y664D01*
X2432Y664D01*
X2432Y662D01*
X2430Y662D01*
X2430Y660D01*
X2426Y660D01*
X2426Y658D01*
X2424Y658D01*
X2424Y656D01*
X2420Y656D01*
X2420Y654D01*
X2418Y654D01*
X2418Y652D01*
X2416Y652D01*
X2416Y650D01*
X2412Y650D01*
X2412Y648D01*
X2410Y648D01*
X2410Y646D01*
X2406Y646D01*
X2406Y644D01*
X2404Y644D01*
X2404Y642D01*
X2400Y642D01*
X2400Y640D01*
X2398Y640D01*
X2398Y638D01*
X2394Y638D01*
X2394Y636D01*
X2392Y636D01*
X2392Y634D01*
X2388Y634D01*
X2388Y632D01*
X2386Y632D01*
X2386Y630D01*
X2382Y630D01*
X2382Y628D01*
X2380Y628D01*
X2380Y626D01*
X2376Y626D01*
X2376Y624D01*
X2374Y624D01*
X2374Y622D01*
X2370Y622D01*
X2370Y620D01*
X2368Y620D01*
X2368Y618D01*
X2364Y618D01*
X2364Y616D01*
X2362Y616D01*
X2362Y614D01*
X2358Y614D01*
X2358Y612D01*
X2356Y612D01*
X2356Y610D01*
X2352Y610D01*
X2352Y608D01*
X2350Y608D01*
X2350Y606D01*
X2346Y606D01*
X2346Y604D01*
X2344Y604D01*
X2344Y602D01*
X2342Y602D01*
X2342Y600D01*
X2338Y600D01*
X2338Y598D01*
X2336Y598D01*
X2336Y596D01*
X2332Y596D01*
X2332Y594D01*
X2330Y594D01*
X2330Y592D01*
X2326Y592D01*
X2326Y590D01*
X2324Y590D01*
X2324Y588D01*
X2320Y588D01*
X2320Y586D01*
X2318Y586D01*
X2318Y584D01*
X2314Y584D01*
X2314Y582D01*
X2312Y582D01*
X2312Y580D01*
X2308Y580D01*
X2308Y578D01*
X2306Y578D01*
X2306Y576D01*
X2302Y576D01*
X2302Y574D01*
X2300Y574D01*
X2300Y572D01*
X2296Y572D01*
X2296Y570D01*
X2294Y570D01*
X2294Y568D01*
X2290Y568D01*
X2290Y566D01*
X2288Y566D01*
X2288Y564D01*
X2284Y564D01*
X2284Y562D01*
X2282Y562D01*
X2282Y560D01*
X2278Y560D01*
X2278Y558D01*
X2276Y558D01*
X2276Y556D01*
X2274Y556D01*
X2274Y554D01*
X2270Y554D01*
X2270Y552D01*
X2268Y552D01*
X2268Y550D01*
X2264Y550D01*
X2264Y548D01*
X2262Y548D01*
X2262Y546D01*
X2258Y546D01*
X2258Y544D01*
X2256Y544D01*
X2256Y542D01*
X2252Y542D01*
X2252Y540D01*
X2250Y540D01*
X2250Y538D01*
X2246Y538D01*
X2246Y450D01*
X2244Y450D01*
X2244Y394D01*
X2246Y394D01*
X2246Y392D01*
X2248Y392D01*
X2248Y390D01*
X2252Y390D01*
X2252Y388D01*
X2254Y388D01*
X2254Y386D01*
X2256Y386D01*
X2256Y384D01*
X2258Y384D01*
X2258Y382D01*
X2260Y382D01*
X2260Y380D01*
X2262Y380D01*
X2262Y376D01*
X2264Y376D01*
X2264Y374D01*
X2266Y374D01*
X2266Y370D01*
X2268Y370D01*
X2268Y364D01*
X2270Y364D01*
X2270Y354D01*
X2272Y354D01*
X2272Y346D01*
X2270Y346D01*
X2270Y336D01*
X2268Y336D01*
X2268Y330D01*
X2266Y330D01*
X2266Y326D01*
X2264Y326D01*
X2264Y324D01*
X2262Y324D01*
X2262Y320D01*
X2260Y320D01*
X2260Y318D01*
X2258Y318D01*
X2258Y316D01*
X2256Y316D01*
X2256Y314D01*
X2254Y314D01*
X2254Y312D01*
X2252Y312D01*
X2252Y310D01*
X2248Y310D01*
X2248Y290D01*
X2252Y290D01*
X2252Y288D01*
X2254Y288D01*
X2254Y286D01*
X2256Y286D01*
X2256Y284D01*
X2258Y284D01*
X2258Y282D01*
X2260Y282D01*
X2260Y280D01*
X2262Y280D01*
X2262Y276D01*
X2264Y276D01*
X2264Y274D01*
X2266Y274D01*
X2266Y270D01*
X2268Y270D01*
X2268Y264D01*
X2270Y264D01*
X2270Y254D01*
X2272Y254D01*
X2272Y246D01*
X2270Y246D01*
X2270Y236D01*
X2268Y236D01*
X2268Y230D01*
X2266Y230D01*
X2266Y226D01*
X2264Y226D01*
X2264Y224D01*
X2262Y224D01*
X2262Y220D01*
X2260Y220D01*
X2260Y218D01*
X2258Y218D01*
X2258Y216D01*
X2256Y216D01*
X2256Y214D01*
X2254Y214D01*
X2254Y212D01*
X2252Y212D01*
X2252Y210D01*
X2248Y210D01*
X2248Y190D01*
X2252Y190D01*
X2252Y188D01*
X2254Y188D01*
X2254Y186D01*
X2256Y186D01*
X2256Y184D01*
X2258Y184D01*
X2258Y182D01*
X2260Y182D01*
X2260Y180D01*
X2262Y180D01*
X2262Y176D01*
X2264Y176D01*
X2264Y174D01*
X2266Y174D01*
X2266Y170D01*
X2268Y170D01*
X2268Y164D01*
X2270Y164D01*
X2270Y154D01*
X2272Y154D01*
X2272Y146D01*
X2270Y146D01*
X2270Y136D01*
X2268Y136D01*
X2268Y130D01*
X2266Y130D01*
X2266Y126D01*
X2264Y126D01*
X2264Y124D01*
X2262Y124D01*
X2262Y120D01*
X2260Y120D01*
X2260Y118D01*
X2258Y118D01*
X2258Y116D01*
X2256Y116D01*
X2256Y114D01*
X2254Y114D01*
X2254Y112D01*
X2252Y112D01*
X2252Y110D01*
X2248Y110D01*
X2248Y108D01*
X2246Y108D01*
X2246Y42D01*
X2758Y42D01*
X2758Y44D01*
X2774Y44D01*
X2774Y46D01*
X2784Y46D01*
X2784Y48D01*
X2796Y48D01*
X2796Y50D01*
X2804Y50D01*
X2804Y52D01*
X2812Y52D01*
X2812Y54D01*
X2820Y54D01*
X2820Y56D01*
X2826Y56D01*
X2826Y58D01*
X2832Y58D01*
X2832Y60D01*
X2838Y60D01*
X2838Y62D01*
X2844Y62D01*
X2844Y64D01*
X2850Y64D01*
X2850Y66D01*
X2856Y66D01*
X2856Y68D01*
X2860Y68D01*
X2860Y70D01*
X2866Y70D01*
X2866Y72D01*
X2870Y72D01*
X2870Y74D01*
X2874Y74D01*
X2874Y76D01*
X2880Y76D01*
X2880Y78D01*
X2884Y78D01*
X2884Y80D01*
X2888Y80D01*
X2888Y82D01*
X2892Y82D01*
X2892Y84D01*
X2896Y84D01*
X2896Y86D01*
X2900Y86D01*
X2900Y88D01*
X2904Y88D01*
X2904Y90D01*
X2906Y90D01*
X2906Y92D01*
X2910Y92D01*
X2910Y94D01*
X2914Y94D01*
X2914Y96D01*
X2918Y96D01*
X2918Y98D01*
X2920Y98D01*
X2920Y100D01*
X2924Y100D01*
X2924Y102D01*
X2926Y102D01*
X2926Y104D01*
X2930Y104D01*
X2930Y106D01*
X2932Y106D01*
X2932Y108D01*
X2936Y108D01*
X2936Y110D01*
X2938Y110D01*
X2938Y112D01*
X2942Y112D01*
X2942Y114D01*
X2944Y114D01*
X2944Y116D01*
X2948Y116D01*
X2948Y118D01*
X2950Y118D01*
X2950Y120D01*
X2952Y120D01*
X2952Y122D01*
X2956Y122D01*
X2956Y124D01*
X2958Y124D01*
X2958Y126D01*
X2960Y126D01*
X2960Y128D01*
X2962Y128D01*
X2962Y130D01*
X2966Y130D01*
X2966Y132D01*
X2968Y132D01*
X2968Y134D01*
X2970Y134D01*
X2970Y136D01*
X2972Y136D01*
X2972Y138D01*
X2974Y138D01*
X2974Y140D01*
X2976Y140D01*
X2976Y142D01*
X2980Y142D01*
X2980Y144D01*
X2982Y144D01*
X2982Y146D01*
X2984Y146D01*
X2984Y148D01*
X2986Y148D01*
X2986Y150D01*
X2988Y150D01*
X2988Y152D01*
X2990Y152D01*
X2990Y154D01*
X2992Y154D01*
X2992Y156D01*
X2994Y156D01*
X2994Y158D01*
X2996Y158D01*
X2996Y160D01*
X2998Y160D01*
X2998Y162D01*
X3000Y162D01*
X3000Y164D01*
X3002Y164D01*
X3002Y166D01*
X3004Y166D01*
X3004Y168D01*
X3006Y168D01*
X3006Y170D01*
X3008Y170D01*
X3008Y174D01*
X3010Y174D01*
X3010Y176D01*
X3012Y176D01*
X3012Y178D01*
X3014Y178D01*
X3014Y180D01*
X3016Y180D01*
X3016Y182D01*
X3018Y182D01*
X3018Y184D01*
X3020Y184D01*
X3020Y188D01*
X3022Y188D01*
X3022Y190D01*
X3024Y190D01*
X3024Y192D01*
X3026Y192D01*
X3026Y194D01*
X3028Y194D01*
X3028Y198D01*
X3030Y198D01*
X3030Y200D01*
X3032Y200D01*
X3032Y202D01*
X3034Y202D01*
X3034Y206D01*
X3036Y206D01*
X3036Y208D01*
X3038Y208D01*
X3038Y212D01*
X3040Y212D01*
X3040Y214D01*
X3042Y214D01*
X3042Y218D01*
X3044Y218D01*
X3044Y220D01*
X3046Y220D01*
X3046Y224D01*
X3048Y224D01*
X3048Y226D01*
X3050Y226D01*
X3050Y230D01*
X3052Y230D01*
X3052Y232D01*
X3054Y232D01*
X3054Y236D01*
X3056Y236D01*
X3056Y240D01*
X3058Y240D01*
X3058Y244D01*
X3060Y244D01*
X3060Y246D01*
X3062Y246D01*
X3062Y250D01*
X3064Y250D01*
X3064Y254D01*
X3066Y254D01*
X3066Y258D01*
X3068Y258D01*
X3068Y262D01*
X3070Y262D01*
X3070Y266D01*
X3072Y266D01*
X3072Y270D01*
X3074Y270D01*
X3074Y276D01*
X3076Y276D01*
X3076Y280D01*
X3078Y280D01*
X3078Y284D01*
X3080Y284D01*
X3080Y290D01*
X3082Y290D01*
X3082Y294D01*
X3084Y294D01*
X3084Y300D01*
X3086Y300D01*
X3086Y306D01*
X3088Y306D01*
X3088Y312D01*
X3090Y312D01*
X3090Y318D01*
X3092Y318D01*
X3092Y324D01*
X3094Y324D01*
X3094Y330D01*
X3096Y330D01*
X3096Y338D01*
X3098Y338D01*
X3098Y346D01*
X3100Y346D01*
X3100Y354D01*
X3102Y354D01*
X3102Y366D01*
X3104Y366D01*
X3104Y376D01*
X3106Y376D01*
X3106Y392D01*
X3108Y392D01*
X3108Y700D01*
X2486Y700D01*
G37*
D02*
G36*
X40Y698D02*
X40Y410D01*
X42Y410D01*
X42Y390D01*
X44Y390D01*
X44Y374D01*
X46Y374D01*
X46Y364D01*
X48Y364D01*
X48Y354D01*
X50Y354D01*
X50Y344D01*
X52Y344D01*
X52Y336D01*
X54Y336D01*
X54Y330D01*
X56Y330D01*
X56Y322D01*
X58Y322D01*
X58Y316D01*
X60Y316D01*
X60Y310D01*
X62Y310D01*
X62Y304D01*
X64Y304D01*
X64Y298D01*
X66Y298D01*
X66Y294D01*
X68Y294D01*
X68Y288D01*
X70Y288D01*
X70Y284D01*
X72Y284D01*
X72Y278D01*
X74Y278D01*
X74Y274D01*
X76Y274D01*
X76Y270D01*
X78Y270D01*
X78Y266D01*
X80Y266D01*
X80Y262D01*
X100Y262D01*
X100Y602D01*
X76Y602D01*
X76Y604D01*
X74Y604D01*
X74Y696D01*
X76Y696D01*
X76Y698D01*
X40Y698D01*
G37*
D02*
G36*
X170Y698D02*
X170Y684D01*
X190Y684D01*
X190Y686D01*
X192Y686D01*
X192Y688D01*
X196Y688D01*
X196Y690D01*
X198Y690D01*
X198Y692D01*
X202Y692D01*
X202Y694D01*
X208Y694D01*
X208Y696D01*
X216Y696D01*
X216Y698D01*
X170Y698D01*
G37*
D02*
G36*
X1430Y374D02*
X1430Y372D01*
X1454Y372D01*
X1454Y374D01*
X1430Y374D01*
G37*
D02*
G36*
X1478Y374D02*
X1478Y372D01*
X1484Y372D01*
X1484Y370D01*
X1488Y370D01*
X1488Y368D01*
X1492Y368D01*
X1492Y366D01*
X1494Y366D01*
X1494Y364D01*
X1498Y364D01*
X1498Y362D01*
X1500Y362D01*
X1500Y360D01*
X1502Y360D01*
X1502Y356D01*
X1504Y356D01*
X1504Y354D01*
X1506Y354D01*
X1506Y352D01*
X1508Y352D01*
X1508Y348D01*
X1510Y348D01*
X1510Y342D01*
X1512Y342D01*
X1512Y336D01*
X1514Y336D01*
X1514Y320D01*
X1512Y320D01*
X1512Y312D01*
X1510Y312D01*
X1510Y306D01*
X1508Y306D01*
X1508Y304D01*
X1506Y304D01*
X1506Y300D01*
X1504Y300D01*
X1504Y298D01*
X1502Y298D01*
X1502Y294D01*
X1500Y294D01*
X1500Y292D01*
X1496Y292D01*
X1496Y290D01*
X1494Y290D01*
X1494Y288D01*
X1492Y288D01*
X1492Y286D01*
X1488Y286D01*
X1488Y284D01*
X1484Y284D01*
X1484Y282D01*
X1476Y282D01*
X1476Y280D01*
X1712Y280D01*
X1712Y282D01*
X1706Y282D01*
X1706Y284D01*
X1700Y284D01*
X1700Y286D01*
X1698Y286D01*
X1698Y288D01*
X1694Y288D01*
X1694Y290D01*
X1692Y290D01*
X1692Y292D01*
X1690Y292D01*
X1690Y294D01*
X1688Y294D01*
X1688Y296D01*
X1686Y296D01*
X1686Y298D01*
X1684Y298D01*
X1684Y300D01*
X1682Y300D01*
X1682Y304D01*
X1680Y304D01*
X1680Y308D01*
X1678Y308D01*
X1678Y314D01*
X1676Y314D01*
X1676Y322D01*
X1674Y322D01*
X1674Y332D01*
X1676Y332D01*
X1676Y340D01*
X1678Y340D01*
X1678Y346D01*
X1680Y346D01*
X1680Y350D01*
X1682Y350D01*
X1682Y354D01*
X1684Y354D01*
X1684Y356D01*
X1686Y356D01*
X1686Y358D01*
X1688Y358D01*
X1688Y362D01*
X1692Y362D01*
X1692Y364D01*
X1694Y364D01*
X1694Y366D01*
X1696Y366D01*
X1696Y368D01*
X1700Y368D01*
X1700Y370D01*
X1704Y370D01*
X1704Y372D01*
X1710Y372D01*
X1710Y374D01*
X1478Y374D01*
G37*
D02*
G36*
X366Y328D02*
X366Y326D01*
X364Y326D01*
X364Y324D01*
X362Y324D01*
X362Y320D01*
X360Y320D01*
X360Y318D01*
X358Y318D01*
X358Y316D01*
X356Y316D01*
X356Y314D01*
X354Y314D01*
X354Y312D01*
X352Y312D01*
X352Y310D01*
X348Y310D01*
X348Y290D01*
X352Y290D01*
X352Y288D01*
X354Y288D01*
X354Y286D01*
X356Y286D01*
X356Y284D01*
X358Y284D01*
X358Y282D01*
X360Y282D01*
X360Y280D01*
X362Y280D01*
X362Y276D01*
X364Y276D01*
X364Y274D01*
X366Y274D01*
X366Y270D01*
X368Y270D01*
X368Y264D01*
X370Y264D01*
X370Y254D01*
X372Y254D01*
X372Y246D01*
X370Y246D01*
X370Y236D01*
X368Y236D01*
X368Y230D01*
X366Y230D01*
X366Y226D01*
X364Y226D01*
X364Y224D01*
X362Y224D01*
X362Y220D01*
X360Y220D01*
X360Y218D01*
X358Y218D01*
X358Y216D01*
X356Y216D01*
X356Y214D01*
X354Y214D01*
X354Y212D01*
X352Y212D01*
X352Y210D01*
X348Y210D01*
X348Y208D01*
X346Y208D01*
X346Y206D01*
X342Y206D01*
X342Y204D01*
X336Y204D01*
X336Y202D01*
X600Y202D01*
X600Y326D01*
X466Y326D01*
X466Y328D01*
X366Y328D01*
G37*
D02*
G36*
X644Y280D02*
X644Y278D01*
X2182Y278D01*
X2182Y280D01*
X644Y280D01*
G37*
D02*
G36*
X644Y280D02*
X644Y278D01*
X2182Y278D01*
X2182Y280D01*
X644Y280D01*
G37*
D02*
G36*
X644Y280D02*
X644Y278D01*
X2182Y278D01*
X2182Y280D01*
X644Y280D01*
G37*
D02*
G36*
X644Y278D02*
X644Y198D01*
X1728Y198D01*
X1728Y196D01*
X1736Y196D01*
X1736Y194D01*
X1742Y194D01*
X1742Y192D01*
X1746Y192D01*
X1746Y190D01*
X1750Y190D01*
X1750Y188D01*
X1752Y188D01*
X1752Y186D01*
X1754Y186D01*
X1754Y184D01*
X1784Y184D01*
X1784Y186D01*
X1794Y186D01*
X1794Y188D01*
X1804Y188D01*
X1804Y190D01*
X1814Y190D01*
X1814Y192D01*
X1824Y192D01*
X1824Y194D01*
X1834Y194D01*
X1834Y196D01*
X1844Y196D01*
X1844Y198D01*
X1854Y198D01*
X1854Y200D01*
X1864Y200D01*
X1864Y202D01*
X1874Y202D01*
X1874Y204D01*
X1884Y204D01*
X1884Y206D01*
X1894Y206D01*
X1894Y208D01*
X1904Y208D01*
X1904Y210D01*
X1914Y210D01*
X1914Y212D01*
X1926Y212D01*
X1926Y214D01*
X1936Y214D01*
X1936Y216D01*
X1946Y216D01*
X1946Y218D01*
X1956Y218D01*
X1956Y220D01*
X1966Y220D01*
X1966Y222D01*
X1976Y222D01*
X1976Y224D01*
X1986Y224D01*
X1986Y226D01*
X1996Y226D01*
X1996Y228D01*
X2006Y228D01*
X2006Y230D01*
X2016Y230D01*
X2016Y232D01*
X2026Y232D01*
X2026Y234D01*
X2036Y234D01*
X2036Y236D01*
X2046Y236D01*
X2046Y238D01*
X2056Y238D01*
X2056Y240D01*
X2066Y240D01*
X2066Y242D01*
X2076Y242D01*
X2076Y244D01*
X2086Y244D01*
X2086Y246D01*
X2096Y246D01*
X2096Y248D01*
X2106Y248D01*
X2106Y250D01*
X2116Y250D01*
X2116Y252D01*
X2126Y252D01*
X2126Y254D01*
X2136Y254D01*
X2136Y256D01*
X2146Y256D01*
X2146Y258D01*
X2156Y258D01*
X2156Y260D01*
X2166Y260D01*
X2166Y262D01*
X2176Y262D01*
X2176Y268D01*
X2178Y268D01*
X2178Y272D01*
X2180Y272D01*
X2180Y276D01*
X2182Y276D01*
X2182Y278D01*
X644Y278D01*
G37*
D02*
G36*
X110Y228D02*
X110Y210D01*
X112Y210D01*
X112Y208D01*
X114Y208D01*
X114Y206D01*
X116Y206D01*
X116Y202D01*
X310Y202D01*
X310Y204D01*
X302Y204D01*
X302Y206D01*
X300Y206D01*
X300Y208D01*
X296Y208D01*
X296Y210D01*
X292Y210D01*
X292Y212D01*
X290Y212D01*
X290Y214D01*
X288Y214D01*
X288Y216D01*
X286Y216D01*
X286Y218D01*
X284Y218D01*
X284Y222D01*
X282Y222D01*
X282Y224D01*
X280Y224D01*
X280Y228D01*
X110Y228D01*
G37*
D02*
G36*
X2160Y216D02*
X2160Y214D01*
X2150Y214D01*
X2150Y212D01*
X2140Y212D01*
X2140Y210D01*
X2130Y210D01*
X2130Y208D01*
X2120Y208D01*
X2120Y206D01*
X2110Y206D01*
X2110Y204D01*
X2100Y204D01*
X2100Y202D01*
X2090Y202D01*
X2090Y200D01*
X2080Y200D01*
X2080Y198D01*
X2070Y198D01*
X2070Y196D01*
X2060Y196D01*
X2060Y194D01*
X2050Y194D01*
X2050Y192D01*
X2040Y192D01*
X2040Y190D01*
X2030Y190D01*
X2030Y188D01*
X2020Y188D01*
X2020Y186D01*
X2010Y186D01*
X2010Y184D01*
X2000Y184D01*
X2000Y182D01*
X1990Y182D01*
X1990Y180D01*
X1980Y180D01*
X1980Y178D01*
X1970Y178D01*
X1970Y176D01*
X1960Y176D01*
X1960Y174D01*
X1950Y174D01*
X1950Y172D01*
X1940Y172D01*
X1940Y170D01*
X1930Y170D01*
X1930Y168D01*
X1920Y168D01*
X1920Y166D01*
X1910Y166D01*
X1910Y164D01*
X1900Y164D01*
X1900Y162D01*
X1890Y162D01*
X1890Y160D01*
X1880Y160D01*
X1880Y158D01*
X1870Y158D01*
X1870Y156D01*
X1860Y156D01*
X1860Y154D01*
X1850Y154D01*
X1850Y152D01*
X1840Y152D01*
X1840Y150D01*
X1830Y150D01*
X1830Y148D01*
X1820Y148D01*
X1820Y146D01*
X1810Y146D01*
X1810Y144D01*
X1800Y144D01*
X1800Y142D01*
X1790Y142D01*
X1790Y140D01*
X1780Y140D01*
X1780Y138D01*
X1770Y138D01*
X1770Y136D01*
X1768Y136D01*
X1768Y134D01*
X1766Y134D01*
X1766Y130D01*
X1764Y130D01*
X1764Y126D01*
X1762Y126D01*
X1762Y122D01*
X1760Y122D01*
X1760Y120D01*
X1758Y120D01*
X1758Y118D01*
X1756Y118D01*
X1756Y116D01*
X1754Y116D01*
X1754Y114D01*
X1752Y114D01*
X1752Y112D01*
X1750Y112D01*
X1750Y110D01*
X1746Y110D01*
X1746Y108D01*
X1742Y108D01*
X1742Y106D01*
X1736Y106D01*
X1736Y104D01*
X1728Y104D01*
X1728Y102D01*
X2200Y102D01*
X2200Y108D01*
X2196Y108D01*
X2196Y110D01*
X2192Y110D01*
X2192Y112D01*
X2190Y112D01*
X2190Y114D01*
X2188Y114D01*
X2188Y116D01*
X2186Y116D01*
X2186Y118D01*
X2184Y118D01*
X2184Y122D01*
X2182Y122D01*
X2182Y124D01*
X2180Y124D01*
X2180Y128D01*
X2178Y128D01*
X2178Y132D01*
X2176Y132D01*
X2176Y138D01*
X2174Y138D01*
X2174Y162D01*
X2176Y162D01*
X2176Y168D01*
X2178Y168D01*
X2178Y172D01*
X2180Y172D01*
X2180Y176D01*
X2182Y176D01*
X2182Y180D01*
X2184Y180D01*
X2184Y182D01*
X2186Y182D01*
X2186Y184D01*
X2188Y184D01*
X2188Y186D01*
X2190Y186D01*
X2190Y188D01*
X2192Y188D01*
X2192Y190D01*
X2196Y190D01*
X2196Y210D01*
X2192Y210D01*
X2192Y212D01*
X2190Y212D01*
X2190Y214D01*
X2188Y214D01*
X2188Y216D01*
X2160Y216D01*
G37*
D02*
G36*
X118Y202D02*
X118Y200D01*
X600Y200D01*
X600Y202D01*
X118Y202D01*
G37*
D02*
G36*
X118Y202D02*
X118Y200D01*
X600Y200D01*
X600Y202D01*
X118Y202D01*
G37*
D02*
G36*
X120Y200D02*
X120Y196D01*
X122Y196D01*
X122Y194D01*
X124Y194D01*
X124Y192D01*
X126Y192D01*
X126Y190D01*
X128Y190D01*
X128Y186D01*
X130Y186D01*
X130Y184D01*
X132Y184D01*
X132Y182D01*
X134Y182D01*
X134Y180D01*
X136Y180D01*
X136Y178D01*
X138Y178D01*
X138Y176D01*
X140Y176D01*
X140Y172D01*
X142Y172D01*
X142Y170D01*
X144Y170D01*
X144Y168D01*
X146Y168D01*
X146Y166D01*
X148Y166D01*
X148Y164D01*
X150Y164D01*
X150Y162D01*
X152Y162D01*
X152Y160D01*
X154Y160D01*
X154Y158D01*
X156Y158D01*
X156Y156D01*
X158Y156D01*
X158Y154D01*
X160Y154D01*
X160Y152D01*
X162Y152D01*
X162Y150D01*
X164Y150D01*
X164Y148D01*
X166Y148D01*
X166Y146D01*
X168Y146D01*
X168Y144D01*
X170Y144D01*
X170Y142D01*
X172Y142D01*
X172Y140D01*
X176Y140D01*
X176Y138D01*
X178Y138D01*
X178Y136D01*
X180Y136D01*
X180Y134D01*
X182Y134D01*
X182Y132D01*
X184Y132D01*
X184Y130D01*
X186Y130D01*
X186Y128D01*
X190Y128D01*
X190Y126D01*
X192Y126D01*
X192Y124D01*
X194Y124D01*
X194Y122D01*
X198Y122D01*
X198Y120D01*
X200Y120D01*
X200Y118D01*
X202Y118D01*
X202Y116D01*
X206Y116D01*
X206Y114D01*
X208Y114D01*
X208Y112D01*
X210Y112D01*
X210Y110D01*
X214Y110D01*
X214Y108D01*
X216Y108D01*
X216Y106D01*
X220Y106D01*
X220Y104D01*
X222Y104D01*
X222Y102D01*
X616Y102D01*
X616Y104D01*
X608Y104D01*
X608Y106D01*
X602Y106D01*
X602Y108D01*
X598Y108D01*
X598Y110D01*
X596Y110D01*
X596Y112D01*
X592Y112D01*
X592Y114D01*
X590Y114D01*
X590Y116D01*
X588Y116D01*
X588Y118D01*
X586Y118D01*
X586Y120D01*
X584Y120D01*
X584Y124D01*
X582Y124D01*
X582Y126D01*
X580Y126D01*
X580Y130D01*
X578Y130D01*
X578Y136D01*
X576Y136D01*
X576Y146D01*
X574Y146D01*
X574Y154D01*
X576Y154D01*
X576Y164D01*
X578Y164D01*
X578Y170D01*
X580Y170D01*
X580Y174D01*
X582Y174D01*
X582Y176D01*
X584Y176D01*
X584Y180D01*
X586Y180D01*
X586Y182D01*
X588Y182D01*
X588Y184D01*
X590Y184D01*
X590Y186D01*
X592Y186D01*
X592Y188D01*
X596Y188D01*
X596Y190D01*
X598Y190D01*
X598Y192D01*
X600Y192D01*
X600Y200D01*
X120Y200D01*
G37*
D02*
G36*
X644Y198D02*
X644Y192D01*
X646Y192D01*
X646Y190D01*
X650Y190D01*
X650Y188D01*
X652Y188D01*
X652Y186D01*
X654Y186D01*
X654Y184D01*
X656Y184D01*
X656Y182D01*
X658Y182D01*
X658Y180D01*
X660Y180D01*
X660Y178D01*
X662Y178D01*
X662Y174D01*
X664Y174D01*
X664Y170D01*
X666Y170D01*
X666Y166D01*
X668Y166D01*
X668Y158D01*
X670Y158D01*
X670Y142D01*
X668Y142D01*
X668Y134D01*
X666Y134D01*
X666Y130D01*
X664Y130D01*
X664Y126D01*
X662Y126D01*
X662Y122D01*
X660Y122D01*
X660Y120D01*
X658Y120D01*
X658Y118D01*
X656Y118D01*
X656Y116D01*
X654Y116D01*
X654Y114D01*
X652Y114D01*
X652Y112D01*
X650Y112D01*
X650Y110D01*
X646Y110D01*
X646Y108D01*
X642Y108D01*
X642Y106D01*
X636Y106D01*
X636Y104D01*
X628Y104D01*
X628Y102D01*
X1000Y102D01*
X1000Y108D01*
X998Y108D01*
X998Y110D01*
X996Y110D01*
X996Y112D01*
X992Y112D01*
X992Y114D01*
X990Y114D01*
X990Y116D01*
X988Y116D01*
X988Y118D01*
X986Y118D01*
X986Y120D01*
X984Y120D01*
X984Y124D01*
X982Y124D01*
X982Y126D01*
X980Y126D01*
X980Y130D01*
X978Y130D01*
X978Y136D01*
X976Y136D01*
X976Y146D01*
X974Y146D01*
X974Y154D01*
X976Y154D01*
X976Y164D01*
X978Y164D01*
X978Y170D01*
X980Y170D01*
X980Y174D01*
X982Y174D01*
X982Y176D01*
X984Y176D01*
X984Y180D01*
X986Y180D01*
X986Y182D01*
X988Y182D01*
X988Y184D01*
X990Y184D01*
X990Y186D01*
X992Y186D01*
X992Y188D01*
X996Y188D01*
X996Y190D01*
X998Y190D01*
X998Y192D01*
X1002Y192D01*
X1002Y194D01*
X1008Y194D01*
X1008Y196D01*
X1016Y196D01*
X1016Y198D01*
X644Y198D01*
G37*
D02*
G36*
X1028Y198D02*
X1028Y196D01*
X1036Y196D01*
X1036Y194D01*
X1042Y194D01*
X1042Y192D01*
X1046Y192D01*
X1046Y190D01*
X1050Y190D01*
X1050Y188D01*
X1052Y188D01*
X1052Y186D01*
X1054Y186D01*
X1054Y184D01*
X1056Y184D01*
X1056Y182D01*
X1058Y182D01*
X1058Y180D01*
X1060Y180D01*
X1060Y178D01*
X1062Y178D01*
X1062Y174D01*
X1064Y174D01*
X1064Y170D01*
X1066Y170D01*
X1066Y166D01*
X1068Y166D01*
X1068Y158D01*
X1070Y158D01*
X1070Y142D01*
X1068Y142D01*
X1068Y134D01*
X1066Y134D01*
X1066Y130D01*
X1064Y130D01*
X1064Y126D01*
X1062Y126D01*
X1062Y122D01*
X1060Y122D01*
X1060Y120D01*
X1058Y120D01*
X1058Y118D01*
X1056Y118D01*
X1056Y116D01*
X1054Y116D01*
X1054Y114D01*
X1052Y114D01*
X1052Y112D01*
X1050Y112D01*
X1050Y110D01*
X1046Y110D01*
X1046Y108D01*
X1044Y108D01*
X1044Y102D01*
X1460Y102D01*
X1460Y104D01*
X1452Y104D01*
X1452Y106D01*
X1446Y106D01*
X1446Y108D01*
X1442Y108D01*
X1442Y110D01*
X1440Y110D01*
X1440Y112D01*
X1436Y112D01*
X1436Y114D01*
X1434Y114D01*
X1434Y116D01*
X1432Y116D01*
X1432Y118D01*
X1430Y118D01*
X1430Y120D01*
X1428Y120D01*
X1428Y124D01*
X1426Y124D01*
X1426Y128D01*
X1424Y128D01*
X1424Y130D01*
X1422Y130D01*
X1422Y136D01*
X1420Y136D01*
X1420Y146D01*
X1418Y146D01*
X1418Y154D01*
X1420Y154D01*
X1420Y164D01*
X1422Y164D01*
X1422Y170D01*
X1424Y170D01*
X1424Y172D01*
X1426Y172D01*
X1426Y176D01*
X1428Y176D01*
X1428Y180D01*
X1430Y180D01*
X1430Y182D01*
X1432Y182D01*
X1432Y184D01*
X1434Y184D01*
X1434Y186D01*
X1436Y186D01*
X1436Y188D01*
X1440Y188D01*
X1440Y190D01*
X1442Y190D01*
X1442Y192D01*
X1446Y192D01*
X1446Y194D01*
X1452Y194D01*
X1452Y196D01*
X1460Y196D01*
X1460Y198D01*
X1028Y198D01*
G37*
D02*
G36*
X1472Y198D02*
X1472Y196D01*
X1480Y196D01*
X1480Y194D01*
X1486Y194D01*
X1486Y192D01*
X1490Y192D01*
X1490Y190D01*
X1494Y190D01*
X1494Y188D01*
X1496Y188D01*
X1496Y186D01*
X1498Y186D01*
X1498Y184D01*
X1500Y184D01*
X1500Y182D01*
X1502Y182D01*
X1502Y180D01*
X1504Y180D01*
X1504Y178D01*
X1506Y178D01*
X1506Y174D01*
X1508Y174D01*
X1508Y170D01*
X1510Y170D01*
X1510Y166D01*
X1512Y166D01*
X1512Y158D01*
X1514Y158D01*
X1514Y142D01*
X1512Y142D01*
X1512Y134D01*
X1510Y134D01*
X1510Y130D01*
X1508Y130D01*
X1508Y126D01*
X1506Y126D01*
X1506Y122D01*
X1504Y122D01*
X1504Y120D01*
X1502Y120D01*
X1502Y118D01*
X1500Y118D01*
X1500Y116D01*
X1498Y116D01*
X1498Y114D01*
X1496Y114D01*
X1496Y112D01*
X1494Y112D01*
X1494Y110D01*
X1490Y110D01*
X1490Y108D01*
X1486Y108D01*
X1486Y106D01*
X1480Y106D01*
X1480Y104D01*
X1472Y104D01*
X1472Y102D01*
X1716Y102D01*
X1716Y104D01*
X1708Y104D01*
X1708Y106D01*
X1702Y106D01*
X1702Y108D01*
X1698Y108D01*
X1698Y110D01*
X1696Y110D01*
X1696Y112D01*
X1692Y112D01*
X1692Y114D01*
X1690Y114D01*
X1690Y116D01*
X1688Y116D01*
X1688Y118D01*
X1686Y118D01*
X1686Y120D01*
X1684Y120D01*
X1684Y124D01*
X1682Y124D01*
X1682Y126D01*
X1680Y126D01*
X1680Y130D01*
X1678Y130D01*
X1678Y136D01*
X1676Y136D01*
X1676Y146D01*
X1674Y146D01*
X1674Y154D01*
X1676Y154D01*
X1676Y164D01*
X1678Y164D01*
X1678Y170D01*
X1680Y170D01*
X1680Y174D01*
X1682Y174D01*
X1682Y176D01*
X1684Y176D01*
X1684Y180D01*
X1686Y180D01*
X1686Y182D01*
X1688Y182D01*
X1688Y184D01*
X1690Y184D01*
X1690Y186D01*
X1692Y186D01*
X1692Y188D01*
X1696Y188D01*
X1696Y190D01*
X1698Y190D01*
X1698Y192D01*
X1702Y192D01*
X1702Y194D01*
X1708Y194D01*
X1708Y196D01*
X1716Y196D01*
X1716Y198D01*
X1472Y198D01*
G37*
D02*
G36*
X226Y102D02*
X226Y100D01*
X1000Y100D01*
X1000Y102D01*
X226Y102D01*
G37*
D02*
G36*
X226Y102D02*
X226Y100D01*
X1000Y100D01*
X1000Y102D01*
X226Y102D01*
G37*
D02*
G36*
X1044Y102D02*
X1044Y100D01*
X2200Y100D01*
X2200Y102D01*
X1044Y102D01*
G37*
D02*
G36*
X1044Y102D02*
X1044Y100D01*
X2200Y100D01*
X2200Y102D01*
X1044Y102D01*
G37*
D02*
G36*
X1044Y102D02*
X1044Y100D01*
X2200Y100D01*
X2200Y102D01*
X1044Y102D01*
G37*
D02*
G36*
X230Y100D02*
X230Y98D01*
X232Y98D01*
X232Y96D01*
X236Y96D01*
X236Y94D01*
X240Y94D01*
X240Y92D01*
X244Y92D01*
X244Y90D01*
X246Y90D01*
X246Y88D01*
X250Y88D01*
X250Y86D01*
X254Y86D01*
X254Y84D01*
X258Y84D01*
X258Y82D01*
X262Y82D01*
X262Y80D01*
X266Y80D01*
X266Y78D01*
X270Y78D01*
X270Y76D01*
X274Y76D01*
X274Y74D01*
X280Y74D01*
X280Y72D01*
X284Y72D01*
X284Y70D01*
X290Y70D01*
X290Y68D01*
X294Y68D01*
X294Y66D01*
X300Y66D01*
X300Y64D01*
X304Y64D01*
X304Y62D01*
X310Y62D01*
X310Y60D01*
X316Y60D01*
X316Y58D01*
X324Y58D01*
X324Y56D01*
X330Y56D01*
X330Y54D01*
X338Y54D01*
X338Y52D01*
X346Y52D01*
X346Y50D01*
X354Y50D01*
X354Y48D01*
X366Y48D01*
X366Y46D01*
X376Y46D01*
X376Y44D01*
X392Y44D01*
X392Y42D01*
X1000Y42D01*
X1000Y100D01*
X230Y100D01*
G37*
D02*
G36*
X1044Y100D02*
X1044Y72D01*
X2202Y72D01*
X2202Y98D01*
X2200Y98D01*
X2200Y100D01*
X1044Y100D01*
G37*
D02*
G04 End of Copper1*
M02*