G04 MADE WITH FRITZING*
G04 WWW.FRITZING.ORG*
G04 DOUBLE SIDED*
G04 HOLES PLATED*
G04 CONTOUR ON CENTER OF CONTOUR VECTOR*
%ASAXBY*%
%FSLAX23Y23*%
%MOIN*%
%OFA0B0*%
%SFA1.0B1.0*%
%ADD10C,0.008*%
%LNCONTOUR*%
G90*
G70*
G54D10*
X377Y3150D02*
X378Y3150D01*
X379Y3150D01*
X380Y3150D01*
X381Y3150D01*
X382Y3150D01*
X383Y3150D01*
X384Y3150D01*
X385Y3150D01*
X386Y3150D01*
X387Y3150D01*
X388Y3150D01*
X389Y3150D01*
X390Y3150D01*
X391Y3150D01*
X392Y3150D01*
X393Y3150D01*
X394Y3150D01*
X395Y3150D01*
X396Y3150D01*
X397Y3150D01*
X398Y3150D01*
X399Y3150D01*
X400Y3150D01*
X401Y3150D01*
X402Y3150D01*
X403Y3150D01*
X404Y3150D01*
X405Y3150D01*
X406Y3150D01*
X407Y3150D01*
X408Y3150D01*
X409Y3150D01*
X410Y3150D01*
X411Y3150D01*
X412Y3150D01*
X413Y3150D01*
X414Y3150D01*
X415Y3150D01*
X416Y3150D01*
X417Y3150D01*
X418Y3150D01*
X419Y3150D01*
X420Y3150D01*
X421Y3150D01*
X422Y3150D01*
X423Y3150D01*
X424Y3150D01*
X425Y3150D01*
X426Y3150D01*
X427Y3150D01*
X428Y3150D01*
X429Y3150D01*
X430Y3150D01*
X431Y3150D01*
X432Y3150D01*
X433Y3150D01*
X434Y3150D01*
X435Y3150D01*
X436Y3150D01*
X437Y3150D01*
X438Y3150D01*
X439Y3150D01*
X440Y3150D01*
X441Y3150D01*
X442Y3150D01*
X443Y3150D01*
X444Y3150D01*
X445Y3150D01*
X446Y3150D01*
X447Y3150D01*
X448Y3150D01*
X449Y3150D01*
X450Y3150D01*
X451Y3150D01*
X452Y3150D01*
X453Y3150D01*
X454Y3150D01*
X455Y3150D01*
X456Y3150D01*
X457Y3150D01*
X458Y3150D01*
X459Y3150D01*
X460Y3150D01*
X461Y3150D01*
X462Y3150D01*
X463Y3150D01*
X464Y3150D01*
X465Y3150D01*
X466Y3150D01*
X467Y3150D01*
X468Y3150D01*
X469Y3150D01*
X470Y3150D01*
X471Y3150D01*
X472Y3150D01*
X473Y3150D01*
X474Y3150D01*
X475Y3150D01*
X476Y3150D01*
X477Y3150D01*
X478Y3150D01*
X479Y3150D01*
X480Y3150D01*
X481Y3150D01*
X482Y3150D01*
X483Y3150D01*
X484Y3150D01*
X485Y3150D01*
X486Y3150D01*
X487Y3150D01*
X488Y3150D01*
X489Y3150D01*
X490Y3150D01*
X491Y3150D01*
X492Y3150D01*
X493Y3150D01*
X494Y3150D01*
X495Y3150D01*
X496Y3150D01*
X497Y3150D01*
X498Y3150D01*
X499Y3150D01*
X500Y3150D01*
X501Y3150D01*
X502Y3150D01*
X503Y3150D01*
X504Y3150D01*
X505Y3150D01*
X506Y3150D01*
X507Y3150D01*
X508Y3150D01*
X509Y3150D01*
X510Y3150D01*
X511Y3150D01*
X512Y3150D01*
X513Y3150D01*
X514Y3150D01*
X515Y3150D01*
X516Y3150D01*
X517Y3150D01*
X518Y3150D01*
X519Y3150D01*
X520Y3150D01*
X521Y3150D01*
X522Y3150D01*
X523Y3150D01*
X524Y3150D01*
X525Y3150D01*
X526Y3150D01*
X527Y3150D01*
X528Y3150D01*
X529Y3150D01*
X530Y3150D01*
X531Y3150D01*
X532Y3150D01*
X533Y3150D01*
X534Y3150D01*
X535Y3150D01*
X536Y3150D01*
X537Y3150D01*
X538Y3150D01*
X539Y3150D01*
X540Y3150D01*
X541Y3150D01*
X542Y3150D01*
X543Y3150D01*
X544Y3150D01*
X545Y3150D01*
X546Y3150D01*
X547Y3150D01*
X548Y3150D01*
X549Y3150D01*
X550Y3150D01*
X551Y3150D01*
X552Y3150D01*
X553Y3150D01*
X554Y3150D01*
X555Y3150D01*
X556Y3150D01*
X557Y3150D01*
X558Y3150D01*
X559Y3150D01*
X560Y3150D01*
X561Y3150D01*
X562Y3150D01*
X563Y3150D01*
X564Y3150D01*
X565Y3150D01*
X566Y3150D01*
X567Y3150D01*
X568Y3150D01*
X569Y3150D01*
X570Y3150D01*
X571Y3150D01*
X572Y3150D01*
X573Y3150D01*
X574Y3150D01*
X575Y3150D01*
X576Y3150D01*
X577Y3150D01*
X578Y3150D01*
X579Y3150D01*
X580Y3150D01*
X581Y3150D01*
X582Y3150D01*
X583Y3150D01*
X584Y3150D01*
X585Y3150D01*
X586Y3150D01*
X587Y3150D01*
X588Y3150D01*
X589Y3150D01*
X590Y3150D01*
X591Y3150D01*
X592Y3150D01*
X593Y3150D01*
X594Y3150D01*
X595Y3150D01*
X596Y3150D01*
X597Y3150D01*
X598Y3150D01*
X599Y3150D01*
X600Y3150D01*
X601Y3150D01*
X602Y3150D01*
X603Y3150D01*
X604Y3150D01*
X605Y3150D01*
X606Y3150D01*
X607Y3150D01*
X608Y3150D01*
X609Y3150D01*
X610Y3150D01*
X611Y3150D01*
X612Y3150D01*
X613Y3150D01*
X614Y3150D01*
X615Y3150D01*
X616Y3150D01*
X617Y3150D01*
X618Y3150D01*
X619Y3150D01*
X620Y3150D01*
X621Y3150D01*
X622Y3150D01*
X623Y3150D01*
X624Y3150D01*
X625Y3150D01*
X626Y3150D01*
X627Y3150D01*
X628Y3150D01*
X629Y3150D01*
X630Y3150D01*
X631Y3150D01*
X632Y3150D01*
X633Y3150D01*
X634Y3150D01*
X635Y3150D01*
X636Y3150D01*
X637Y3150D01*
X638Y3150D01*
X639Y3150D01*
X640Y3150D01*
X641Y3150D01*
X642Y3150D01*
X643Y3150D01*
X644Y3150D01*
X645Y3150D01*
X646Y3150D01*
X647Y3150D01*
X648Y3150D01*
X649Y3150D01*
X650Y3150D01*
X651Y3150D01*
X652Y3150D01*
X653Y3150D01*
X654Y3150D01*
X655Y3150D01*
X656Y3150D01*
X657Y3150D01*
X658Y3150D01*
X659Y3150D01*
X660Y3150D01*
X661Y3150D01*
X662Y3150D01*
X663Y3150D01*
X664Y3150D01*
X665Y3150D01*
X666Y3150D01*
X667Y3150D01*
X668Y3150D01*
X669Y3150D01*
X670Y3150D01*
X671Y3150D01*
X672Y3150D01*
X673Y3150D01*
X674Y3150D01*
X675Y3150D01*
X676Y3150D01*
X677Y3150D01*
X678Y3150D01*
X679Y3150D01*
X680Y3150D01*
X681Y3150D01*
X682Y3150D01*
X683Y3150D01*
X684Y3150D01*
X685Y3150D01*
X686Y3150D01*
X687Y3150D01*
X688Y3150D01*
X689Y3150D01*
X690Y3150D01*
X691Y3150D01*
X692Y3150D01*
X693Y3150D01*
X694Y3150D01*
X695Y3150D01*
X696Y3150D01*
X697Y3150D01*
X698Y3150D01*
X699Y3150D01*
X700Y3150D01*
X701Y3150D01*
X702Y3150D01*
X703Y3150D01*
X704Y3150D01*
X705Y3150D01*
X706Y3150D01*
X707Y3150D01*
X708Y3150D01*
X709Y3150D01*
X710Y3150D01*
X711Y3150D01*
X712Y3150D01*
X713Y3150D01*
X714Y3150D01*
X715Y3150D01*
X716Y3150D01*
X717Y3150D01*
X718Y3150D01*
X719Y3150D01*
X720Y3150D01*
X721Y3150D01*
X722Y3150D01*
X723Y3150D01*
X724Y3150D01*
X725Y3150D01*
X726Y3150D01*
X727Y3150D01*
X728Y3150D01*
X729Y3150D01*
X730Y3150D01*
X731Y3150D01*
X732Y3150D01*
X733Y3150D01*
X734Y3150D01*
X735Y3150D01*
X736Y3150D01*
X737Y3150D01*
X738Y3150D01*
X739Y3150D01*
X740Y3150D01*
X741Y3150D01*
X742Y3150D01*
X743Y3150D01*
X744Y3150D01*
X745Y3150D01*
X746Y3150D01*
X747Y3150D01*
X748Y3150D01*
X749Y3150D01*
X750Y3150D01*
X751Y3150D01*
X752Y3150D01*
X753Y3150D01*
X754Y3150D01*
X755Y3150D01*
X756Y3150D01*
X757Y3150D01*
X758Y3150D01*
X759Y3150D01*
X760Y3150D01*
X761Y3150D01*
X762Y3150D01*
X763Y3150D01*
X764Y3150D01*
X765Y3150D01*
X766Y3150D01*
X767Y3150D01*
X768Y3150D01*
X769Y3150D01*
X770Y3150D01*
X771Y3150D01*
X772Y3150D01*
X773Y3150D01*
X774Y3150D01*
X775Y3150D01*
X776Y3150D01*
X777Y3150D01*
X778Y3150D01*
X779Y3150D01*
X780Y3150D01*
X781Y3150D01*
X782Y3150D01*
X783Y3150D01*
X784Y3150D01*
X785Y3150D01*
X786Y3150D01*
X787Y3150D01*
X788Y3150D01*
X789Y3150D01*
X790Y3150D01*
X791Y3150D01*
X792Y3150D01*
X793Y3150D01*
X794Y3150D01*
X795Y3150D01*
X796Y3150D01*
X797Y3150D01*
X798Y3150D01*
X799Y3150D01*
X800Y3150D01*
X801Y3150D01*
X802Y3150D01*
X803Y3150D01*
X804Y3150D01*
X805Y3150D01*
X806Y3150D01*
X807Y3150D01*
X808Y3150D01*
X809Y3150D01*
X810Y3150D01*
X811Y3150D01*
X812Y3150D01*
X813Y3150D01*
X814Y3150D01*
X815Y3150D01*
X816Y3150D01*
X817Y3150D01*
X818Y3150D01*
X819Y3150D01*
X820Y3150D01*
X821Y3150D01*
X822Y3150D01*
X823Y3150D01*
X824Y3150D01*
X825Y3150D01*
X826Y3150D01*
X827Y3150D01*
X828Y3150D01*
X829Y3150D01*
X830Y3150D01*
X831Y3150D01*
X832Y3150D01*
X833Y3150D01*
X834Y3150D01*
X835Y3150D01*
X836Y3150D01*
X837Y3150D01*
X838Y3150D01*
X839Y3150D01*
X840Y3150D01*
X841Y3150D01*
X842Y3150D01*
X843Y3150D01*
X844Y3150D01*
X845Y3150D01*
X846Y3150D01*
X847Y3150D01*
X848Y3150D01*
X849Y3150D01*
X850Y3150D01*
X851Y3150D01*
X852Y3150D01*
X853Y3150D01*
X854Y3150D01*
X855Y3150D01*
X856Y3150D01*
X857Y3150D01*
X858Y3150D01*
X859Y3150D01*
X860Y3150D01*
X861Y3150D01*
X862Y3150D01*
X863Y3150D01*
X864Y3150D01*
X865Y3150D01*
X866Y3150D01*
X867Y3150D01*
X868Y3150D01*
X869Y3150D01*
X870Y3150D01*
X871Y3150D01*
X872Y3150D01*
X873Y3150D01*
X874Y3150D01*
X875Y3150D01*
X876Y3150D01*
X877Y3150D01*
X878Y3150D01*
X879Y3150D01*
X880Y3150D01*
X881Y3150D01*
X882Y3150D01*
X883Y3150D01*
X884Y3150D01*
X885Y3150D01*
X886Y3150D01*
X887Y3150D01*
X888Y3150D01*
X889Y3150D01*
X890Y3150D01*
X891Y3150D01*
X892Y3150D01*
X893Y3150D01*
X894Y3150D01*
X895Y3150D01*
X896Y3150D01*
X897Y3150D01*
X898Y3150D01*
X899Y3150D01*
X900Y3150D01*
X901Y3150D01*
X902Y3150D01*
X903Y3150D01*
X904Y3150D01*
X905Y3150D01*
X906Y3150D01*
X907Y3150D01*
X908Y3150D01*
X909Y3150D01*
X910Y3150D01*
X911Y3150D01*
X912Y3150D01*
X913Y3150D01*
X914Y3150D01*
X915Y3150D01*
X916Y3150D01*
X917Y3150D01*
X918Y3150D01*
X919Y3150D01*
X920Y3150D01*
X921Y3150D01*
X922Y3150D01*
X923Y3150D01*
X924Y3150D01*
X925Y3150D01*
X926Y3150D01*
X927Y3150D01*
X928Y3150D01*
X929Y3150D01*
X930Y3150D01*
X931Y3150D01*
X932Y3150D01*
X933Y3150D01*
X934Y3150D01*
X935Y3150D01*
X936Y3150D01*
X937Y3150D01*
X938Y3150D01*
X939Y3150D01*
X940Y3150D01*
X941Y3150D01*
X942Y3150D01*
X943Y3150D01*
X944Y3150D01*
X945Y3150D01*
X946Y3150D01*
X947Y3150D01*
X948Y3150D01*
X949Y3150D01*
X950Y3150D01*
X951Y3150D01*
X952Y3150D01*
X953Y3150D01*
X954Y3150D01*
X955Y3150D01*
X956Y3150D01*
X957Y3150D01*
X958Y3150D01*
X959Y3150D01*
X960Y3150D01*
X961Y3150D01*
X962Y3150D01*
X963Y3150D01*
X964Y3150D01*
X965Y3150D01*
X966Y3150D01*
X967Y3150D01*
X968Y3150D01*
X969Y3150D01*
X970Y3150D01*
X971Y3150D01*
X972Y3150D01*
X973Y3150D01*
X974Y3150D01*
X975Y3150D01*
X976Y3150D01*
X977Y3150D01*
X978Y3150D01*
X979Y3150D01*
X980Y3150D01*
X981Y3150D01*
X982Y3150D01*
X983Y3150D01*
X984Y3150D01*
X985Y3150D01*
X986Y3150D01*
X987Y3150D01*
X988Y3150D01*
X989Y3150D01*
X990Y3150D01*
X991Y3150D01*
X992Y3150D01*
X993Y3150D01*
X994Y3150D01*
X995Y3150D01*
X996Y3150D01*
X997Y3150D01*
X998Y3150D01*
X999Y3150D01*
X1000Y3150D01*
X1001Y3150D01*
X1002Y3150D01*
X1003Y3150D01*
X1004Y3150D01*
X1005Y3150D01*
X1006Y3150D01*
X1007Y3150D01*
X1008Y3150D01*
X1009Y3150D01*
X1010Y3150D01*
X1011Y3150D01*
X1012Y3150D01*
X1013Y3150D01*
X1014Y3150D01*
X1015Y3150D01*
X1016Y3150D01*
X1017Y3150D01*
X1018Y3150D01*
X1019Y3150D01*
X1020Y3150D01*
X1021Y3150D01*
X1022Y3150D01*
X1023Y3150D01*
X1024Y3150D01*
X1025Y3150D01*
X1026Y3150D01*
X1027Y3150D01*
X1028Y3150D01*
X1029Y3150D01*
X1030Y3150D01*
X1031Y3150D01*
X1032Y3150D01*
X1033Y3150D01*
X1034Y3150D01*
X1035Y3150D01*
X1036Y3150D01*
X1037Y3150D01*
X1038Y3150D01*
X1039Y3150D01*
X1040Y3150D01*
X1041Y3150D01*
X1042Y3150D01*
X1043Y3150D01*
X1044Y3150D01*
X1045Y3150D01*
X1046Y3150D01*
X1047Y3150D01*
X1048Y3150D01*
X1049Y3150D01*
X1050Y3150D01*
X1051Y3150D01*
X1052Y3150D01*
X1053Y3150D01*
X1054Y3150D01*
X1055Y3150D01*
X1056Y3150D01*
X1057Y3150D01*
X1058Y3150D01*
X1059Y3150D01*
X1060Y3150D01*
X1061Y3150D01*
X1062Y3150D01*
X1063Y3150D01*
X1064Y3150D01*
X1065Y3150D01*
X1066Y3150D01*
X1067Y3150D01*
X1068Y3150D01*
X1069Y3150D01*
X1070Y3150D01*
X1071Y3150D01*
X1072Y3150D01*
X1073Y3150D01*
X1074Y3150D01*
X1075Y3150D01*
X1076Y3150D01*
X1077Y3150D01*
X1078Y3150D01*
X1079Y3150D01*
X1080Y3150D01*
X1081Y3150D01*
X1082Y3150D01*
X1083Y3150D01*
X1084Y3150D01*
X1085Y3150D01*
X1086Y3150D01*
X1087Y3150D01*
X1088Y3150D01*
X1089Y3150D01*
X1090Y3150D01*
X1091Y3150D01*
X1092Y3150D01*
X1093Y3150D01*
X1094Y3150D01*
X1095Y3150D01*
X1096Y3150D01*
X1097Y3150D01*
X1098Y3150D01*
X1099Y3150D01*
X1100Y3150D01*
X1101Y3150D01*
X1102Y3150D01*
X1103Y3150D01*
X1104Y3150D01*
X1105Y3150D01*
X1106Y3150D01*
X1107Y3150D01*
X1108Y3150D01*
X1109Y3150D01*
X1110Y3150D01*
X1111Y3150D01*
X1112Y3150D01*
X1113Y3150D01*
X1114Y3150D01*
X1115Y3150D01*
X1116Y3150D01*
X1117Y3150D01*
X1118Y3150D01*
X1119Y3150D01*
X1120Y3150D01*
X1121Y3150D01*
X1122Y3150D01*
X1123Y3150D01*
X1124Y3150D01*
X1125Y3150D01*
X1126Y3150D01*
X1127Y3150D01*
X1128Y3150D01*
X1129Y3150D01*
X1130Y3150D01*
X1131Y3150D01*
X1132Y3150D01*
X1133Y3150D01*
X1134Y3150D01*
X1135Y3150D01*
X1136Y3150D01*
X1137Y3150D01*
X1138Y3150D01*
X1139Y3150D01*
X1140Y3150D01*
X1141Y3150D01*
X1142Y3150D01*
X1143Y3150D01*
X1144Y3150D01*
X1145Y3150D01*
X1146Y3150D01*
X1147Y3150D01*
X1148Y3150D01*
X1149Y3150D01*
X1150Y3150D01*
X1151Y3150D01*
X1152Y3150D01*
X1153Y3150D01*
X1154Y3150D01*
X1155Y3150D01*
X1156Y3150D01*
X1157Y3150D01*
X1158Y3150D01*
X1159Y3150D01*
X1160Y3150D01*
X1161Y3150D01*
X1162Y3150D01*
X1163Y3150D01*
X1164Y3150D01*
X1165Y3150D01*
X1166Y3150D01*
X1167Y3150D01*
X1168Y3150D01*
X1169Y3150D01*
X1170Y3150D01*
X1171Y3150D01*
X1172Y3150D01*
X1173Y3150D01*
X1174Y3150D01*
X1175Y3150D01*
X1176Y3150D01*
X1177Y3150D01*
X1178Y3150D01*
X1179Y3150D01*
X1180Y3150D01*
X1181Y3150D01*
X1182Y3150D01*
X1183Y3150D01*
X1184Y3150D01*
X1185Y3150D01*
X1186Y3150D01*
X1187Y3150D01*
X1188Y3150D01*
X1189Y3150D01*
X1190Y3150D01*
X1191Y3150D01*
X1192Y3150D01*
X1193Y3150D01*
X1194Y3150D01*
X1195Y3150D01*
X1196Y3150D01*
X1197Y3150D01*
X1198Y3150D01*
X1199Y3150D01*
X1200Y3150D01*
X1201Y3150D01*
X1202Y3150D01*
X1203Y3150D01*
X1204Y3150D01*
X1205Y3150D01*
X1206Y3150D01*
X1207Y3150D01*
X1208Y3150D01*
X1209Y3150D01*
X1210Y3150D01*
X1211Y3150D01*
X1212Y3150D01*
X1213Y3150D01*
X1214Y3150D01*
X1215Y3150D01*
X1216Y3150D01*
X1217Y3150D01*
X1218Y3150D01*
X1219Y3150D01*
X1220Y3150D01*
X1221Y3150D01*
X1222Y3150D01*
X1223Y3150D01*
X1224Y3150D01*
X1225Y3150D01*
X1226Y3150D01*
X1227Y3150D01*
X1228Y3150D01*
X1229Y3150D01*
X1230Y3150D01*
X1231Y3150D01*
X1232Y3150D01*
X1233Y3150D01*
X1234Y3150D01*
X1235Y3150D01*
X1236Y3150D01*
X1237Y3150D01*
X1238Y3150D01*
X1239Y3150D01*
X1240Y3150D01*
X1241Y3150D01*
X1242Y3150D01*
X1243Y3150D01*
X1244Y3150D01*
X1245Y3150D01*
X1246Y3150D01*
X1247Y3150D01*
X1248Y3150D01*
X1249Y3150D01*
X1250Y3150D01*
X1251Y3150D01*
X1252Y3150D01*
X1253Y3150D01*
X1254Y3150D01*
X1255Y3150D01*
X1256Y3150D01*
X1257Y3150D01*
X1258Y3150D01*
X1259Y3150D01*
X1260Y3150D01*
X1261Y3150D01*
X1262Y3150D01*
X1263Y3150D01*
X1264Y3150D01*
X1265Y3150D01*
X1266Y3150D01*
X1267Y3150D01*
X1268Y3150D01*
X1269Y3150D01*
X1270Y3150D01*
X1271Y3150D01*
X1272Y3150D01*
X1273Y3150D01*
X1274Y3150D01*
X1275Y3150D01*
X1276Y3150D01*
X1277Y3150D01*
X1278Y3150D01*
X1279Y3150D01*
X1280Y3150D01*
X1281Y3150D01*
X1282Y3150D01*
X1283Y3150D01*
X1284Y3150D01*
X1285Y3150D01*
X1286Y3150D01*
X1287Y3150D01*
X1288Y3150D01*
X1289Y3150D01*
X1290Y3150D01*
X1291Y3150D01*
X1292Y3150D01*
X1293Y3150D01*
X1294Y3150D01*
X1295Y3150D01*
X1296Y3150D01*
X1297Y3150D01*
X1298Y3150D01*
X1299Y3150D01*
X1300Y3150D01*
X1301Y3150D01*
X1302Y3150D01*
X1303Y3150D01*
X1304Y3150D01*
X1305Y3150D01*
X1306Y3150D01*
X1307Y3150D01*
X1308Y3150D01*
X1309Y3150D01*
X1310Y3150D01*
X1311Y3150D01*
X1312Y3150D01*
X1313Y3150D01*
X1314Y3150D01*
X1315Y3150D01*
X1316Y3150D01*
X1317Y3150D01*
X1318Y3150D01*
X1319Y3150D01*
X1320Y3150D01*
X1321Y3150D01*
X1322Y3150D01*
X1323Y3150D01*
X1324Y3150D01*
X1325Y3150D01*
X1326Y3150D01*
X1327Y3150D01*
X1328Y3150D01*
X1329Y3150D01*
X1330Y3150D01*
X1331Y3150D01*
X1332Y3150D01*
X1333Y3150D01*
X1334Y3150D01*
X1335Y3150D01*
X1336Y3150D01*
X1337Y3150D01*
X1338Y3150D01*
X1339Y3150D01*
X1340Y3150D01*
X1341Y3150D01*
X1342Y3150D01*
X1343Y3150D01*
X1344Y3150D01*
X1345Y3150D01*
X1346Y3150D01*
X1347Y3150D01*
X1348Y3150D01*
X1349Y3150D01*
X1350Y3150D01*
X1351Y3150D01*
X1352Y3150D01*
X1353Y3150D01*
X1354Y3150D01*
X1355Y3150D01*
X1356Y3150D01*
X1357Y3150D01*
X1358Y3150D01*
X1359Y3150D01*
X1360Y3150D01*
X1361Y3150D01*
X1362Y3150D01*
X1363Y3150D01*
X1364Y3150D01*
X1365Y3150D01*
X1366Y3150D01*
X1367Y3150D01*
X1368Y3150D01*
X1369Y3150D01*
X1370Y3150D01*
X1371Y3150D01*
X1372Y3150D01*
X1373Y3150D01*
X1374Y3150D01*
X1375Y3150D01*
X1376Y3150D01*
X1377Y3150D01*
X1378Y3150D01*
X1379Y3150D01*
X1380Y3150D01*
X1381Y3150D01*
X1382Y3150D01*
X1383Y3150D01*
X1384Y3150D01*
X1385Y3150D01*
X1386Y3150D01*
X1387Y3150D01*
X1388Y3150D01*
X1389Y3150D01*
X1390Y3150D01*
X1391Y3150D01*
X1392Y3150D01*
X1393Y3150D01*
X1394Y3150D01*
X1395Y3150D01*
X1396Y3150D01*
X1397Y3150D01*
X1398Y3150D01*
X1399Y3150D01*
X1400Y3150D01*
X1401Y3150D01*
X1402Y3150D01*
X1403Y3150D01*
X1404Y3150D01*
X1405Y3150D01*
X1406Y3150D01*
X1407Y3150D01*
X1408Y3150D01*
X1409Y3150D01*
X1410Y3150D01*
X1411Y3150D01*
X1412Y3150D01*
X1413Y3150D01*
X1414Y3150D01*
X1415Y3150D01*
X1416Y3150D01*
X1417Y3150D01*
X1418Y3150D01*
X1419Y3150D01*
X1420Y3150D01*
X1421Y3150D01*
X1422Y3150D01*
X1423Y3150D01*
X1424Y3150D01*
X1425Y3150D01*
X1426Y3150D01*
X1427Y3150D01*
X1428Y3150D01*
X1429Y3150D01*
X1430Y3150D01*
X1431Y3150D01*
X1432Y3150D01*
X1433Y3150D01*
X1434Y3150D01*
X1435Y3150D01*
X1436Y3150D01*
X1437Y3150D01*
X1438Y3150D01*
X1439Y3150D01*
X1440Y3150D01*
X1441Y3150D01*
X1442Y3150D01*
X1443Y3150D01*
X1444Y3150D01*
X1445Y3150D01*
X1446Y3150D01*
X1447Y3150D01*
X1448Y3150D01*
X1449Y3150D01*
X1450Y3150D01*
X1451Y3150D01*
X1452Y3150D01*
X1453Y3150D01*
X1454Y3150D01*
X1455Y3150D01*
X1456Y3150D01*
X1457Y3150D01*
X1458Y3150D01*
X1459Y3150D01*
X1460Y3150D01*
X1461Y3150D01*
X1462Y3150D01*
X1463Y3150D01*
X1464Y3150D01*
X1465Y3150D01*
X1466Y3150D01*
X1467Y3150D01*
X1468Y3150D01*
X1469Y3150D01*
X1470Y3150D01*
X1471Y3150D01*
X1472Y3150D01*
X1473Y3150D01*
X1474Y3150D01*
X1475Y3150D01*
X1476Y3150D01*
X1477Y3150D01*
X1478Y3150D01*
X1479Y3150D01*
X1480Y3150D01*
X1481Y3150D01*
X1482Y3150D01*
X1483Y3150D01*
X1484Y3150D01*
X1485Y3150D01*
X1486Y3150D01*
X1487Y3150D01*
X1488Y3150D01*
X1489Y3150D01*
X1490Y3150D01*
X1491Y3150D01*
X1492Y3150D01*
X1493Y3150D01*
X1494Y3150D01*
X1495Y3150D01*
X1496Y3150D01*
X1497Y3150D01*
X1498Y3150D01*
X1499Y3150D01*
X1500Y3150D01*
X1501Y3150D01*
X1502Y3150D01*
X1503Y3150D01*
X1504Y3150D01*
X1505Y3150D01*
X1506Y3150D01*
X1507Y3150D01*
X1508Y3150D01*
X1509Y3150D01*
X1510Y3150D01*
X1511Y3150D01*
X1512Y3150D01*
X1513Y3150D01*
X1514Y3150D01*
X1515Y3150D01*
X1516Y3150D01*
X1517Y3150D01*
X1518Y3150D01*
X1519Y3150D01*
X1520Y3150D01*
X1521Y3150D01*
X1522Y3150D01*
X1523Y3150D01*
X1524Y3150D01*
X1525Y3150D01*
X1526Y3150D01*
X1527Y3150D01*
X1528Y3150D01*
X1529Y3150D01*
X1530Y3150D01*
X1531Y3150D01*
X1532Y3150D01*
X1533Y3150D01*
X1534Y3150D01*
X1535Y3150D01*
X1536Y3150D01*
X1537Y3150D01*
X1538Y3150D01*
X1539Y3150D01*
X1540Y3150D01*
X1541Y3150D01*
X1542Y3150D01*
X1543Y3150D01*
X1544Y3150D01*
X1545Y3150D01*
X1546Y3150D01*
X1547Y3150D01*
X1548Y3150D01*
X1549Y3150D01*
X1550Y3150D01*
X1551Y3150D01*
X1552Y3150D01*
X1553Y3150D01*
X1554Y3150D01*
X1555Y3150D01*
X1556Y3150D01*
X1557Y3150D01*
X1558Y3150D01*
X1559Y3150D01*
X1560Y3150D01*
X1561Y3150D01*
X1562Y3150D01*
X1563Y3150D01*
X1564Y3150D01*
X1565Y3150D01*
X1566Y3150D01*
X1567Y3150D01*
X1568Y3150D01*
X1569Y3150D01*
X1570Y3150D01*
X1571Y3150D01*
X1572Y3150D01*
X1573Y3150D01*
X1574Y3150D01*
X1575Y3150D01*
X1576Y3150D01*
X1577Y3150D01*
X1578Y3150D01*
X1579Y3150D01*
X1580Y3150D01*
X1581Y3150D01*
X1582Y3150D01*
X1583Y3150D01*
X1584Y3150D01*
X1585Y3150D01*
X1586Y3150D01*
X1587Y3150D01*
X1588Y3150D01*
X1589Y3150D01*
X1590Y3150D01*
X1591Y3150D01*
X1592Y3150D01*
X1593Y3150D01*
X1594Y3150D01*
X1595Y3150D01*
X1596Y3150D01*
X1597Y3150D01*
X1598Y3150D01*
X1599Y3150D01*
X1600Y3150D01*
X1601Y3150D01*
X1602Y3150D01*
X1603Y3150D01*
X1604Y3150D01*
X1605Y3150D01*
X1606Y3150D01*
X1607Y3150D01*
X1608Y3150D01*
X1609Y3150D01*
X1610Y3150D01*
X1611Y3150D01*
X1612Y3150D01*
X1613Y3150D01*
X1614Y3150D01*
X1615Y3150D01*
X1616Y3150D01*
X1617Y3150D01*
X1618Y3150D01*
X1619Y3150D01*
X1620Y3150D01*
X1621Y3150D01*
X1622Y3150D01*
X1623Y3150D01*
X1624Y3150D01*
X1625Y3150D01*
X1626Y3150D01*
X1627Y3150D01*
X1628Y3150D01*
X1629Y3150D01*
X1630Y3150D01*
X1631Y3150D01*
X1632Y3150D01*
X1633Y3150D01*
X1634Y3150D01*
X1635Y3150D01*
X1636Y3150D01*
X1637Y3150D01*
X1638Y3150D01*
X1639Y3150D01*
X1640Y3150D01*
X1641Y3150D01*
X1642Y3150D01*
X1643Y3150D01*
X1644Y3150D01*
X1645Y3150D01*
X1646Y3150D01*
X1647Y3150D01*
X1648Y3150D01*
X1649Y3150D01*
X1650Y3150D01*
X1651Y3150D01*
X1652Y3150D01*
X1653Y3150D01*
X1654Y3150D01*
X1655Y3150D01*
X1656Y3150D01*
X1657Y3150D01*
X1658Y3150D01*
X1659Y3150D01*
X1660Y3150D01*
X1661Y3150D01*
X1662Y3150D01*
X1663Y3150D01*
X1664Y3150D01*
X1665Y3150D01*
X1666Y3150D01*
X1667Y3150D01*
X1668Y3150D01*
X1669Y3150D01*
X1670Y3150D01*
X1671Y3150D01*
X1672Y3150D01*
X1673Y3150D01*
X1674Y3150D01*
X1675Y3150D01*
X1676Y3150D01*
X1677Y3150D01*
X1678Y3150D01*
X1679Y3150D01*
X1680Y3150D01*
X1681Y3150D01*
X1682Y3150D01*
X1683Y3150D01*
X1684Y3150D01*
X1685Y3150D01*
X1686Y3150D01*
X1687Y3150D01*
X1688Y3150D01*
X1689Y3150D01*
X1690Y3150D01*
X1691Y3150D01*
X1692Y3150D01*
X1693Y3150D01*
X1694Y3150D01*
X1695Y3150D01*
X1696Y3150D01*
X1697Y3150D01*
X1698Y3150D01*
X1699Y3150D01*
X1700Y3150D01*
X1701Y3150D01*
X1702Y3150D01*
X1703Y3150D01*
X1704Y3150D01*
X1705Y3150D01*
X1706Y3150D01*
X1707Y3150D01*
X1708Y3150D01*
X1709Y3150D01*
X1710Y3150D01*
X1711Y3150D01*
X1712Y3150D01*
X1713Y3150D01*
X1714Y3150D01*
X1715Y3150D01*
X1716Y3150D01*
X1717Y3150D01*
X1718Y3150D01*
X1719Y3150D01*
X1720Y3150D01*
X1721Y3150D01*
X1722Y3150D01*
X1723Y3150D01*
X1724Y3150D01*
X1725Y3150D01*
X1726Y3150D01*
X1727Y3150D01*
X1728Y3150D01*
X1729Y3150D01*
X1730Y3150D01*
X1731Y3150D01*
X1732Y3150D01*
X1733Y3150D01*
X1734Y3150D01*
X1735Y3150D01*
X1736Y3150D01*
X1737Y3150D01*
X1738Y3150D01*
X1739Y3150D01*
X1740Y3150D01*
X1741Y3150D01*
X1742Y3150D01*
X1743Y3150D01*
X1744Y3150D01*
X1745Y3150D01*
X1746Y3150D01*
X1747Y3150D01*
X1748Y3150D01*
X1749Y3150D01*
X1750Y3150D01*
X1751Y3150D01*
X1752Y3150D01*
X1753Y3150D01*
X1754Y3150D01*
X1755Y3150D01*
X1756Y3150D01*
X1757Y3150D01*
X1758Y3150D01*
X1759Y3150D01*
X1760Y3150D01*
X1761Y3150D01*
X1762Y3150D01*
X1763Y3150D01*
X1764Y3150D01*
X1765Y3150D01*
X1766Y3150D01*
X1767Y3150D01*
X1768Y3150D01*
X1769Y3150D01*
X1770Y3150D01*
X1771Y3150D01*
X1772Y3150D01*
X1773Y3150D01*
X1774Y3150D01*
X1775Y3150D01*
X1776Y3150D01*
X1777Y3150D01*
X1778Y3150D01*
X1779Y3150D01*
X1780Y3150D01*
X1781Y3150D01*
X1782Y3150D01*
X1783Y3150D01*
X1784Y3150D01*
X1785Y3150D01*
X1786Y3150D01*
X1787Y3150D01*
X1788Y3150D01*
X1789Y3150D01*
X1790Y3150D01*
X1791Y3150D01*
X1792Y3150D01*
X1793Y3150D01*
X1794Y3150D01*
X1795Y3150D01*
X1796Y3150D01*
X1797Y3150D01*
X1798Y3150D01*
X1799Y3150D01*
X1800Y3150D01*
X1801Y3150D01*
X1802Y3150D01*
X1803Y3150D01*
X1804Y3150D01*
X1805Y3150D01*
X1806Y3150D01*
X1807Y3150D01*
X1808Y3150D01*
X1809Y3150D01*
X1810Y3150D01*
X1811Y3150D01*
X1812Y3150D01*
X1813Y3150D01*
X1814Y3150D01*
X1815Y3150D01*
X1816Y3150D01*
X1817Y3150D01*
X1818Y3150D01*
X1819Y3150D01*
X1820Y3150D01*
X1821Y3150D01*
X1822Y3150D01*
X1823Y3150D01*
X1824Y3150D01*
X1825Y3150D01*
X1826Y3150D01*
X1827Y3150D01*
X1828Y3150D01*
X1829Y3150D01*
X1830Y3150D01*
X1831Y3150D01*
X1832Y3150D01*
X1833Y3150D01*
X1834Y3150D01*
X1835Y3150D01*
X1836Y3150D01*
X1837Y3150D01*
X1838Y3150D01*
X1839Y3150D01*
X1840Y3150D01*
X1841Y3150D01*
X1842Y3150D01*
X1843Y3150D01*
X1844Y3150D01*
X1845Y3150D01*
X1846Y3150D01*
X1847Y3150D01*
X1848Y3150D01*
X1849Y3150D01*
X1850Y3150D01*
X1851Y3150D01*
X1852Y3150D01*
X1853Y3150D01*
X1854Y3150D01*
X1855Y3150D01*
X1856Y3150D01*
X1857Y3150D01*
X1858Y3150D01*
X1859Y3150D01*
X1860Y3150D01*
X1861Y3150D01*
X1862Y3150D01*
X1863Y3150D01*
X1864Y3150D01*
X1865Y3150D01*
X1866Y3150D01*
X1867Y3150D01*
X1868Y3150D01*
X1869Y3150D01*
X1870Y3150D01*
X1871Y3150D01*
X1872Y3150D01*
X1873Y3150D01*
X1874Y3150D01*
X1875Y3150D01*
X1876Y3150D01*
X1877Y3150D01*
X1878Y3150D01*
X1879Y3150D01*
X1880Y3150D01*
X1881Y3150D01*
X1882Y3150D01*
X1883Y3150D01*
X1884Y3150D01*
X1885Y3150D01*
X1886Y3150D01*
X1887Y3150D01*
X1888Y3150D01*
X1889Y3150D01*
X1890Y3150D01*
X1891Y3150D01*
X1892Y3150D01*
X1893Y3150D01*
X1894Y3150D01*
X1895Y3150D01*
X1896Y3150D01*
X1897Y3150D01*
X1898Y3150D01*
X1899Y3150D01*
X1900Y3150D01*
X1901Y3150D01*
X1902Y3150D01*
X1903Y3150D01*
X1904Y3150D01*
X1905Y3150D01*
X1906Y3150D01*
X1907Y3150D01*
X1908Y3150D01*
X1909Y3150D01*
X1910Y3150D01*
X1911Y3150D01*
X1912Y3150D01*
X1913Y3150D01*
X1914Y3150D01*
X1915Y3150D01*
X1916Y3150D01*
X1917Y3150D01*
X1918Y3150D01*
X1919Y3150D01*
X1920Y3150D01*
X1921Y3150D01*
X1922Y3150D01*
X1923Y3150D01*
X1924Y3150D01*
X1925Y3150D01*
X1926Y3150D01*
X1927Y3150D01*
X1928Y3150D01*
X1929Y3150D01*
X1930Y3150D01*
X1931Y3150D01*
X1932Y3150D01*
X1933Y3150D01*
X1934Y3150D01*
X1935Y3150D01*
X1936Y3150D01*
X1937Y3150D01*
X1938Y3150D01*
X1939Y3150D01*
X1940Y3150D01*
X1941Y3150D01*
X1942Y3150D01*
X1943Y3150D01*
X1944Y3150D01*
X1945Y3150D01*
X1946Y3150D01*
X1947Y3150D01*
X1948Y3150D01*
X1949Y3150D01*
X1950Y3150D01*
X1951Y3150D01*
X1952Y3150D01*
X1953Y3150D01*
X1954Y3150D01*
X1955Y3150D01*
X1956Y3150D01*
X1957Y3150D01*
X1958Y3150D01*
X1959Y3150D01*
X1960Y3150D01*
X1961Y3150D01*
X1962Y3150D01*
X1963Y3150D01*
X1964Y3150D01*
X1965Y3150D01*
X1966Y3150D01*
X1967Y3150D01*
X1968Y3150D01*
X1969Y3150D01*
X1970Y3150D01*
X1971Y3150D01*
X1972Y3150D01*
X1973Y3150D01*
X1974Y3150D01*
X1975Y3150D01*
X1976Y3150D01*
X1977Y3150D01*
X1978Y3150D01*
X1979Y3150D01*
X1980Y3150D01*
X1981Y3150D01*
X1982Y3150D01*
X1983Y3150D01*
X1984Y3150D01*
X1985Y3150D01*
X1986Y3150D01*
X1987Y3150D01*
X1988Y3150D01*
X1989Y3150D01*
X1990Y3150D01*
X1991Y3150D01*
X1992Y3150D01*
X1993Y3150D01*
X1994Y3150D01*
X1995Y3150D01*
X1996Y3150D01*
X1997Y3150D01*
X1998Y3150D01*
X1999Y3150D01*
X2000Y3150D01*
X2001Y3150D01*
X2002Y3150D01*
X2003Y3150D01*
X2004Y3150D01*
X2005Y3150D01*
X2006Y3150D01*
X2007Y3150D01*
X2008Y3150D01*
X2009Y3150D01*
X2010Y3150D01*
X2011Y3150D01*
X2012Y3150D01*
X2013Y3150D01*
X2014Y3150D01*
X2015Y3150D01*
X2016Y3150D01*
X2017Y3150D01*
X2018Y3150D01*
X2019Y3150D01*
X2020Y3150D01*
X2021Y3150D01*
X2022Y3150D01*
X2023Y3150D01*
X2024Y3150D01*
X2025Y3150D01*
X2026Y3150D01*
X2027Y3150D01*
X2028Y3150D01*
X2029Y3150D01*
X2030Y3150D01*
X2031Y3150D01*
X2032Y3150D01*
X2033Y3150D01*
X2034Y3150D01*
X2035Y3150D01*
X2036Y3150D01*
X2037Y3150D01*
X2038Y3150D01*
X2039Y3150D01*
X2040Y3150D01*
X2041Y3150D01*
X2042Y3150D01*
X2043Y3150D01*
X2044Y3150D01*
X2045Y3150D01*
X2046Y3150D01*
X2047Y3150D01*
X2048Y3150D01*
X2049Y3150D01*
X2050Y3150D01*
X2051Y3150D01*
X2052Y3150D01*
X2053Y3150D01*
X2054Y3150D01*
X2055Y3150D01*
X2056Y3150D01*
X2057Y3150D01*
X2058Y3150D01*
X2059Y3150D01*
X2060Y3150D01*
X2061Y3150D01*
X2062Y3150D01*
X2063Y3150D01*
X2064Y3150D01*
X2065Y3150D01*
X2066Y3150D01*
X2067Y3150D01*
X2068Y3150D01*
X2069Y3150D01*
X2070Y3150D01*
X2071Y3150D01*
X2072Y3150D01*
X2073Y3150D01*
X2074Y3150D01*
X2075Y3150D01*
X2076Y3150D01*
X2077Y3150D01*
X2078Y3150D01*
X2079Y3150D01*
X2080Y3150D01*
X2081Y3150D01*
X2082Y3150D01*
X2083Y3150D01*
X2084Y3150D01*
X2085Y3150D01*
X2086Y3150D01*
X2087Y3150D01*
X2088Y3150D01*
X2089Y3150D01*
X2090Y3150D01*
X2091Y3150D01*
X2092Y3150D01*
X2093Y3150D01*
X2094Y3150D01*
X2095Y3150D01*
X2096Y3150D01*
X2097Y3150D01*
X2098Y3150D01*
X2099Y3150D01*
X2100Y3150D01*
X2101Y3150D01*
X2102Y3150D01*
X2103Y3150D01*
X2104Y3150D01*
X2105Y3150D01*
X2106Y3150D01*
X2107Y3150D01*
X2108Y3150D01*
X2109Y3150D01*
X2110Y3150D01*
X2111Y3150D01*
X2112Y3150D01*
X2113Y3150D01*
X2114Y3150D01*
X2115Y3150D01*
X2116Y3150D01*
X2117Y3150D01*
X2118Y3150D01*
X2119Y3150D01*
X2120Y3150D01*
X2121Y3150D01*
X2122Y3150D01*
X2123Y3150D01*
X2124Y3150D01*
X2125Y3150D01*
X2126Y3150D01*
X2127Y3150D01*
X2128Y3150D01*
X2129Y3150D01*
X2130Y3150D01*
X2131Y3150D01*
X2132Y3150D01*
X2133Y3150D01*
X2134Y3150D01*
X2135Y3150D01*
X2136Y3150D01*
X2137Y3150D01*
X2138Y3150D01*
X2139Y3150D01*
X2140Y3150D01*
X2141Y3150D01*
X2142Y3150D01*
X2143Y3150D01*
X2144Y3150D01*
X2145Y3150D01*
X2146Y3150D01*
X2147Y3150D01*
X2148Y3150D01*
X2149Y3150D01*
X2150Y3150D01*
X2151Y3150D01*
X2152Y3150D01*
X2153Y3150D01*
X2154Y3150D01*
X2155Y3150D01*
X2156Y3150D01*
X2157Y3150D01*
X2158Y3150D01*
X2159Y3150D01*
X2160Y3150D01*
X2161Y3150D01*
X2162Y3150D01*
X2163Y3150D01*
X2164Y3150D01*
X2165Y3150D01*
X2166Y3150D01*
X2167Y3150D01*
X2168Y3150D01*
X2169Y3150D01*
X2170Y3150D01*
X2171Y3150D01*
X2172Y3150D01*
X2173Y3150D01*
X2174Y3150D01*
X2175Y3150D01*
X2176Y3150D01*
X2177Y3150D01*
X2178Y3150D01*
X2179Y3150D01*
X2180Y3150D01*
X2181Y3150D01*
X2182Y3150D01*
X2183Y3150D01*
X2184Y3150D01*
X2185Y3150D01*
X2186Y3150D01*
X2187Y3150D01*
X2188Y3150D01*
X2189Y3150D01*
X2190Y3150D01*
X2191Y3150D01*
X2192Y3150D01*
X2193Y3150D01*
X2194Y3150D01*
X2195Y3150D01*
X2196Y3150D01*
X2197Y3150D01*
X2198Y3150D01*
X2199Y3150D01*
X2200Y3150D01*
X2201Y3150D01*
X2202Y3150D01*
X2203Y3150D01*
X2204Y3150D01*
X2205Y3150D01*
X2206Y3150D01*
X2207Y3150D01*
X2208Y3150D01*
X2209Y3150D01*
X2210Y3150D01*
X2211Y3150D01*
X2212Y3150D01*
X2213Y3150D01*
X2214Y3150D01*
X2215Y3150D01*
X2216Y3150D01*
X2217Y3150D01*
X2218Y3150D01*
X2219Y3150D01*
X2220Y3150D01*
X2221Y3150D01*
X2222Y3150D01*
X2223Y3150D01*
X2224Y3150D01*
X2225Y3150D01*
X2226Y3150D01*
X2227Y3150D01*
X2228Y3150D01*
X2229Y3150D01*
X2230Y3150D01*
X2231Y3150D01*
X2232Y3150D01*
X2233Y3150D01*
X2234Y3150D01*
X2235Y3150D01*
X2236Y3150D01*
X2237Y3150D01*
X2238Y3150D01*
X2239Y3150D01*
X2240Y3150D01*
X2241Y3150D01*
X2242Y3150D01*
X2243Y3150D01*
X2244Y3150D01*
X2245Y3150D01*
X2246Y3150D01*
X2247Y3150D01*
X2248Y3150D01*
X2249Y3150D01*
X2250Y3150D01*
X2251Y3150D01*
X2252Y3150D01*
X2253Y3150D01*
X2254Y3150D01*
X2255Y3150D01*
X2256Y3150D01*
X2257Y3150D01*
X2258Y3150D01*
X2259Y3150D01*
X2260Y3150D01*
X2261Y3150D01*
X2262Y3150D01*
X2263Y3150D01*
X2264Y3150D01*
X2265Y3150D01*
X2266Y3150D01*
X2267Y3150D01*
X2268Y3150D01*
X2269Y3150D01*
X2270Y3150D01*
X2271Y3150D01*
X2272Y3150D01*
X2273Y3150D01*
X2274Y3150D01*
X2275Y3150D01*
X2276Y3150D01*
X2277Y3150D01*
X2278Y3150D01*
X2279Y3150D01*
X2280Y3150D01*
X2281Y3150D01*
X2282Y3150D01*
X2283Y3150D01*
X2284Y3150D01*
X2285Y3150D01*
X2286Y3150D01*
X2287Y3150D01*
X2288Y3150D01*
X2289Y3150D01*
X2290Y3150D01*
X2291Y3150D01*
X2292Y3150D01*
X2293Y3150D01*
X2294Y3150D01*
X2295Y3150D01*
X2296Y3150D01*
X2297Y3150D01*
X2298Y3150D01*
X2299Y3150D01*
X2300Y3150D01*
X2301Y3150D01*
X2302Y3150D01*
X2303Y3150D01*
X2304Y3150D01*
X2305Y3150D01*
X2306Y3150D01*
X2307Y3150D01*
X2308Y3150D01*
X2309Y3150D01*
X2310Y3150D01*
X2311Y3150D01*
X2312Y3150D01*
X2313Y3150D01*
X2314Y3150D01*
X2315Y3150D01*
X2316Y3150D01*
X2317Y3150D01*
X2318Y3150D01*
X2319Y3150D01*
X2320Y3150D01*
X2321Y3150D01*
X2322Y3150D01*
X2323Y3150D01*
X2324Y3150D01*
X2325Y3150D01*
X2326Y3150D01*
X2327Y3150D01*
X2328Y3150D01*
X2329Y3150D01*
X2330Y3150D01*
X2331Y3150D01*
X2332Y3150D01*
X2333Y3150D01*
X2334Y3150D01*
X2335Y3150D01*
X2336Y3150D01*
X2337Y3150D01*
X2338Y3150D01*
X2339Y3150D01*
X2340Y3150D01*
X2341Y3150D01*
X2342Y3150D01*
X2343Y3150D01*
X2344Y3150D01*
X2345Y3150D01*
X2346Y3150D01*
X2347Y3150D01*
X2348Y3150D01*
X2349Y3150D01*
X2350Y3150D01*
X2351Y3150D01*
X2352Y3150D01*
X2353Y3150D01*
X2354Y3150D01*
X2355Y3150D01*
X2356Y3150D01*
X2357Y3150D01*
X2358Y3150D01*
X2359Y3150D01*
X2360Y3150D01*
X2361Y3150D01*
X2362Y3150D01*
X2363Y3150D01*
X2364Y3150D01*
X2365Y3150D01*
X2366Y3150D01*
X2367Y3150D01*
X2368Y3150D01*
X2369Y3150D01*
X2370Y3150D01*
X2371Y3150D01*
X2372Y3150D01*
X2373Y3150D01*
X2374Y3150D01*
X2375Y3150D01*
X2376Y3150D01*
X2377Y3150D01*
X2378Y3150D01*
X2379Y3150D01*
X2380Y3150D01*
X2381Y3150D01*
X2382Y3150D01*
X2383Y3150D01*
X2384Y3150D01*
X2385Y3150D01*
X2386Y3150D01*
X2387Y3150D01*
X2388Y3150D01*
X2389Y3150D01*
X2390Y3150D01*
X2391Y3150D01*
X2392Y3150D01*
X2393Y3150D01*
X2394Y3150D01*
X2395Y3150D01*
X2396Y3150D01*
X2397Y3150D01*
X2398Y3150D01*
X2399Y3150D01*
X2400Y3150D01*
X2401Y3150D01*
X2402Y3150D01*
X2403Y3150D01*
X2404Y3150D01*
X2405Y3150D01*
X2406Y3150D01*
X2407Y3150D01*
X2408Y3150D01*
X2409Y3150D01*
X2410Y3150D01*
X2411Y3150D01*
X2412Y3150D01*
X2413Y3150D01*
X2414Y3150D01*
X2415Y3150D01*
X2416Y3150D01*
X2417Y3150D01*
X2418Y3150D01*
X2419Y3150D01*
X2420Y3150D01*
X2421Y3150D01*
X2422Y3150D01*
X2423Y3150D01*
X2424Y3150D01*
X2425Y3150D01*
X2426Y3150D01*
X2427Y3150D01*
X2428Y3150D01*
X2429Y3150D01*
X2430Y3150D01*
X2431Y3150D01*
X2432Y3150D01*
X2433Y3150D01*
X2434Y3150D01*
X2435Y3150D01*
X2436Y3150D01*
X2437Y3150D01*
X2438Y3150D01*
X2439Y3150D01*
X2440Y3150D01*
X2441Y3150D01*
X2442Y3150D01*
X2443Y3150D01*
X2444Y3150D01*
X2445Y3150D01*
X2446Y3150D01*
X2447Y3150D01*
X2448Y3150D01*
X2449Y3150D01*
X2450Y3150D01*
X2451Y3150D01*
X2452Y3150D01*
X2453Y3150D01*
X2454Y3150D01*
X2455Y3150D01*
X2456Y3150D01*
X2457Y3150D01*
X2458Y3150D01*
X2459Y3150D01*
X2460Y3150D01*
X2461Y3150D01*
X2462Y3150D01*
X2463Y3150D01*
X2464Y3150D01*
X2465Y3150D01*
X2466Y3150D01*
X2467Y3150D01*
X2468Y3150D01*
X2469Y3150D01*
X2470Y3150D01*
X2471Y3150D01*
X2472Y3150D01*
X2473Y3150D01*
X2474Y3150D01*
X2475Y3150D01*
X2476Y3150D01*
X2477Y3150D01*
X2478Y3150D01*
X2479Y3150D01*
X2480Y3150D01*
X2481Y3150D01*
X2482Y3150D01*
X2483Y3150D01*
X2484Y3150D01*
X2485Y3150D01*
X2486Y3150D01*
X2487Y3150D01*
X2488Y3150D01*
X2489Y3150D01*
X2490Y3150D01*
X2491Y3150D01*
X2492Y3150D01*
X2493Y3150D01*
X2494Y3150D01*
X2495Y3150D01*
X2496Y3150D01*
X2497Y3150D01*
X2498Y3150D01*
X2499Y3150D01*
X2500Y3150D01*
X2501Y3150D01*
X2502Y3150D01*
X2503Y3150D01*
X2504Y3150D01*
X2505Y3150D01*
X2506Y3150D01*
X2507Y3150D01*
X2508Y3150D01*
X2509Y3150D01*
X2510Y3150D01*
X2511Y3150D01*
X2512Y3150D01*
X2513Y3150D01*
X2514Y3150D01*
X2515Y3150D01*
X2516Y3150D01*
X2517Y3150D01*
X2518Y3150D01*
X2519Y3150D01*
X2520Y3150D01*
X2521Y3150D01*
X2522Y3150D01*
X2523Y3150D01*
X2524Y3150D01*
X2525Y3150D01*
X2526Y3150D01*
X2527Y3150D01*
X2528Y3150D01*
X2529Y3150D01*
X2530Y3150D01*
X2531Y3150D01*
X2532Y3150D01*
X2533Y3150D01*
X2534Y3150D01*
X2535Y3150D01*
X2536Y3150D01*
X2537Y3150D01*
X2538Y3150D01*
X2539Y3150D01*
X2540Y3150D01*
X2541Y3150D01*
X2542Y3150D01*
X2543Y3150D01*
X2544Y3150D01*
X2545Y3150D01*
X2546Y3150D01*
X2547Y3150D01*
X2548Y3150D01*
X2549Y3150D01*
X2550Y3150D01*
X2551Y3150D01*
X2552Y3150D01*
X2553Y3150D01*
X2554Y3150D01*
X2555Y3150D01*
X2556Y3150D01*
X2557Y3150D01*
X2558Y3150D01*
X2559Y3150D01*
X2560Y3150D01*
X2561Y3150D01*
X2562Y3150D01*
X2563Y3150D01*
X2564Y3150D01*
X2565Y3150D01*
X2566Y3150D01*
X2567Y3150D01*
X2568Y3150D01*
X2569Y3150D01*
X2570Y3150D01*
X2571Y3150D01*
X2572Y3150D01*
X2573Y3150D01*
X2574Y3150D01*
X2575Y3150D01*
X2576Y3150D01*
X2577Y3150D01*
X2578Y3150D01*
X2579Y3150D01*
X2580Y3150D01*
X2581Y3150D01*
X2582Y3150D01*
X2583Y3150D01*
X2584Y3150D01*
X2585Y3150D01*
X2586Y3150D01*
X2587Y3150D01*
X2588Y3150D01*
X2589Y3150D01*
X2590Y3150D01*
X2591Y3150D01*
X2592Y3150D01*
X2593Y3150D01*
X2594Y3150D01*
X2595Y3150D01*
X2596Y3150D01*
X2597Y3150D01*
X2598Y3150D01*
X2599Y3150D01*
X2600Y3150D01*
X2601Y3150D01*
X2602Y3150D01*
X2603Y3150D01*
X2604Y3150D01*
X2605Y3150D01*
X2606Y3150D01*
X2607Y3150D01*
X2608Y3150D01*
X2609Y3150D01*
X2610Y3150D01*
X2611Y3150D01*
X2612Y3150D01*
X2613Y3150D01*
X2614Y3150D01*
X2615Y3150D01*
X2616Y3150D01*
X2617Y3150D01*
X2618Y3150D01*
X2619Y3150D01*
X2620Y3150D01*
X2621Y3150D01*
X2622Y3150D01*
X2623Y3150D01*
X2624Y3150D01*
X2625Y3150D01*
X2626Y3150D01*
X2627Y3150D01*
X2628Y3150D01*
X2629Y3150D01*
X2630Y3150D01*
X2631Y3150D01*
X2632Y3150D01*
X2633Y3150D01*
X2634Y3150D01*
X2635Y3150D01*
X2636Y3150D01*
X2637Y3150D01*
X2638Y3150D01*
X2639Y3150D01*
X2640Y3150D01*
X2641Y3150D01*
X2642Y3150D01*
X2643Y3150D01*
X2644Y3150D01*
X2645Y3150D01*
X2646Y3150D01*
X2647Y3150D01*
X2648Y3150D01*
X2649Y3150D01*
X2650Y3150D01*
X2651Y3150D01*
X2652Y3150D01*
X2653Y3150D01*
X2654Y3150D01*
X2655Y3150D01*
X2656Y3150D01*
X2657Y3150D01*
X2658Y3150D01*
X2659Y3150D01*
X2660Y3150D01*
X2661Y3150D01*
X2662Y3150D01*
X2663Y3150D01*
X2664Y3150D01*
X2665Y3150D01*
X2666Y3150D01*
X2667Y3150D01*
X2668Y3150D01*
X2669Y3150D01*
X2670Y3150D01*
X2671Y3150D01*
X2672Y3150D01*
X2673Y3150D01*
X2674Y3150D01*
X2675Y3150D01*
X2676Y3150D01*
X2677Y3150D01*
X2678Y3150D01*
X2679Y3150D01*
X2680Y3150D01*
X2681Y3150D01*
X2682Y3150D01*
X2683Y3150D01*
X2684Y3150D01*
X2685Y3150D01*
X2686Y3150D01*
X2687Y3150D01*
X2688Y3150D01*
X2689Y3150D01*
X2690Y3150D01*
X2691Y3150D01*
X2692Y3150D01*
X2693Y3150D01*
X2694Y3150D01*
X2695Y3150D01*
X2696Y3150D01*
X2697Y3150D01*
X2698Y3150D01*
X2699Y3150D01*
X2700Y3150D01*
X2701Y3150D01*
X2702Y3150D01*
X2703Y3150D01*
X2704Y3150D01*
X2705Y3150D01*
X2706Y3150D01*
X2707Y3150D01*
X2708Y3150D01*
X2709Y3150D01*
X2710Y3150D01*
X2711Y3150D01*
X2712Y3150D01*
X2713Y3150D01*
X2714Y3150D01*
X2715Y3150D01*
X2716Y3150D01*
X2717Y3150D01*
X2718Y3150D01*
X2719Y3150D01*
X2720Y3150D01*
X2721Y3150D01*
X2722Y3150D01*
X2723Y3150D01*
X2724Y3150D01*
X2725Y3150D01*
X2726Y3150D01*
X2727Y3150D01*
X2728Y3150D01*
X2729Y3150D01*
X2730Y3150D01*
X2731Y3150D01*
X2732Y3150D01*
X2733Y3150D01*
X2734Y3150D01*
X2735Y3150D01*
X2736Y3150D01*
X2737Y3150D01*
X2738Y3150D01*
X2739Y3150D01*
X2740Y3150D01*
X2741Y3150D01*
X2742Y3150D01*
X2743Y3150D01*
X2744Y3150D01*
X2745Y3150D01*
X2746Y3150D01*
X2747Y3150D01*
X2748Y3150D01*
X2749Y3150D01*
X2750Y3150D01*
X2751Y3150D01*
X2752Y3150D01*
X2753Y3150D01*
X2754Y3150D01*
X2755Y3150D01*
X2756Y3150D01*
X2757Y3150D01*
X2758Y3150D01*
X2759Y3150D01*
X2760Y3150D01*
X2761Y3150D01*
X2762Y3150D01*
X2763Y3150D01*
X2764Y3150D01*
X2765Y3150D01*
X2766Y3150D01*
X2767Y3150D01*
X2768Y3150D01*
X2769Y3150D01*
X2770Y3150D01*
X2771Y3150D01*
X2772Y3149D01*
X2773Y3149D01*
X2774Y3149D01*
X2775Y3149D01*
X2776Y3149D01*
X2777Y3149D01*
X2778Y3149D01*
X2779Y3149D01*
X2780Y3149D01*
X2781Y3149D01*
X2782Y3149D01*
X2783Y3149D01*
X2784Y3149D01*
X2785Y3149D01*
X2786Y3149D01*
X2787Y3148D01*
X2788Y3148D01*
X2789Y3148D01*
X2790Y3148D01*
X2791Y3148D01*
X2792Y3148D01*
X2793Y3148D01*
X2794Y3148D01*
X2795Y3148D01*
X2796Y3148D01*
X2797Y3147D01*
X2798Y3147D01*
X2799Y3147D01*
X2800Y3147D01*
X2801Y3147D01*
X2802Y3147D01*
X2803Y3147D01*
X2804Y3147D01*
X2805Y3146D01*
X2806Y3146D01*
X2807Y3146D01*
X2808Y3146D01*
X2809Y3146D01*
X2810Y3146D01*
X2811Y3146D01*
X2812Y3145D01*
X2813Y3145D01*
X2814Y3145D01*
X2815Y3145D01*
X2816Y3145D01*
X2817Y3145D01*
X2818Y3144D01*
X2819Y3144D01*
X2820Y3144D01*
X2821Y3144D01*
X2822Y3144D01*
X2823Y3144D01*
X2824Y3143D01*
X2825Y3143D01*
X2826Y3143D01*
X2827Y3143D01*
X2828Y3143D01*
X2829Y3142D01*
X2830Y3142D01*
X2831Y3142D01*
X2832Y3142D01*
X2833Y3142D01*
X2834Y3141D01*
X2835Y3141D01*
X2836Y3141D01*
X2837Y3141D01*
X2838Y3141D01*
X2839Y3140D01*
X2840Y3140D01*
X2841Y3140D01*
X2842Y3140D01*
X2843Y3139D01*
X2844Y3139D01*
X2845Y3139D01*
X2846Y3139D01*
X2847Y3138D01*
X2848Y3138D01*
X2849Y3138D01*
X2850Y3138D01*
X2851Y3137D01*
X2852Y3137D01*
X2853Y3137D01*
X2854Y3137D01*
X2855Y3136D01*
X2856Y3136D01*
X2857Y3136D01*
X2858Y3136D01*
X2859Y3135D01*
X2860Y3135D01*
X2861Y3135D01*
X2862Y3134D01*
X2863Y3134D01*
X2864Y3134D01*
X2865Y3134D01*
X2866Y3133D01*
X2867Y3133D01*
X2868Y3133D01*
X2869Y3132D01*
X2870Y3132D01*
X2871Y3132D01*
X2872Y3131D01*
X2873Y3131D01*
X2874Y3131D01*
X2875Y3130D01*
X2876Y3130D01*
X2877Y3130D01*
X2878Y3129D01*
X2879Y3129D01*
X2880Y3129D01*
X2881Y3128D01*
X2882Y3128D01*
X2883Y3128D01*
X2884Y3127D01*
X2885Y3127D01*
X2886Y3127D01*
X2887Y3126D01*
X2888Y3126D01*
X2889Y3126D01*
X2890Y3125D01*
X2891Y3125D01*
X2892Y3124D01*
X2893Y3124D01*
X2894Y3124D01*
X2895Y3123D01*
X2896Y3123D01*
X2897Y3122D01*
X2898Y3122D01*
X2899Y3122D01*
X2900Y3121D01*
X2901Y3121D01*
X2902Y3120D01*
X2903Y3120D01*
X2904Y3120D01*
X2905Y3119D01*
X2906Y3119D01*
X2907Y3118D01*
X2908Y3118D01*
X2909Y3118D01*
X2910Y3117D01*
X2911Y3117D01*
X2912Y3116D01*
X2913Y3116D01*
X2914Y3115D01*
X2915Y3115D01*
X2916Y3114D01*
X2917Y3114D01*
X2918Y3113D01*
X2919Y3113D01*
X2920Y3113D01*
X2921Y3112D01*
X2922Y3112D01*
X2923Y3111D01*
X2924Y3111D01*
X2925Y3110D01*
X2926Y3110D01*
X2927Y3109D01*
X2928Y3109D01*
X2929Y3108D01*
X2930Y3108D01*
X2931Y3107D01*
X2932Y3107D01*
X2933Y3106D01*
X2934Y3106D01*
X2935Y3105D01*
X2936Y3105D01*
X2937Y3104D01*
X2938Y3104D01*
X2939Y3103D01*
X2940Y3103D01*
X2941Y3102D01*
X2942Y3101D01*
X2943Y3101D01*
X2944Y3100D01*
X2945Y3100D01*
X2946Y3099D01*
X2947Y3099D01*
X2948Y3098D01*
X2949Y3097D01*
X2950Y3097D01*
X2951Y3096D01*
X2952Y3096D01*
X2953Y3095D01*
X2954Y3095D01*
X2955Y3094D01*
X2956Y3093D01*
X2957Y3093D01*
X2958Y3092D01*
X2959Y3092D01*
X2960Y3091D01*
X2961Y3090D01*
X2962Y3090D01*
X2963Y3089D01*
X2964Y3088D01*
X2965Y3088D01*
X2966Y3087D01*
X2967Y3086D01*
X2968Y3086D01*
X2969Y3085D01*
X2970Y3085D01*
X2971Y3084D01*
X2972Y3083D01*
X2973Y3083D01*
X2974Y3082D01*
X2975Y3081D01*
X2976Y3081D01*
X2977Y3080D01*
X2978Y3079D01*
X2979Y3078D01*
X2980Y3078D01*
X2981Y3077D01*
X2982Y3076D01*
X2983Y3076D01*
X2984Y3075D01*
X2985Y3074D01*
X2986Y3073D01*
X2987Y3073D01*
X2988Y3072D01*
X2989Y3071D01*
X2990Y3071D01*
X2991Y3070D01*
X2992Y3069D01*
X2993Y3068D01*
X2994Y3067D01*
X2995Y3067D01*
X2996Y3066D01*
X2997Y3065D01*
X2998Y3064D01*
X2999Y3063D01*
X3000Y3063D01*
X3001Y3062D01*
X3002Y3061D01*
X3003Y3060D01*
X3004Y3060D01*
X3005Y3059D01*
X3006Y3058D01*
X3007Y3057D01*
X3008Y3056D01*
X3009Y3055D01*
X3010Y3054D01*
X3011Y3054D01*
X3012Y3053D01*
X3013Y3052D01*
X3014Y3051D01*
X3015Y3050D01*
X3016Y3049D01*
X3017Y3048D01*
X3018Y3047D01*
X3019Y3047D01*
X3020Y3046D01*
X3021Y3045D01*
X3022Y3044D01*
X3023Y3043D01*
X3024Y3042D01*
X3025Y3041D01*
X3026Y3040D01*
X3027Y3039D01*
X3028Y3038D01*
X3029Y3037D01*
X3030Y3036D01*
X3031Y3035D01*
X3032Y3034D01*
X3033Y3033D01*
X3034Y3032D01*
X3035Y3031D01*
X3036Y3030D01*
X3037Y3029D01*
X3038Y3028D01*
X3039Y3027D01*
X3040Y3026D01*
X3041Y3025D01*
X3042Y3024D01*
X3043Y3023D01*
X3044Y3022D01*
X3045Y3021D01*
X3045Y3020D01*
X3046Y3019D01*
X3047Y3018D01*
X3048Y3017D01*
X3049Y3016D01*
X3050Y3015D01*
X3051Y3014D01*
X3052Y3013D01*
X3052Y3012D01*
X3053Y3011D01*
X3054Y3010D01*
X3055Y3009D01*
X3056Y3008D01*
X3057Y3007D01*
X3058Y3006D01*
X3058Y3005D01*
X3059Y3004D01*
X3060Y3003D01*
X3061Y3002D01*
X3061Y3001D01*
X3062Y3000D01*
X3063Y2999D01*
X3064Y2998D01*
X3065Y2997D01*
X3065Y2996D01*
X3066Y2995D01*
X3067Y2994D01*
X3068Y2993D01*
X3069Y2992D01*
X3069Y2991D01*
X3070Y2990D01*
X3071Y2989D01*
X3071Y2988D01*
X3072Y2987D01*
X3073Y2986D01*
X3074Y2985D01*
X3074Y2984D01*
X3075Y2983D01*
X3076Y2982D01*
X3076Y2981D01*
X3077Y2980D01*
X3078Y2979D01*
X3079Y2978D01*
X3079Y2977D01*
X3080Y2976D01*
X3081Y2975D01*
X3081Y2974D01*
X3082Y2973D01*
X3083Y2972D01*
X3083Y2971D01*
X3084Y2970D01*
X3084Y2969D01*
X3085Y2968D01*
X3086Y2967D01*
X3086Y2966D01*
X3087Y2965D01*
X3088Y2964D01*
X3088Y2963D01*
X3089Y2962D01*
X3090Y2961D01*
X3090Y2960D01*
X3091Y2959D01*
X3091Y2958D01*
X3092Y2957D01*
X3093Y2956D01*
X3093Y2955D01*
X3094Y2954D01*
X3094Y2953D01*
X3095Y2952D01*
X3095Y2951D01*
X3096Y2950D01*
X3097Y2949D01*
X3097Y2948D01*
X3098Y2947D01*
X3098Y2946D01*
X3099Y2945D01*
X3099Y2944D01*
X3100Y2943D01*
X3101Y2942D01*
X3101Y2941D01*
X3102Y2940D01*
X3102Y2939D01*
X3103Y2938D01*
X3103Y2937D01*
X3104Y2936D01*
X3104Y2935D01*
X3105Y2934D01*
X3105Y2933D01*
X3106Y2932D01*
X3106Y2931D01*
X3107Y2930D01*
X3107Y2929D01*
X3108Y2928D01*
X3108Y2927D01*
X3109Y2926D01*
X3109Y2925D01*
X3110Y2924D01*
X3110Y2923D01*
X3111Y2922D01*
X3111Y2920D01*
X3112Y2919D01*
X3112Y2918D01*
X3113Y2917D01*
X3113Y2916D01*
X3114Y2915D01*
X3114Y2914D01*
X3115Y2913D01*
X3115Y2912D01*
X3116Y2911D01*
X3116Y2909D01*
X3117Y2908D01*
X3117Y2907D01*
X3118Y2906D01*
X3118Y2904D01*
X3119Y2903D01*
X3119Y2902D01*
X3120Y2901D01*
X3120Y2899D01*
X3121Y2898D01*
X3121Y2897D01*
X3122Y2896D01*
X3122Y2894D01*
X3123Y2893D01*
X3123Y2892D01*
X3124Y2891D01*
X3124Y2889D01*
X3125Y2888D01*
X3125Y2886D01*
X3126Y2885D01*
X3126Y2883D01*
X3127Y2882D01*
X3127Y2880D01*
X3128Y2879D01*
X3128Y2877D01*
X3129Y2876D01*
X3129Y2874D01*
X3130Y2873D01*
X3130Y2871D01*
X3131Y2870D01*
X3131Y2868D01*
X3132Y2867D01*
X3132Y2864D01*
X3133Y2863D01*
X3133Y2861D01*
X3134Y2860D01*
X3134Y2857D01*
X3135Y2856D01*
X3135Y2853D01*
X3136Y2852D01*
X3136Y2849D01*
X3137Y2848D01*
X3137Y2845D01*
X3138Y2844D01*
X3138Y2841D01*
X3139Y2840D01*
X3139Y2836D01*
X3140Y2835D01*
X3140Y2831D01*
X3141Y2830D01*
X3141Y2826D01*
X3142Y2825D01*
X3142Y2820D01*
X3143Y2819D01*
X3143Y2814D01*
X3144Y2813D01*
X3144Y2807D01*
X3145Y2806D01*
X3145Y2799D01*
X3146Y2798D01*
X3146Y2789D01*
X3147Y2788D01*
X3147Y2774D01*
X3148Y2773D01*
X3148Y379D01*
X3147Y378D01*
X3147Y364D01*
X3146Y363D01*
X3146Y354D01*
X3145Y353D01*
X3145Y346D01*
X3144Y345D01*
X3144Y339D01*
X3143Y338D01*
X3143Y333D01*
X3142Y332D01*
X3142Y327D01*
X3141Y326D01*
X3141Y322D01*
X3140Y321D01*
X3140Y317D01*
X3139Y316D01*
X3139Y312D01*
X3138Y311D01*
X3138Y308D01*
X3137Y307D01*
X3137Y304D01*
X3136Y303D01*
X3136Y300D01*
X3135Y299D01*
X3135Y296D01*
X3134Y295D01*
X3134Y292D01*
X3133Y291D01*
X3133Y289D01*
X3132Y288D01*
X3132Y285D01*
X3131Y284D01*
X3131Y282D01*
X3130Y281D01*
X3130Y279D01*
X3129Y278D01*
X3129Y276D01*
X3128Y275D01*
X3128Y273D01*
X3127Y272D01*
X3127Y270D01*
X3126Y269D01*
X3126Y267D01*
X3125Y266D01*
X3125Y264D01*
X3124Y263D01*
X3124Y261D01*
X3123Y260D01*
X3123Y259D01*
X3122Y258D01*
X3122Y256D01*
X3121Y255D01*
X3121Y254D01*
X3120Y253D01*
X3120Y251D01*
X3119Y250D01*
X3119Y249D01*
X3118Y248D01*
X3118Y246D01*
X3117Y245D01*
X3117Y244D01*
X3116Y243D01*
X3116Y241D01*
X3115Y240D01*
X3115Y239D01*
X3114Y238D01*
X3114Y237D01*
X3113Y236D01*
X3113Y235D01*
X3112Y234D01*
X3112Y233D01*
X3111Y232D01*
X3111Y230D01*
X3110Y229D01*
X3110Y228D01*
X3109Y227D01*
X3109Y226D01*
X3108Y225D01*
X3108Y224D01*
X3107Y223D01*
X3107Y222D01*
X3106Y221D01*
X3106Y220D01*
X3105Y219D01*
X3105Y218D01*
X3104Y217D01*
X3104Y216D01*
X3103Y215D01*
X3103Y214D01*
X3102Y213D01*
X3102Y212D01*
X3101Y211D01*
X3101Y210D01*
X3100Y209D01*
X3099Y208D01*
X3099Y207D01*
X3098Y206D01*
X3098Y205D01*
X3097Y204D01*
X3097Y203D01*
X3096Y202D01*
X3095Y201D01*
X3095Y200D01*
X3094Y199D01*
X3094Y198D01*
X3093Y197D01*
X3093Y196D01*
X3092Y195D01*
X3091Y194D01*
X3091Y193D01*
X3090Y192D01*
X3090Y191D01*
X3089Y190D01*
X3088Y189D01*
X3088Y188D01*
X3087Y187D01*
X3086Y186D01*
X3086Y185D01*
X3085Y184D01*
X3084Y183D01*
X3084Y182D01*
X3083Y181D01*
X3083Y180D01*
X3082Y179D01*
X3081Y178D01*
X3081Y177D01*
X3080Y176D01*
X3079Y175D01*
X3079Y174D01*
X3078Y173D01*
X3077Y172D01*
X3076Y171D01*
X3076Y170D01*
X3075Y169D01*
X3074Y168D01*
X3074Y167D01*
X3073Y166D01*
X3072Y165D01*
X3071Y164D01*
X3071Y163D01*
X3070Y162D01*
X3069Y161D01*
X3069Y160D01*
X3068Y159D01*
X3067Y158D01*
X3066Y157D01*
X3065Y156D01*
X3065Y155D01*
X3064Y154D01*
X3063Y153D01*
X3062Y152D01*
X3061Y151D01*
X3061Y150D01*
X3060Y149D01*
X3059Y148D01*
X3058Y147D01*
X3058Y146D01*
X3057Y145D01*
X3056Y144D01*
X3055Y143D01*
X3054Y142D01*
X3053Y141D01*
X3052Y140D01*
X3052Y139D01*
X3051Y138D01*
X3050Y137D01*
X3049Y136D01*
X3048Y135D01*
X3047Y134D01*
X3046Y133D01*
X3045Y132D01*
X3045Y131D01*
X3044Y130D01*
X3043Y129D01*
X3042Y128D01*
X3041Y127D01*
X3040Y126D01*
X3039Y125D01*
X3038Y124D01*
X3037Y123D01*
X3036Y122D01*
X3035Y121D01*
X3034Y120D01*
X3033Y119D01*
X3032Y118D01*
X3031Y117D01*
X3030Y116D01*
X3029Y115D01*
X3028Y114D01*
X3027Y113D01*
X3026Y112D01*
X3025Y111D01*
X3024Y110D01*
X3023Y109D01*
X3022Y108D01*
X3021Y107D01*
X3020Y106D01*
X3019Y105D01*
X3018Y105D01*
X3017Y104D01*
X3016Y103D01*
X3015Y102D01*
X3014Y101D01*
X3013Y100D01*
X3012Y99D01*
X3011Y98D01*
X3010Y98D01*
X3009Y97D01*
X3008Y96D01*
X3007Y95D01*
X3006Y94D01*
X3005Y93D01*
X3004Y92D01*
X3003Y92D01*
X3002Y91D01*
X3001Y90D01*
X3000Y89D01*
X2999Y89D01*
X2998Y88D01*
X2997Y87D01*
X2996Y86D01*
X2995Y85D01*
X2994Y85D01*
X2993Y84D01*
X2992Y83D01*
X2991Y82D01*
X2990Y81D01*
X2989Y81D01*
X2988Y80D01*
X2987Y79D01*
X2986Y79D01*
X2985Y78D01*
X2984Y77D01*
X2983Y76D01*
X2982Y76D01*
X2981Y75D01*
X2980Y74D01*
X2979Y74D01*
X2978Y73D01*
X2977Y72D01*
X2976Y71D01*
X2975Y71D01*
X2974Y70D01*
X2973Y69D01*
X2972Y69D01*
X2971Y68D01*
X2970Y67D01*
X2969Y67D01*
X2968Y66D01*
X2967Y66D01*
X2966Y65D01*
X2965Y64D01*
X2964Y64D01*
X2963Y63D01*
X2962Y62D01*
X2961Y62D01*
X2960Y61D01*
X2959Y60D01*
X2958Y60D01*
X2957Y59D01*
X2956Y59D01*
X2955Y58D01*
X2954Y57D01*
X2953Y57D01*
X2952Y56D01*
X2951Y56D01*
X2950Y55D01*
X2949Y55D01*
X2948Y54D01*
X2947Y53D01*
X2946Y53D01*
X2945Y52D01*
X2944Y52D01*
X2943Y51D01*
X2942Y51D01*
X2941Y50D01*
X2940Y49D01*
X2939Y49D01*
X2938Y48D01*
X2937Y48D01*
X2936Y47D01*
X2935Y47D01*
X2934Y46D01*
X2933Y46D01*
X2932Y45D01*
X2931Y45D01*
X2930Y44D01*
X2929Y44D01*
X2928Y43D01*
X2927Y43D01*
X2926Y42D01*
X2925Y42D01*
X2924Y41D01*
X2923Y41D01*
X2922Y40D01*
X2921Y40D01*
X2920Y39D01*
X2919Y39D01*
X2918Y39D01*
X2917Y38D01*
X2916Y38D01*
X2915Y37D01*
X2914Y37D01*
X2913Y36D01*
X2912Y36D01*
X2911Y35D01*
X2910Y35D01*
X2909Y35D01*
X2908Y34D01*
X2907Y34D01*
X2906Y33D01*
X2905Y33D01*
X2904Y32D01*
X2903Y32D01*
X2902Y32D01*
X2901Y31D01*
X2900Y31D01*
X2899Y30D01*
X2898Y30D01*
X2897Y30D01*
X2896Y29D01*
X2895Y29D01*
X2894Y28D01*
X2893Y28D01*
X2892Y28D01*
X2891Y27D01*
X2890Y27D01*
X2889Y26D01*
X2888Y26D01*
X2887Y26D01*
X2886Y25D01*
X2885Y25D01*
X2884Y25D01*
X2883Y24D01*
X2882Y24D01*
X2881Y24D01*
X2880Y23D01*
X2879Y23D01*
X2878Y23D01*
X2877Y22D01*
X2876Y22D01*
X2875Y22D01*
X2874Y21D01*
X2873Y21D01*
X2872Y21D01*
X2871Y20D01*
X2870Y20D01*
X2869Y20D01*
X2868Y19D01*
X2867Y19D01*
X2866Y19D01*
X2865Y18D01*
X2864Y18D01*
X2863Y18D01*
X2862Y18D01*
X2861Y17D01*
X2860Y17D01*
X2859Y17D01*
X2858Y16D01*
X2857Y16D01*
X2856Y16D01*
X2855Y16D01*
X2854Y15D01*
X2853Y15D01*
X2852Y15D01*
X2851Y15D01*
X2850Y14D01*
X2849Y14D01*
X2848Y14D01*
X2847Y14D01*
X2846Y13D01*
X2845Y13D01*
X2844Y13D01*
X2843Y13D01*
X2842Y12D01*
X2841Y12D01*
X2840Y12D01*
X2839Y12D01*
X2838Y11D01*
X2837Y11D01*
X2836Y11D01*
X2835Y11D01*
X2834Y11D01*
X2833Y10D01*
X2832Y10D01*
X2831Y10D01*
X2830Y10D01*
X2829Y10D01*
X2828Y9D01*
X2827Y9D01*
X2826Y9D01*
X2825Y9D01*
X2824Y9D01*
X2823Y8D01*
X2822Y8D01*
X2821Y8D01*
X2820Y8D01*
X2819Y8D01*
X2818Y8D01*
X2817Y7D01*
X2816Y7D01*
X2815Y7D01*
X2814Y7D01*
X2813Y7D01*
X2812Y7D01*
X2811Y6D01*
X2810Y6D01*
X2809Y6D01*
X2808Y6D01*
X2807Y6D01*
X2806Y6D01*
X2805Y6D01*
X2804Y5D01*
X2803Y5D01*
X2802Y5D01*
X2801Y5D01*
X2800Y5D01*
X2799Y5D01*
X2798Y5D01*
X2797Y5D01*
X2796Y4D01*
X2795Y4D01*
X2794Y4D01*
X2793Y4D01*
X2792Y4D01*
X2791Y4D01*
X2790Y4D01*
X2789Y4D01*
X2788Y4D01*
X2787Y4D01*
X2786Y3D01*
X2785Y3D01*
X2784Y3D01*
X2783Y3D01*
X2782Y3D01*
X2781Y3D01*
X2780Y3D01*
X2779Y3D01*
X2778Y3D01*
X2777Y3D01*
X2776Y3D01*
X2775Y3D01*
X2774Y3D01*
X2773Y3D01*
X2772Y3D01*
X2771Y2D01*
X2770Y2D01*
X2769Y2D01*
X2768Y2D01*
X2767Y2D01*
X2766Y2D01*
X2765Y2D01*
X2764Y2D01*
X2763Y2D01*
X2762Y2D01*
X2761Y2D01*
X2760Y2D01*
X2759Y2D01*
X2758Y2D01*
X2757Y2D01*
X2756Y2D01*
X2755Y2D01*
X2754Y2D01*
X2753Y2D01*
X2752Y2D01*
X2751Y2D01*
X2750Y2D01*
X2749Y2D01*
X2748Y2D01*
X2747Y2D01*
X2746Y2D01*
X2745Y2D01*
X2744Y2D01*
X2743Y2D01*
X2742Y2D01*
X2741Y2D01*
X2740Y2D01*
X2739Y2D01*
X2738Y2D01*
X2737Y2D01*
X2736Y2D01*
X2735Y2D01*
X2734Y2D01*
X2733Y2D01*
X2732Y2D01*
X2731Y2D01*
X2730Y2D01*
X2729Y2D01*
X2728Y2D01*
X2727Y2D01*
X2726Y2D01*
X2725Y2D01*
X2724Y2D01*
X2723Y2D01*
X2722Y2D01*
X2721Y2D01*
X2720Y2D01*
X2719Y2D01*
X2718Y2D01*
X2717Y2D01*
X2716Y2D01*
X2715Y2D01*
X2714Y2D01*
X2713Y2D01*
X2712Y2D01*
X2711Y2D01*
X2710Y2D01*
X2709Y2D01*
X2708Y2D01*
X2707Y2D01*
X2706Y2D01*
X2705Y2D01*
X2704Y2D01*
X2703Y2D01*
X2702Y2D01*
X2701Y2D01*
X2700Y2D01*
X2699Y2D01*
X2698Y2D01*
X2697Y2D01*
X2696Y2D01*
X2695Y2D01*
X2694Y2D01*
X2693Y2D01*
X2692Y2D01*
X2691Y2D01*
X2690Y2D01*
X2689Y2D01*
X2688Y2D01*
X2687Y2D01*
X2686Y2D01*
X2685Y2D01*
X2684Y2D01*
X2683Y2D01*
X2682Y2D01*
X2681Y2D01*
X2680Y2D01*
X2679Y2D01*
X2678Y2D01*
X2677Y2D01*
X2676Y2D01*
X2675Y2D01*
X2674Y2D01*
X2673Y2D01*
X2672Y2D01*
X2671Y2D01*
X2670Y2D01*
X2669Y2D01*
X2668Y2D01*
X2667Y2D01*
X2666Y2D01*
X2665Y2D01*
X2664Y2D01*
X2663Y2D01*
X2662Y2D01*
X2661Y2D01*
X2660Y2D01*
X2659Y2D01*
X2658Y2D01*
X2657Y2D01*
X2656Y2D01*
X2655Y2D01*
X2654Y2D01*
X2653Y2D01*
X2652Y2D01*
X2651Y2D01*
X2650Y2D01*
X2649Y2D01*
X2648Y2D01*
X2647Y2D01*
X2646Y2D01*
X2645Y2D01*
X2644Y2D01*
X2643Y2D01*
X2642Y2D01*
X2641Y2D01*
X2640Y2D01*
X2639Y2D01*
X2638Y2D01*
X2637Y2D01*
X2636Y2D01*
X2635Y2D01*
X2634Y2D01*
X2633Y2D01*
X2632Y2D01*
X2631Y2D01*
X2630Y2D01*
X2629Y2D01*
X2628Y2D01*
X2627Y2D01*
X2626Y2D01*
X2625Y2D01*
X2624Y2D01*
X2623Y2D01*
X2622Y2D01*
X2621Y2D01*
X2620Y2D01*
X2619Y2D01*
X2618Y2D01*
X2617Y2D01*
X2616Y2D01*
X2615Y2D01*
X2614Y2D01*
X2613Y2D01*
X2612Y2D01*
X2611Y2D01*
X2610Y2D01*
X2609Y2D01*
X2608Y2D01*
X2607Y2D01*
X2606Y2D01*
X2605Y2D01*
X2604Y2D01*
X2603Y2D01*
X2602Y2D01*
X2601Y2D01*
X2600Y2D01*
X2599Y2D01*
X2598Y2D01*
X2597Y2D01*
X2596Y2D01*
X2595Y2D01*
X2594Y2D01*
X2593Y2D01*
X2592Y2D01*
X2591Y2D01*
X2590Y2D01*
X2589Y2D01*
X2588Y2D01*
X2587Y2D01*
X2586Y2D01*
X2585Y2D01*
X2584Y2D01*
X2583Y2D01*
X2582Y2D01*
X2581Y2D01*
X2580Y2D01*
X2579Y2D01*
X2578Y2D01*
X2577Y2D01*
X2576Y2D01*
X2575Y2D01*
X2574Y2D01*
X2573Y2D01*
X2572Y2D01*
X2571Y2D01*
X2570Y2D01*
X2569Y2D01*
X2568Y2D01*
X2567Y2D01*
X2566Y2D01*
X2565Y2D01*
X2564Y2D01*
X2563Y2D01*
X2562Y2D01*
X2561Y2D01*
X2560Y2D01*
X2559Y2D01*
X2558Y2D01*
X2557Y2D01*
X2556Y2D01*
X2555Y2D01*
X2554Y2D01*
X2553Y2D01*
X2552Y2D01*
X2551Y2D01*
X2550Y2D01*
X2549Y2D01*
X2548Y2D01*
X2547Y2D01*
X2546Y2D01*
X2545Y2D01*
X2544Y2D01*
X2543Y2D01*
X2542Y2D01*
X2541Y2D01*
X2540Y2D01*
X2539Y2D01*
X2538Y2D01*
X2537Y2D01*
X2536Y2D01*
X2535Y2D01*
X2534Y2D01*
X2533Y2D01*
X2532Y2D01*
X2531Y2D01*
X2530Y2D01*
X2529Y2D01*
X2528Y2D01*
X2527Y2D01*
X2526Y2D01*
X2525Y2D01*
X2524Y2D01*
X2523Y2D01*
X2522Y2D01*
X2521Y2D01*
X2520Y2D01*
X2519Y2D01*
X2518Y2D01*
X2517Y2D01*
X2516Y2D01*
X2515Y2D01*
X2514Y2D01*
X2513Y2D01*
X2512Y2D01*
X2511Y2D01*
X2510Y2D01*
X2509Y2D01*
X2508Y2D01*
X2507Y2D01*
X2506Y2D01*
X2505Y2D01*
X2504Y2D01*
X2503Y2D01*
X2502Y2D01*
X2501Y2D01*
X2500Y2D01*
X2499Y2D01*
X2498Y2D01*
X2497Y2D01*
X2496Y2D01*
X2495Y2D01*
X2494Y2D01*
X2493Y2D01*
X2492Y2D01*
X2491Y2D01*
X2490Y2D01*
X2489Y2D01*
X2488Y2D01*
X2487Y2D01*
X2486Y2D01*
X2485Y2D01*
X2484Y2D01*
X2483Y2D01*
X2482Y2D01*
X2481Y2D01*
X2480Y2D01*
X2479Y2D01*
X2478Y2D01*
X2477Y2D01*
X2476Y2D01*
X2475Y2D01*
X2474Y2D01*
X2473Y2D01*
X2472Y2D01*
X2471Y2D01*
X2470Y2D01*
X2469Y2D01*
X2468Y2D01*
X2467Y2D01*
X2466Y2D01*
X2465Y2D01*
X2464Y2D01*
X2463Y2D01*
X2462Y2D01*
X2461Y2D01*
X2460Y2D01*
X2459Y2D01*
X2458Y2D01*
X2457Y2D01*
X2456Y2D01*
X2455Y2D01*
X2454Y2D01*
X2453Y2D01*
X2452Y2D01*
X2451Y2D01*
X2450Y2D01*
X2449Y2D01*
X2448Y2D01*
X2447Y2D01*
X2446Y2D01*
X2445Y2D01*
X2444Y2D01*
X2443Y2D01*
X2442Y2D01*
X2441Y2D01*
X2440Y2D01*
X2439Y2D01*
X2438Y2D01*
X2437Y2D01*
X2436Y2D01*
X2435Y2D01*
X2434Y2D01*
X2433Y2D01*
X2432Y2D01*
X2431Y2D01*
X2430Y2D01*
X2429Y2D01*
X2428Y2D01*
X2427Y2D01*
X2426Y2D01*
X2425Y2D01*
X2424Y2D01*
X2423Y2D01*
X2422Y2D01*
X2421Y2D01*
X2420Y2D01*
X2419Y2D01*
X2418Y2D01*
X2417Y2D01*
X2416Y2D01*
X2415Y2D01*
X2414Y2D01*
X2413Y2D01*
X2412Y2D01*
X2411Y2D01*
X2410Y2D01*
X2409Y2D01*
X2408Y2D01*
X2407Y2D01*
X2406Y2D01*
X2405Y2D01*
X2404Y2D01*
X2403Y2D01*
X2402Y2D01*
X2401Y2D01*
X2400Y2D01*
X2399Y2D01*
X2398Y2D01*
X2397Y2D01*
X2396Y2D01*
X2395Y2D01*
X2394Y2D01*
X2393Y2D01*
X2392Y2D01*
X2391Y2D01*
X2390Y2D01*
X2389Y2D01*
X2388Y2D01*
X2387Y2D01*
X2386Y2D01*
X2385Y2D01*
X2384Y2D01*
X2383Y2D01*
X2382Y2D01*
X2381Y2D01*
X2380Y2D01*
X2379Y2D01*
X2378Y2D01*
X2377Y2D01*
X2376Y2D01*
X2375Y2D01*
X2374Y2D01*
X2373Y2D01*
X2372Y2D01*
X2371Y2D01*
X2370Y2D01*
X2369Y2D01*
X2368Y2D01*
X2367Y2D01*
X2366Y2D01*
X2365Y2D01*
X2364Y2D01*
X2363Y2D01*
X2362Y2D01*
X2361Y2D01*
X2360Y2D01*
X2359Y2D01*
X2358Y2D01*
X2357Y2D01*
X2356Y2D01*
X2355Y2D01*
X2354Y2D01*
X2353Y2D01*
X2352Y2D01*
X2351Y2D01*
X2350Y2D01*
X2349Y2D01*
X2348Y2D01*
X2347Y2D01*
X2346Y2D01*
X2345Y2D01*
X2344Y2D01*
X2343Y2D01*
X2342Y2D01*
X2341Y2D01*
X2340Y2D01*
X2339Y2D01*
X2338Y2D01*
X2337Y2D01*
X2336Y2D01*
X2335Y2D01*
X2334Y2D01*
X2333Y2D01*
X2332Y2D01*
X2331Y2D01*
X2330Y2D01*
X2329Y2D01*
X2328Y2D01*
X2327Y2D01*
X2326Y2D01*
X2325Y2D01*
X2324Y2D01*
X2323Y2D01*
X2322Y2D01*
X2321Y2D01*
X2320Y2D01*
X2319Y2D01*
X2318Y2D01*
X2317Y2D01*
X2316Y2D01*
X2315Y2D01*
X2314Y2D01*
X2313Y2D01*
X2312Y2D01*
X2311Y2D01*
X2310Y2D01*
X2309Y2D01*
X2308Y2D01*
X2307Y2D01*
X2306Y2D01*
X2305Y2D01*
X2304Y2D01*
X2303Y2D01*
X2302Y2D01*
X2301Y2D01*
X2300Y2D01*
X2299Y2D01*
X2298Y2D01*
X2297Y2D01*
X2296Y2D01*
X2295Y2D01*
X2294Y2D01*
X2293Y2D01*
X2292Y2D01*
X2291Y2D01*
X2290Y2D01*
X2289Y2D01*
X2288Y2D01*
X2287Y2D01*
X2286Y2D01*
X2285Y2D01*
X2284Y2D01*
X2283Y2D01*
X2282Y2D01*
X2281Y2D01*
X2280Y2D01*
X2279Y2D01*
X2278Y2D01*
X2277Y2D01*
X2276Y2D01*
X2275Y2D01*
X2274Y2D01*
X2273Y2D01*
X2272Y2D01*
X2271Y2D01*
X2270Y2D01*
X2269Y2D01*
X2268Y2D01*
X2267Y2D01*
X2266Y2D01*
X2265Y2D01*
X2264Y2D01*
X2263Y2D01*
X2262Y2D01*
X2261Y2D01*
X2260Y2D01*
X2259Y2D01*
X2258Y2D01*
X2257Y2D01*
X2256Y2D01*
X2255Y2D01*
X2254Y2D01*
X2253Y2D01*
X2252Y2D01*
X2251Y2D01*
X2250Y2D01*
X2249Y2D01*
X2248Y2D01*
X2247Y2D01*
X2246Y2D01*
X2245Y2D01*
X2244Y2D01*
X2243Y2D01*
X2242Y2D01*
X2241Y2D01*
X2240Y2D01*
X2239Y2D01*
X2238Y2D01*
X2237Y2D01*
X2236Y2D01*
X2235Y2D01*
X2234Y2D01*
X2233Y2D01*
X2232Y2D01*
X2231Y2D01*
X2230Y2D01*
X2229Y2D01*
X2228Y2D01*
X2227Y2D01*
X2226Y2D01*
X2225Y2D01*
X2224Y2D01*
X2223Y2D01*
X2222Y2D01*
X2221Y2D01*
X2220Y2D01*
X2219Y2D01*
X2218Y2D01*
X2217Y2D01*
X2216Y2D01*
X2215Y2D01*
X2214Y2D01*
X2213Y2D01*
X2212Y2D01*
X2211Y2D01*
X2210Y2D01*
X2209Y2D01*
X2208Y2D01*
X2207Y2D01*
X2206Y2D01*
X2205Y2D01*
X2204Y2D01*
X2203Y2D01*
X2202Y2D01*
X2201Y2D01*
X2200Y2D01*
X2199Y2D01*
X2198Y2D01*
X2197Y2D01*
X2196Y2D01*
X2195Y2D01*
X2194Y2D01*
X2193Y2D01*
X2192Y2D01*
X2191Y2D01*
X2190Y2D01*
X2189Y2D01*
X2188Y2D01*
X2187Y2D01*
X2186Y2D01*
X2185Y2D01*
X2184Y2D01*
X2183Y2D01*
X2182Y2D01*
X2181Y2D01*
X2180Y2D01*
X2179Y2D01*
X2178Y2D01*
X2177Y2D01*
X2176Y2D01*
X2175Y2D01*
X2174Y2D01*
X2173Y2D01*
X2172Y2D01*
X2171Y2D01*
X2170Y2D01*
X2169Y2D01*
X2168Y2D01*
X2167Y2D01*
X2166Y2D01*
X2165Y2D01*
X2164Y2D01*
X2163Y2D01*
X2162Y2D01*
X2161Y2D01*
X2160Y2D01*
X2159Y2D01*
X2158Y2D01*
X2157Y2D01*
X2156Y2D01*
X2155Y2D01*
X2154Y2D01*
X2153Y2D01*
X2152Y2D01*
X2151Y2D01*
X2150Y2D01*
X2149Y2D01*
X2148Y2D01*
X2147Y2D01*
X2146Y2D01*
X2145Y2D01*
X2144Y2D01*
X2143Y2D01*
X2142Y2D01*
X2141Y2D01*
X2140Y2D01*
X2139Y2D01*
X2138Y2D01*
X2137Y2D01*
X2136Y2D01*
X2135Y2D01*
X2134Y2D01*
X2133Y2D01*
X2132Y2D01*
X2131Y2D01*
X2130Y2D01*
X2129Y2D01*
X2128Y2D01*
X2127Y2D01*
X2126Y2D01*
X2125Y2D01*
X2124Y2D01*
X2123Y2D01*
X2122Y2D01*
X2121Y2D01*
X2120Y2D01*
X2119Y2D01*
X2118Y2D01*
X2117Y2D01*
X2116Y2D01*
X2115Y2D01*
X2114Y2D01*
X2113Y2D01*
X2112Y2D01*
X2111Y2D01*
X2110Y2D01*
X2109Y2D01*
X2108Y2D01*
X2107Y2D01*
X2106Y2D01*
X2105Y2D01*
X2104Y2D01*
X2103Y2D01*
X2102Y2D01*
X2101Y2D01*
X2100Y2D01*
X2099Y2D01*
X2098Y2D01*
X2097Y2D01*
X2096Y2D01*
X2095Y2D01*
X2094Y2D01*
X2093Y2D01*
X2092Y2D01*
X2091Y2D01*
X2090Y2D01*
X2089Y2D01*
X2088Y2D01*
X2087Y2D01*
X2086Y2D01*
X2085Y2D01*
X2084Y2D01*
X2083Y2D01*
X2082Y2D01*
X2081Y2D01*
X2080Y2D01*
X2079Y2D01*
X2078Y2D01*
X2077Y2D01*
X2076Y2D01*
X2075Y2D01*
X2074Y2D01*
X2073Y2D01*
X2072Y2D01*
X2071Y2D01*
X2070Y2D01*
X2069Y2D01*
X2068Y2D01*
X2067Y2D01*
X2066Y2D01*
X2065Y2D01*
X2064Y2D01*
X2063Y2D01*
X2062Y2D01*
X2061Y2D01*
X2060Y2D01*
X2059Y2D01*
X2058Y2D01*
X2057Y2D01*
X2056Y2D01*
X2055Y2D01*
X2054Y2D01*
X2053Y2D01*
X2052Y2D01*
X2051Y2D01*
X2050Y2D01*
X2049Y2D01*
X2048Y2D01*
X2047Y2D01*
X2046Y2D01*
X2045Y2D01*
X2044Y2D01*
X2043Y2D01*
X2042Y2D01*
X2041Y2D01*
X2040Y2D01*
X2039Y2D01*
X2038Y2D01*
X2037Y2D01*
X2036Y2D01*
X2035Y2D01*
X2034Y2D01*
X2033Y2D01*
X2032Y2D01*
X2031Y2D01*
X2030Y2D01*
X2029Y2D01*
X2028Y2D01*
X2027Y2D01*
X2026Y2D01*
X2025Y2D01*
X2024Y2D01*
X2023Y2D01*
X2022Y2D01*
X2021Y2D01*
X2020Y2D01*
X2019Y2D01*
X2018Y2D01*
X2017Y2D01*
X2016Y2D01*
X2015Y2D01*
X2014Y2D01*
X2013Y2D01*
X2012Y2D01*
X2011Y2D01*
X2010Y2D01*
X2009Y2D01*
X2008Y2D01*
X2007Y2D01*
X2006Y2D01*
X2005Y2D01*
X2004Y2D01*
X2003Y2D01*
X2002Y2D01*
X2001Y2D01*
X2000Y2D01*
X1999Y2D01*
X1998Y2D01*
X1997Y2D01*
X1996Y2D01*
X1995Y2D01*
X1994Y2D01*
X1993Y2D01*
X1992Y2D01*
X1991Y2D01*
X1990Y2D01*
X1989Y2D01*
X1988Y2D01*
X1987Y2D01*
X1986Y2D01*
X1985Y2D01*
X1984Y2D01*
X1983Y2D01*
X1982Y2D01*
X1981Y2D01*
X1980Y2D01*
X1979Y2D01*
X1978Y2D01*
X1977Y2D01*
X1976Y2D01*
X1975Y2D01*
X1974Y2D01*
X1973Y2D01*
X1972Y2D01*
X1971Y2D01*
X1970Y2D01*
X1969Y2D01*
X1968Y2D01*
X1967Y2D01*
X1966Y2D01*
X1965Y2D01*
X1964Y2D01*
X1963Y2D01*
X1962Y2D01*
X1961Y2D01*
X1960Y2D01*
X1959Y2D01*
X1958Y2D01*
X1957Y2D01*
X1956Y2D01*
X1955Y2D01*
X1954Y2D01*
X1953Y2D01*
X1952Y2D01*
X1951Y2D01*
X1950Y2D01*
X1949Y2D01*
X1948Y2D01*
X1947Y2D01*
X1946Y2D01*
X1945Y2D01*
X1944Y2D01*
X1943Y2D01*
X1942Y2D01*
X1941Y2D01*
X1940Y2D01*
X1939Y2D01*
X1938Y2D01*
X1937Y2D01*
X1936Y2D01*
X1935Y2D01*
X1934Y2D01*
X1933Y2D01*
X1932Y2D01*
X1931Y2D01*
X1930Y2D01*
X1929Y2D01*
X1928Y2D01*
X1927Y2D01*
X1926Y2D01*
X1925Y2D01*
X1924Y2D01*
X1923Y2D01*
X1922Y2D01*
X1921Y2D01*
X1920Y2D01*
X1919Y2D01*
X1918Y2D01*
X1917Y2D01*
X1916Y2D01*
X1915Y2D01*
X1914Y2D01*
X1913Y2D01*
X1912Y2D01*
X1911Y2D01*
X1910Y2D01*
X1909Y2D01*
X1908Y2D01*
X1907Y2D01*
X1906Y2D01*
X1905Y2D01*
X1904Y2D01*
X1903Y2D01*
X1902Y2D01*
X1901Y2D01*
X1900Y2D01*
X1899Y2D01*
X1898Y2D01*
X1897Y2D01*
X1896Y2D01*
X1895Y2D01*
X1894Y2D01*
X1893Y2D01*
X1892Y2D01*
X1891Y2D01*
X1890Y2D01*
X1889Y2D01*
X1888Y2D01*
X1887Y2D01*
X1886Y2D01*
X1885Y2D01*
X1884Y2D01*
X1883Y2D01*
X1882Y2D01*
X1881Y2D01*
X1880Y2D01*
X1879Y2D01*
X1878Y2D01*
X1877Y2D01*
X1876Y2D01*
X1875Y2D01*
X1874Y2D01*
X1873Y2D01*
X1872Y2D01*
X1871Y2D01*
X1870Y2D01*
X1869Y2D01*
X1868Y2D01*
X1867Y2D01*
X1866Y2D01*
X1865Y2D01*
X1864Y2D01*
X1863Y2D01*
X1862Y2D01*
X1861Y2D01*
X1860Y2D01*
X1859Y2D01*
X1858Y2D01*
X1857Y2D01*
X1856Y2D01*
X1855Y2D01*
X1854Y2D01*
X1853Y2D01*
X1852Y2D01*
X1851Y2D01*
X1850Y2D01*
X1849Y2D01*
X1848Y2D01*
X1847Y2D01*
X1846Y2D01*
X1845Y2D01*
X1844Y2D01*
X1843Y2D01*
X1842Y2D01*
X1841Y2D01*
X1840Y2D01*
X1839Y2D01*
X1838Y2D01*
X1837Y2D01*
X1836Y2D01*
X1835Y2D01*
X1834Y2D01*
X1833Y2D01*
X1832Y2D01*
X1831Y2D01*
X1830Y2D01*
X1829Y2D01*
X1828Y2D01*
X1827Y2D01*
X1826Y2D01*
X1825Y2D01*
X1824Y2D01*
X1823Y2D01*
X1822Y2D01*
X1821Y2D01*
X1820Y2D01*
X1819Y2D01*
X1818Y2D01*
X1817Y2D01*
X1816Y2D01*
X1815Y2D01*
X1814Y2D01*
X1813Y2D01*
X1812Y2D01*
X1811Y2D01*
X1810Y2D01*
X1809Y2D01*
X1808Y2D01*
X1807Y2D01*
X1806Y2D01*
X1805Y2D01*
X1804Y2D01*
X1803Y2D01*
X1802Y2D01*
X1801Y2D01*
X1800Y2D01*
X1799Y2D01*
X1798Y2D01*
X1797Y2D01*
X1796Y2D01*
X1795Y2D01*
X1794Y2D01*
X1793Y2D01*
X1792Y2D01*
X1791Y2D01*
X1790Y2D01*
X1789Y2D01*
X1788Y2D01*
X1787Y2D01*
X1786Y2D01*
X1785Y2D01*
X1784Y2D01*
X1783Y2D01*
X1782Y2D01*
X1781Y2D01*
X1780Y2D01*
X1779Y2D01*
X1778Y2D01*
X1777Y2D01*
X1776Y2D01*
X1775Y2D01*
X1774Y2D01*
X1773Y2D01*
X1772Y2D01*
X1771Y2D01*
X1770Y2D01*
X1769Y2D01*
X1768Y2D01*
X1767Y2D01*
X1766Y2D01*
X1765Y2D01*
X1764Y2D01*
X1763Y2D01*
X1762Y2D01*
X1761Y2D01*
X1760Y2D01*
X1759Y2D01*
X1758Y2D01*
X1757Y2D01*
X1756Y2D01*
X1755Y2D01*
X1754Y2D01*
X1753Y2D01*
X1752Y2D01*
X1751Y2D01*
X1750Y2D01*
X1749Y2D01*
X1748Y2D01*
X1747Y2D01*
X1746Y2D01*
X1745Y2D01*
X1744Y2D01*
X1743Y2D01*
X1742Y2D01*
X1741Y2D01*
X1740Y2D01*
X1739Y2D01*
X1738Y2D01*
X1737Y2D01*
X1736Y2D01*
X1735Y2D01*
X1734Y2D01*
X1733Y2D01*
X1732Y2D01*
X1731Y2D01*
X1730Y2D01*
X1729Y2D01*
X1728Y2D01*
X1727Y2D01*
X1726Y2D01*
X1725Y2D01*
X1724Y2D01*
X1723Y2D01*
X1722Y2D01*
X1721Y2D01*
X1720Y2D01*
X1719Y2D01*
X1718Y2D01*
X1717Y2D01*
X1716Y2D01*
X1715Y2D01*
X1714Y2D01*
X1713Y2D01*
X1712Y2D01*
X1711Y2D01*
X1710Y2D01*
X1709Y2D01*
X1708Y2D01*
X1707Y2D01*
X1706Y2D01*
X1705Y2D01*
X1704Y2D01*
X1703Y2D01*
X1702Y2D01*
X1701Y2D01*
X1700Y2D01*
X1699Y2D01*
X1698Y2D01*
X1697Y2D01*
X1696Y2D01*
X1695Y2D01*
X1694Y2D01*
X1693Y2D01*
X1692Y2D01*
X1691Y2D01*
X1690Y2D01*
X1689Y2D01*
X1688Y2D01*
X1687Y2D01*
X1686Y2D01*
X1685Y2D01*
X1684Y2D01*
X1683Y2D01*
X1682Y2D01*
X1681Y2D01*
X1680Y2D01*
X1679Y2D01*
X1678Y2D01*
X1677Y2D01*
X1676Y2D01*
X1675Y2D01*
X1674Y2D01*
X1673Y2D01*
X1672Y2D01*
X1671Y2D01*
X1670Y2D01*
X1669Y2D01*
X1668Y2D01*
X1667Y2D01*
X1666Y2D01*
X1665Y2D01*
X1664Y2D01*
X1663Y2D01*
X1662Y2D01*
X1661Y2D01*
X1660Y2D01*
X1659Y2D01*
X1658Y2D01*
X1657Y2D01*
X1656Y2D01*
X1655Y2D01*
X1654Y2D01*
X1653Y2D01*
X1652Y2D01*
X1651Y2D01*
X1650Y2D01*
X1649Y2D01*
X1648Y2D01*
X1647Y2D01*
X1646Y2D01*
X1645Y2D01*
X1644Y2D01*
X1643Y2D01*
X1642Y2D01*
X1641Y2D01*
X1640Y2D01*
X1639Y2D01*
X1638Y2D01*
X1637Y2D01*
X1636Y2D01*
X1635Y2D01*
X1634Y2D01*
X1633Y2D01*
X1632Y2D01*
X1631Y2D01*
X1630Y2D01*
X1629Y2D01*
X1628Y2D01*
X1627Y2D01*
X1626Y2D01*
X1625Y2D01*
X1624Y2D01*
X1623Y2D01*
X1622Y2D01*
X1621Y2D01*
X1620Y2D01*
X1619Y2D01*
X1618Y2D01*
X1617Y2D01*
X1616Y2D01*
X1615Y2D01*
X1614Y2D01*
X1613Y2D01*
X1612Y2D01*
X1611Y2D01*
X1610Y2D01*
X1609Y2D01*
X1608Y2D01*
X1607Y2D01*
X1606Y2D01*
X1605Y2D01*
X1604Y2D01*
X1603Y2D01*
X1602Y2D01*
X1601Y2D01*
X1600Y2D01*
X1599Y2D01*
X1598Y2D01*
X1597Y2D01*
X1596Y2D01*
X1595Y2D01*
X1594Y2D01*
X1593Y2D01*
X1592Y2D01*
X1591Y2D01*
X1590Y2D01*
X1589Y2D01*
X1588Y2D01*
X1587Y2D01*
X1586Y2D01*
X1585Y2D01*
X1584Y2D01*
X1583Y2D01*
X1582Y2D01*
X1581Y2D01*
X1580Y2D01*
X1579Y2D01*
X1578Y2D01*
X1577Y2D01*
X1576Y2D01*
X1575Y2D01*
X1574Y2D01*
X1573Y2D01*
X1572Y2D01*
X1571Y2D01*
X1570Y2D01*
X1569Y2D01*
X1568Y2D01*
X1567Y2D01*
X1566Y2D01*
X1565Y2D01*
X1564Y2D01*
X1563Y2D01*
X1562Y2D01*
X1561Y2D01*
X1560Y2D01*
X1559Y2D01*
X1558Y2D01*
X1557Y2D01*
X1556Y2D01*
X1555Y2D01*
X1554Y2D01*
X1553Y2D01*
X1552Y2D01*
X1551Y2D01*
X1550Y2D01*
X1549Y2D01*
X1548Y2D01*
X1547Y2D01*
X1546Y2D01*
X1545Y2D01*
X1544Y2D01*
X1543Y2D01*
X1542Y2D01*
X1541Y2D01*
X1540Y2D01*
X1539Y2D01*
X1538Y2D01*
X1537Y2D01*
X1536Y2D01*
X1535Y2D01*
X1534Y2D01*
X1533Y2D01*
X1532Y2D01*
X1531Y2D01*
X1530Y2D01*
X1529Y2D01*
X1528Y2D01*
X1527Y2D01*
X1526Y2D01*
X1525Y2D01*
X1524Y2D01*
X1523Y2D01*
X1522Y2D01*
X1521Y2D01*
X1520Y2D01*
X1519Y2D01*
X1518Y2D01*
X1517Y2D01*
X1516Y2D01*
X1515Y2D01*
X1514Y2D01*
X1513Y2D01*
X1512Y2D01*
X1511Y2D01*
X1510Y2D01*
X1509Y2D01*
X1508Y2D01*
X1507Y2D01*
X1506Y2D01*
X1505Y2D01*
X1504Y2D01*
X1503Y2D01*
X1502Y2D01*
X1501Y2D01*
X1500Y2D01*
X1499Y2D01*
X1498Y2D01*
X1497Y2D01*
X1496Y2D01*
X1495Y2D01*
X1494Y2D01*
X1493Y2D01*
X1492Y2D01*
X1491Y2D01*
X1490Y2D01*
X1489Y2D01*
X1488Y2D01*
X1487Y2D01*
X1486Y2D01*
X1485Y2D01*
X1484Y2D01*
X1483Y2D01*
X1482Y2D01*
X1481Y2D01*
X1480Y2D01*
X1479Y2D01*
X1478Y2D01*
X1477Y2D01*
X1476Y2D01*
X1475Y2D01*
X1474Y2D01*
X1473Y2D01*
X1472Y2D01*
X1471Y2D01*
X1470Y2D01*
X1469Y2D01*
X1468Y2D01*
X1467Y2D01*
X1466Y2D01*
X1465Y2D01*
X1464Y2D01*
X1463Y2D01*
X1462Y2D01*
X1461Y2D01*
X1460Y2D01*
X1459Y2D01*
X1458Y2D01*
X1457Y2D01*
X1456Y2D01*
X1455Y2D01*
X1454Y2D01*
X1453Y2D01*
X1452Y2D01*
X1451Y2D01*
X1450Y2D01*
X1449Y2D01*
X1448Y2D01*
X1447Y2D01*
X1446Y2D01*
X1445Y2D01*
X1444Y2D01*
X1443Y2D01*
X1442Y2D01*
X1441Y2D01*
X1440Y2D01*
X1439Y2D01*
X1438Y2D01*
X1437Y2D01*
X1436Y2D01*
X1435Y2D01*
X1434Y2D01*
X1433Y2D01*
X1432Y2D01*
X1431Y2D01*
X1430Y2D01*
X1429Y2D01*
X1428Y2D01*
X1427Y2D01*
X1426Y2D01*
X1425Y2D01*
X1424Y2D01*
X1423Y2D01*
X1422Y2D01*
X1421Y2D01*
X1420Y2D01*
X1419Y2D01*
X1418Y2D01*
X1417Y2D01*
X1416Y2D01*
X1415Y2D01*
X1414Y2D01*
X1413Y2D01*
X1412Y2D01*
X1411Y2D01*
X1410Y2D01*
X1409Y2D01*
X1408Y2D01*
X1407Y2D01*
X1406Y2D01*
X1405Y2D01*
X1404Y2D01*
X1403Y2D01*
X1402Y2D01*
X1401Y2D01*
X1400Y2D01*
X1399Y2D01*
X1398Y2D01*
X1397Y2D01*
X1396Y2D01*
X1395Y2D01*
X1394Y2D01*
X1393Y2D01*
X1392Y2D01*
X1391Y2D01*
X1390Y2D01*
X1389Y2D01*
X1388Y2D01*
X1387Y2D01*
X1386Y2D01*
X1385Y2D01*
X1384Y2D01*
X1383Y2D01*
X1382Y2D01*
X1381Y2D01*
X1380Y2D01*
X1379Y2D01*
X1378Y2D01*
X1377Y2D01*
X1376Y2D01*
X1375Y2D01*
X1374Y2D01*
X1373Y2D01*
X1372Y2D01*
X1371Y2D01*
X1370Y2D01*
X1369Y2D01*
X1368Y2D01*
X1367Y2D01*
X1366Y2D01*
X1365Y2D01*
X1364Y2D01*
X1363Y2D01*
X1362Y2D01*
X1361Y2D01*
X1360Y2D01*
X1359Y2D01*
X1358Y2D01*
X1357Y2D01*
X1356Y2D01*
X1355Y2D01*
X1354Y2D01*
X1353Y2D01*
X1352Y2D01*
X1351Y2D01*
X1350Y2D01*
X1349Y2D01*
X1348Y2D01*
X1347Y2D01*
X1346Y2D01*
X1345Y2D01*
X1344Y2D01*
X1343Y2D01*
X1342Y2D01*
X1341Y2D01*
X1340Y2D01*
X1339Y2D01*
X1338Y2D01*
X1337Y2D01*
X1336Y2D01*
X1335Y2D01*
X1334Y2D01*
X1333Y2D01*
X1332Y2D01*
X1331Y2D01*
X1330Y2D01*
X1329Y2D01*
X1328Y2D01*
X1327Y2D01*
X1326Y2D01*
X1325Y2D01*
X1324Y2D01*
X1323Y2D01*
X1322Y2D01*
X1321Y2D01*
X1320Y2D01*
X1319Y2D01*
X1318Y2D01*
X1317Y2D01*
X1316Y2D01*
X1315Y2D01*
X1314Y2D01*
X1313Y2D01*
X1312Y2D01*
X1311Y2D01*
X1310Y2D01*
X1309Y2D01*
X1308Y2D01*
X1307Y2D01*
X1306Y2D01*
X1305Y2D01*
X1304Y2D01*
X1303Y2D01*
X1302Y2D01*
X1301Y2D01*
X1300Y2D01*
X1299Y2D01*
X1298Y2D01*
X1297Y2D01*
X1296Y2D01*
X1295Y2D01*
X1294Y2D01*
X1293Y2D01*
X1292Y2D01*
X1291Y2D01*
X1290Y2D01*
X1289Y2D01*
X1288Y2D01*
X1287Y2D01*
X1286Y2D01*
X1285Y2D01*
X1284Y2D01*
X1283Y2D01*
X1282Y2D01*
X1281Y2D01*
X1280Y2D01*
X1279Y2D01*
X1278Y2D01*
X1277Y2D01*
X1276Y2D01*
X1275Y2D01*
X1274Y2D01*
X1273Y2D01*
X1272Y2D01*
X1271Y2D01*
X1270Y2D01*
X1269Y2D01*
X1268Y2D01*
X1267Y2D01*
X1266Y2D01*
X1265Y2D01*
X1264Y2D01*
X1263Y2D01*
X1262Y2D01*
X1261Y2D01*
X1260Y2D01*
X1259Y2D01*
X1258Y2D01*
X1257Y2D01*
X1256Y2D01*
X1255Y2D01*
X1254Y2D01*
X1253Y2D01*
X1252Y2D01*
X1251Y2D01*
X1250Y2D01*
X1249Y2D01*
X1248Y2D01*
X1247Y2D01*
X1246Y2D01*
X1245Y2D01*
X1244Y2D01*
X1243Y2D01*
X1242Y2D01*
X1241Y2D01*
X1240Y2D01*
X1239Y2D01*
X1238Y2D01*
X1237Y2D01*
X1236Y2D01*
X1235Y2D01*
X1234Y2D01*
X1233Y2D01*
X1232Y2D01*
X1231Y2D01*
X1230Y2D01*
X1229Y2D01*
X1228Y2D01*
X1227Y2D01*
X1226Y2D01*
X1225Y2D01*
X1224Y2D01*
X1223Y2D01*
X1222Y2D01*
X1221Y2D01*
X1220Y2D01*
X1219Y2D01*
X1218Y2D01*
X1217Y2D01*
X1216Y2D01*
X1215Y2D01*
X1214Y2D01*
X1213Y2D01*
X1212Y2D01*
X1211Y2D01*
X1210Y2D01*
X1209Y2D01*
X1208Y2D01*
X1207Y2D01*
X1206Y2D01*
X1205Y2D01*
X1204Y2D01*
X1203Y2D01*
X1202Y2D01*
X1201Y2D01*
X1200Y2D01*
X1199Y2D01*
X1198Y2D01*
X1197Y2D01*
X1196Y2D01*
X1195Y2D01*
X1194Y2D01*
X1193Y2D01*
X1192Y2D01*
X1191Y2D01*
X1190Y2D01*
X1189Y2D01*
X1188Y2D01*
X1187Y2D01*
X1186Y2D01*
X1185Y2D01*
X1184Y2D01*
X1183Y2D01*
X1182Y2D01*
X1181Y2D01*
X1180Y2D01*
X1179Y2D01*
X1178Y2D01*
X1177Y2D01*
X1176Y2D01*
X1175Y2D01*
X1174Y2D01*
X1173Y2D01*
X1172Y2D01*
X1171Y2D01*
X1170Y2D01*
X1169Y2D01*
X1168Y2D01*
X1167Y2D01*
X1166Y2D01*
X1165Y2D01*
X1164Y2D01*
X1163Y2D01*
X1162Y2D01*
X1161Y2D01*
X1160Y2D01*
X1159Y2D01*
X1158Y2D01*
X1157Y2D01*
X1156Y2D01*
X1155Y2D01*
X1154Y2D01*
X1153Y2D01*
X1152Y2D01*
X1151Y2D01*
X1150Y2D01*
X1149Y2D01*
X1148Y2D01*
X1147Y2D01*
X1146Y2D01*
X1145Y2D01*
X1144Y2D01*
X1143Y2D01*
X1142Y2D01*
X1141Y2D01*
X1140Y2D01*
X1139Y2D01*
X1138Y2D01*
X1137Y2D01*
X1136Y2D01*
X1135Y2D01*
X1134Y2D01*
X1133Y2D01*
X1132Y2D01*
X1131Y2D01*
X1130Y2D01*
X1129Y2D01*
X1128Y2D01*
X1127Y2D01*
X1126Y2D01*
X1125Y2D01*
X1124Y2D01*
X1123Y2D01*
X1122Y2D01*
X1121Y2D01*
X1120Y2D01*
X1119Y2D01*
X1118Y2D01*
X1117Y2D01*
X1116Y2D01*
X1115Y2D01*
X1114Y2D01*
X1113Y2D01*
X1112Y2D01*
X1111Y2D01*
X1110Y2D01*
X1109Y2D01*
X1108Y2D01*
X1107Y2D01*
X1106Y2D01*
X1105Y2D01*
X1104Y2D01*
X1103Y2D01*
X1102Y2D01*
X1101Y2D01*
X1100Y2D01*
X1099Y2D01*
X1098Y2D01*
X1097Y2D01*
X1096Y2D01*
X1095Y2D01*
X1094Y2D01*
X1093Y2D01*
X1092Y2D01*
X1091Y2D01*
X1090Y2D01*
X1089Y2D01*
X1088Y2D01*
X1087Y2D01*
X1086Y2D01*
X1085Y2D01*
X1084Y2D01*
X1083Y2D01*
X1082Y2D01*
X1081Y2D01*
X1080Y2D01*
X1079Y2D01*
X1078Y2D01*
X1077Y2D01*
X1076Y2D01*
X1075Y2D01*
X1074Y2D01*
X1073Y2D01*
X1072Y2D01*
X1071Y2D01*
X1070Y2D01*
X1069Y2D01*
X1068Y2D01*
X1067Y2D01*
X1066Y2D01*
X1065Y2D01*
X1064Y2D01*
X1063Y2D01*
X1062Y2D01*
X1061Y2D01*
X1060Y2D01*
X1059Y2D01*
X1058Y2D01*
X1057Y2D01*
X1056Y2D01*
X1055Y2D01*
X1054Y2D01*
X1053Y2D01*
X1052Y2D01*
X1051Y2D01*
X1050Y2D01*
X1049Y2D01*
X1048Y2D01*
X1047Y2D01*
X1046Y2D01*
X1045Y2D01*
X1044Y2D01*
X1043Y2D01*
X1042Y2D01*
X1041Y2D01*
X1040Y2D01*
X1039Y2D01*
X1038Y2D01*
X1037Y2D01*
X1036Y2D01*
X1035Y2D01*
X1034Y2D01*
X1033Y2D01*
X1032Y2D01*
X1031Y2D01*
X1030Y2D01*
X1029Y2D01*
X1028Y2D01*
X1027Y2D01*
X1026Y2D01*
X1025Y2D01*
X1024Y2D01*
X1023Y2D01*
X1022Y2D01*
X1021Y2D01*
X1020Y2D01*
X1019Y2D01*
X1018Y2D01*
X1017Y2D01*
X1016Y2D01*
X1015Y2D01*
X1014Y2D01*
X1013Y2D01*
X1012Y2D01*
X1011Y2D01*
X1010Y2D01*
X1009Y2D01*
X1008Y2D01*
X1007Y2D01*
X1006Y2D01*
X1005Y2D01*
X1004Y2D01*
X1003Y2D01*
X1002Y2D01*
X1001Y2D01*
X1000Y2D01*
X999Y2D01*
X998Y2D01*
X997Y2D01*
X996Y2D01*
X995Y2D01*
X994Y2D01*
X993Y2D01*
X992Y2D01*
X991Y2D01*
X990Y2D01*
X989Y2D01*
X988Y2D01*
X987Y2D01*
X986Y2D01*
X985Y2D01*
X984Y2D01*
X983Y2D01*
X982Y2D01*
X981Y2D01*
X980Y2D01*
X979Y2D01*
X978Y2D01*
X977Y2D01*
X976Y2D01*
X975Y2D01*
X974Y2D01*
X973Y2D01*
X972Y2D01*
X971Y2D01*
X970Y2D01*
X969Y2D01*
X968Y2D01*
X967Y2D01*
X966Y2D01*
X965Y2D01*
X964Y2D01*
X963Y2D01*
X962Y2D01*
X961Y2D01*
X960Y2D01*
X959Y2D01*
X958Y2D01*
X957Y2D01*
X956Y2D01*
X955Y2D01*
X954Y2D01*
X953Y2D01*
X952Y2D01*
X951Y2D01*
X950Y2D01*
X949Y2D01*
X948Y2D01*
X947Y2D01*
X946Y2D01*
X945Y2D01*
X944Y2D01*
X943Y2D01*
X942Y2D01*
X941Y2D01*
X940Y2D01*
X939Y2D01*
X938Y2D01*
X937Y2D01*
X936Y2D01*
X935Y2D01*
X934Y2D01*
X933Y2D01*
X932Y2D01*
X931Y2D01*
X930Y2D01*
X929Y2D01*
X928Y2D01*
X927Y2D01*
X926Y2D01*
X925Y2D01*
X924Y2D01*
X923Y2D01*
X922Y2D01*
X921Y2D01*
X920Y2D01*
X919Y2D01*
X918Y2D01*
X917Y2D01*
X916Y2D01*
X915Y2D01*
X914Y2D01*
X913Y2D01*
X912Y2D01*
X911Y2D01*
X910Y2D01*
X909Y2D01*
X908Y2D01*
X907Y2D01*
X906Y2D01*
X905Y2D01*
X904Y2D01*
X903Y2D01*
X902Y2D01*
X901Y2D01*
X900Y2D01*
X899Y2D01*
X898Y2D01*
X897Y2D01*
X896Y2D01*
X895Y2D01*
X894Y2D01*
X893Y2D01*
X892Y2D01*
X891Y2D01*
X890Y2D01*
X889Y2D01*
X888Y2D01*
X887Y2D01*
X886Y2D01*
X885Y2D01*
X884Y2D01*
X883Y2D01*
X882Y2D01*
X881Y2D01*
X880Y2D01*
X879Y2D01*
X878Y2D01*
X877Y2D01*
X876Y2D01*
X875Y2D01*
X874Y2D01*
X873Y2D01*
X872Y2D01*
X871Y2D01*
X870Y2D01*
X869Y2D01*
X868Y2D01*
X867Y2D01*
X866Y2D01*
X865Y2D01*
X864Y2D01*
X863Y2D01*
X862Y2D01*
X861Y2D01*
X860Y2D01*
X859Y2D01*
X858Y2D01*
X857Y2D01*
X856Y2D01*
X855Y2D01*
X854Y2D01*
X853Y2D01*
X852Y2D01*
X851Y2D01*
X850Y2D01*
X849Y2D01*
X848Y2D01*
X847Y2D01*
X846Y2D01*
X845Y2D01*
X844Y2D01*
X843Y2D01*
X842Y2D01*
X841Y2D01*
X840Y2D01*
X839Y2D01*
X838Y2D01*
X837Y2D01*
X836Y2D01*
X835Y2D01*
X834Y2D01*
X833Y2D01*
X832Y2D01*
X831Y2D01*
X830Y2D01*
X829Y2D01*
X828Y2D01*
X827Y2D01*
X826Y2D01*
X825Y2D01*
X824Y2D01*
X823Y2D01*
X822Y2D01*
X821Y2D01*
X820Y2D01*
X819Y2D01*
X818Y2D01*
X817Y2D01*
X816Y2D01*
X815Y2D01*
X814Y2D01*
X813Y2D01*
X812Y2D01*
X811Y2D01*
X810Y2D01*
X809Y2D01*
X808Y2D01*
X807Y2D01*
X806Y2D01*
X805Y2D01*
X804Y2D01*
X803Y2D01*
X802Y2D01*
X801Y2D01*
X800Y2D01*
X799Y2D01*
X798Y2D01*
X797Y2D01*
X796Y2D01*
X795Y2D01*
X794Y2D01*
X793Y2D01*
X792Y2D01*
X791Y2D01*
X790Y2D01*
X789Y2D01*
X788Y2D01*
X787Y2D01*
X786Y2D01*
X785Y2D01*
X784Y2D01*
X783Y2D01*
X782Y2D01*
X781Y2D01*
X780Y2D01*
X779Y2D01*
X778Y2D01*
X777Y2D01*
X776Y2D01*
X775Y2D01*
X774Y2D01*
X773Y2D01*
X772Y2D01*
X771Y2D01*
X770Y2D01*
X769Y2D01*
X768Y2D01*
X767Y2D01*
X766Y2D01*
X765Y2D01*
X764Y2D01*
X763Y2D01*
X762Y2D01*
X761Y2D01*
X760Y2D01*
X759Y2D01*
X758Y2D01*
X757Y2D01*
X756Y2D01*
X755Y2D01*
X754Y2D01*
X753Y2D01*
X752Y2D01*
X751Y2D01*
X750Y2D01*
X749Y2D01*
X748Y2D01*
X747Y2D01*
X746Y2D01*
X745Y2D01*
X744Y2D01*
X743Y2D01*
X742Y2D01*
X741Y2D01*
X740Y2D01*
X739Y2D01*
X738Y2D01*
X737Y2D01*
X736Y2D01*
X735Y2D01*
X734Y2D01*
X733Y2D01*
X732Y2D01*
X731Y2D01*
X730Y2D01*
X729Y2D01*
X728Y2D01*
X727Y2D01*
X726Y2D01*
X725Y2D01*
X724Y2D01*
X723Y2D01*
X722Y2D01*
X721Y2D01*
X720Y2D01*
X719Y2D01*
X718Y2D01*
X717Y2D01*
X716Y2D01*
X715Y2D01*
X714Y2D01*
X713Y2D01*
X712Y2D01*
X711Y2D01*
X710Y2D01*
X709Y2D01*
X708Y2D01*
X707Y2D01*
X706Y2D01*
X705Y2D01*
X704Y2D01*
X703Y2D01*
X702Y2D01*
X701Y2D01*
X700Y2D01*
X699Y2D01*
X698Y2D01*
X697Y2D01*
X696Y2D01*
X695Y2D01*
X694Y2D01*
X693Y2D01*
X692Y2D01*
X691Y2D01*
X690Y2D01*
X689Y2D01*
X688Y2D01*
X687Y2D01*
X686Y2D01*
X685Y2D01*
X684Y2D01*
X683Y2D01*
X682Y2D01*
X681Y2D01*
X680Y2D01*
X679Y2D01*
X678Y2D01*
X677Y2D01*
X676Y2D01*
X675Y2D01*
X674Y2D01*
X673Y2D01*
X672Y2D01*
X671Y2D01*
X670Y2D01*
X669Y2D01*
X668Y2D01*
X667Y2D01*
X666Y2D01*
X665Y2D01*
X664Y2D01*
X663Y2D01*
X662Y2D01*
X661Y2D01*
X660Y2D01*
X659Y2D01*
X658Y2D01*
X657Y2D01*
X656Y2D01*
X655Y2D01*
X654Y2D01*
X653Y2D01*
X652Y2D01*
X651Y2D01*
X650Y2D01*
X649Y2D01*
X648Y2D01*
X647Y2D01*
X646Y2D01*
X645Y2D01*
X644Y2D01*
X643Y2D01*
X642Y2D01*
X641Y2D01*
X640Y2D01*
X639Y2D01*
X638Y2D01*
X637Y2D01*
X636Y2D01*
X635Y2D01*
X634Y2D01*
X633Y2D01*
X632Y2D01*
X631Y2D01*
X630Y2D01*
X629Y2D01*
X628Y2D01*
X627Y2D01*
X626Y2D01*
X625Y2D01*
X624Y2D01*
X623Y2D01*
X622Y2D01*
X621Y2D01*
X620Y2D01*
X619Y2D01*
X618Y2D01*
X617Y2D01*
X616Y2D01*
X615Y2D01*
X614Y2D01*
X613Y2D01*
X612Y2D01*
X611Y2D01*
X610Y2D01*
X609Y2D01*
X608Y2D01*
X607Y2D01*
X606Y2D01*
X605Y2D01*
X604Y2D01*
X603Y2D01*
X602Y2D01*
X601Y2D01*
X600Y2D01*
X599Y2D01*
X598Y2D01*
X597Y2D01*
X596Y2D01*
X595Y2D01*
X594Y2D01*
X593Y2D01*
X592Y2D01*
X591Y2D01*
X590Y2D01*
X589Y2D01*
X588Y2D01*
X587Y2D01*
X586Y2D01*
X585Y2D01*
X584Y2D01*
X583Y2D01*
X582Y2D01*
X581Y2D01*
X580Y2D01*
X579Y2D01*
X578Y2D01*
X577Y2D01*
X576Y2D01*
X575Y2D01*
X574Y2D01*
X573Y2D01*
X572Y2D01*
X571Y2D01*
X570Y2D01*
X569Y2D01*
X568Y2D01*
X567Y2D01*
X566Y2D01*
X565Y2D01*
X564Y2D01*
X563Y2D01*
X562Y2D01*
X561Y2D01*
X560Y2D01*
X559Y2D01*
X558Y2D01*
X557Y2D01*
X556Y2D01*
X555Y2D01*
X554Y2D01*
X553Y2D01*
X552Y2D01*
X551Y2D01*
X550Y2D01*
X549Y2D01*
X548Y2D01*
X547Y2D01*
X546Y2D01*
X545Y2D01*
X544Y2D01*
X543Y2D01*
X542Y2D01*
X541Y2D01*
X540Y2D01*
X539Y2D01*
X538Y2D01*
X537Y2D01*
X536Y2D01*
X535Y2D01*
X534Y2D01*
X533Y2D01*
X532Y2D01*
X531Y2D01*
X530Y2D01*
X529Y2D01*
X528Y2D01*
X527Y2D01*
X526Y2D01*
X525Y2D01*
X524Y2D01*
X523Y2D01*
X522Y2D01*
X521Y2D01*
X520Y2D01*
X519Y2D01*
X518Y2D01*
X517Y2D01*
X516Y2D01*
X515Y2D01*
X514Y2D01*
X513Y2D01*
X512Y2D01*
X511Y2D01*
X510Y2D01*
X509Y2D01*
X508Y2D01*
X507Y2D01*
X506Y2D01*
X505Y2D01*
X504Y2D01*
X503Y2D01*
X502Y2D01*
X501Y2D01*
X500Y2D01*
X499Y2D01*
X498Y2D01*
X497Y2D01*
X496Y2D01*
X495Y2D01*
X494Y2D01*
X493Y2D01*
X492Y2D01*
X491Y2D01*
X490Y2D01*
X489Y2D01*
X488Y2D01*
X487Y2D01*
X486Y2D01*
X485Y2D01*
X484Y2D01*
X483Y2D01*
X482Y2D01*
X481Y2D01*
X480Y2D01*
X479Y2D01*
X478Y2D01*
X477Y2D01*
X476Y2D01*
X475Y2D01*
X474Y2D01*
X473Y2D01*
X472Y2D01*
X471Y2D01*
X470Y2D01*
X469Y2D01*
X468Y2D01*
X467Y2D01*
X466Y2D01*
X465Y2D01*
X464Y2D01*
X463Y2D01*
X462Y2D01*
X461Y2D01*
X460Y2D01*
X459Y2D01*
X458Y2D01*
X457Y2D01*
X456Y2D01*
X455Y2D01*
X454Y2D01*
X453Y2D01*
X452Y2D01*
X451Y2D01*
X450Y2D01*
X449Y2D01*
X448Y2D01*
X447Y2D01*
X446Y2D01*
X445Y2D01*
X444Y2D01*
X443Y2D01*
X442Y2D01*
X441Y2D01*
X440Y2D01*
X439Y2D01*
X438Y2D01*
X437Y2D01*
X436Y2D01*
X435Y2D01*
X434Y2D01*
X433Y2D01*
X432Y2D01*
X431Y2D01*
X430Y2D01*
X429Y2D01*
X428Y2D01*
X427Y2D01*
X426Y2D01*
X425Y2D01*
X424Y2D01*
X423Y2D01*
X422Y2D01*
X421Y2D01*
X420Y2D01*
X419Y2D01*
X418Y2D01*
X417Y2D01*
X416Y2D01*
X415Y2D01*
X414Y2D01*
X413Y2D01*
X412Y2D01*
X411Y2D01*
X410Y2D01*
X409Y2D01*
X408Y2D01*
X407Y2D01*
X406Y2D01*
X405Y2D01*
X404Y2D01*
X403Y2D01*
X402Y2D01*
X401Y2D01*
X400Y2D01*
X399Y2D01*
X398Y2D01*
X397Y2D01*
X396Y2D01*
X395Y2D01*
X394Y2D01*
X393Y2D01*
X392Y2D01*
X391Y2D01*
X390Y2D01*
X389Y2D01*
X388Y2D01*
X387Y2D01*
X386Y2D01*
X385Y2D01*
X384Y2D01*
X383Y2D01*
X382Y2D01*
X381Y2D01*
X380Y2D01*
X379Y2D01*
X378Y2D01*
X377Y2D01*
X376Y3D01*
X375Y3D01*
X374Y3D01*
X373Y3D01*
X372Y3D01*
X371Y3D01*
X370Y3D01*
X369Y3D01*
X368Y3D01*
X367Y3D01*
X366Y3D01*
X365Y3D01*
X364Y3D01*
X363Y3D01*
X362Y3D01*
X361Y4D01*
X360Y4D01*
X359Y4D01*
X358Y4D01*
X357Y4D01*
X356Y4D01*
X355Y4D01*
X354Y4D01*
X353Y4D01*
X352Y4D01*
X351Y5D01*
X350Y5D01*
X349Y5D01*
X348Y5D01*
X347Y5D01*
X346Y5D01*
X345Y5D01*
X344Y5D01*
X343Y6D01*
X342Y6D01*
X341Y6D01*
X340Y6D01*
X339Y6D01*
X338Y6D01*
X337Y6D01*
X336Y7D01*
X335Y7D01*
X334Y7D01*
X333Y7D01*
X332Y7D01*
X331Y7D01*
X330Y8D01*
X329Y8D01*
X328Y8D01*
X327Y8D01*
X326Y8D01*
X325Y8D01*
X324Y9D01*
X323Y9D01*
X322Y9D01*
X321Y9D01*
X320Y9D01*
X319Y10D01*
X318Y10D01*
X317Y10D01*
X316Y10D01*
X315Y10D01*
X314Y11D01*
X313Y11D01*
X312Y11D01*
X311Y11D01*
X310Y11D01*
X309Y12D01*
X308Y12D01*
X307Y12D01*
X306Y12D01*
X305Y13D01*
X304Y13D01*
X303Y13D01*
X302Y13D01*
X301Y14D01*
X300Y14D01*
X299Y14D01*
X298Y14D01*
X297Y15D01*
X296Y15D01*
X295Y15D01*
X294Y15D01*
X293Y16D01*
X292Y16D01*
X291Y16D01*
X290Y16D01*
X289Y17D01*
X288Y17D01*
X287Y17D01*
X286Y18D01*
X285Y18D01*
X284Y18D01*
X283Y18D01*
X282Y19D01*
X281Y19D01*
X280Y19D01*
X279Y20D01*
X278Y20D01*
X277Y20D01*
X276Y21D01*
X275Y21D01*
X274Y21D01*
X273Y22D01*
X272Y22D01*
X271Y22D01*
X270Y23D01*
X269Y23D01*
X268Y23D01*
X267Y24D01*
X266Y24D01*
X265Y24D01*
X264Y25D01*
X263Y25D01*
X262Y25D01*
X261Y26D01*
X260Y26D01*
X259Y26D01*
X258Y27D01*
X257Y27D01*
X256Y28D01*
X255Y28D01*
X254Y28D01*
X253Y29D01*
X252Y29D01*
X251Y30D01*
X250Y30D01*
X249Y30D01*
X248Y31D01*
X247Y31D01*
X246Y32D01*
X245Y32D01*
X244Y32D01*
X243Y33D01*
X242Y33D01*
X241Y34D01*
X240Y34D01*
X239Y34D01*
X238Y35D01*
X237Y35D01*
X236Y36D01*
X235Y36D01*
X234Y37D01*
X233Y37D01*
X232Y38D01*
X231Y38D01*
X230Y39D01*
X229Y39D01*
X228Y39D01*
X227Y40D01*
X226Y40D01*
X225Y41D01*
X224Y41D01*
X223Y42D01*
X222Y42D01*
X221Y43D01*
X220Y43D01*
X219Y44D01*
X218Y44D01*
X217Y45D01*
X216Y45D01*
X215Y46D01*
X214Y46D01*
X213Y47D01*
X212Y47D01*
X211Y48D01*
X210Y48D01*
X209Y49D01*
X208Y49D01*
X207Y50D01*
X206Y51D01*
X205Y51D01*
X204Y52D01*
X203Y52D01*
X202Y53D01*
X201Y53D01*
X200Y54D01*
X199Y55D01*
X198Y55D01*
X197Y56D01*
X196Y56D01*
X195Y57D01*
X194Y57D01*
X193Y58D01*
X192Y59D01*
X191Y59D01*
X190Y60D01*
X189Y60D01*
X188Y61D01*
X187Y62D01*
X186Y62D01*
X185Y63D01*
X184Y64D01*
X183Y64D01*
X182Y65D01*
X181Y66D01*
X180Y66D01*
X179Y67D01*
X178Y67D01*
X177Y68D01*
X176Y69D01*
X175Y69D01*
X174Y70D01*
X173Y71D01*
X172Y71D01*
X171Y72D01*
X170Y73D01*
X169Y74D01*
X168Y74D01*
X167Y75D01*
X166Y76D01*
X165Y76D01*
X164Y77D01*
X163Y78D01*
X162Y79D01*
X161Y79D01*
X160Y80D01*
X159Y81D01*
X158Y81D01*
X157Y82D01*
X156Y83D01*
X155Y84D01*
X154Y85D01*
X153Y85D01*
X152Y86D01*
X151Y87D01*
X150Y88D01*
X149Y89D01*
X148Y89D01*
X147Y90D01*
X146Y91D01*
X145Y92D01*
X144Y92D01*
X143Y93D01*
X142Y94D01*
X141Y95D01*
X140Y96D01*
X139Y97D01*
X138Y98D01*
X137Y98D01*
X136Y99D01*
X135Y100D01*
X134Y101D01*
X133Y102D01*
X132Y103D01*
X131Y104D01*
X130Y105D01*
X129Y105D01*
X128Y106D01*
X127Y107D01*
X126Y108D01*
X125Y109D01*
X124Y110D01*
X123Y111D01*
X122Y112D01*
X121Y113D01*
X120Y114D01*
X119Y115D01*
X118Y116D01*
X117Y117D01*
X116Y118D01*
X115Y119D01*
X114Y120D01*
X113Y121D01*
X112Y122D01*
X111Y123D01*
X110Y124D01*
X109Y125D01*
X108Y126D01*
X107Y127D01*
X106Y128D01*
X105Y129D01*
X104Y130D01*
X103Y131D01*
X103Y132D01*
X102Y133D01*
X101Y134D01*
X100Y135D01*
X99Y136D01*
X98Y137D01*
X97Y138D01*
X96Y139D01*
X96Y140D01*
X95Y141D01*
X94Y142D01*
X93Y143D01*
X92Y144D01*
X91Y145D01*
X90Y146D01*
X90Y147D01*
X89Y148D01*
X88Y149D01*
X87Y150D01*
X87Y151D01*
X86Y152D01*
X85Y153D01*
X84Y154D01*
X83Y155D01*
X83Y156D01*
X82Y157D01*
X81Y158D01*
X80Y159D01*
X79Y160D01*
X79Y161D01*
X78Y162D01*
X77Y163D01*
X77Y164D01*
X76Y165D01*
X75Y166D01*
X74Y167D01*
X74Y168D01*
X73Y169D01*
X72Y170D01*
X72Y171D01*
X71Y172D01*
X70Y173D01*
X69Y174D01*
X69Y175D01*
X68Y176D01*
X67Y177D01*
X67Y178D01*
X66Y179D01*
X65Y180D01*
X65Y181D01*
X64Y182D01*
X64Y183D01*
X63Y184D01*
X62Y185D01*
X62Y186D01*
X61Y187D01*
X60Y188D01*
X60Y189D01*
X59Y190D01*
X58Y191D01*
X58Y192D01*
X57Y193D01*
X57Y194D01*
X56Y195D01*
X55Y196D01*
X55Y197D01*
X54Y198D01*
X54Y199D01*
X53Y200D01*
X53Y201D01*
X52Y202D01*
X51Y203D01*
X51Y204D01*
X50Y205D01*
X50Y206D01*
X49Y207D01*
X49Y208D01*
X48Y209D01*
X47Y210D01*
X47Y211D01*
X46Y212D01*
X46Y213D01*
X45Y214D01*
X45Y215D01*
X44Y216D01*
X44Y217D01*
X43Y218D01*
X43Y219D01*
X42Y220D01*
X42Y221D01*
X41Y222D01*
X41Y223D01*
X40Y224D01*
X40Y225D01*
X39Y226D01*
X39Y227D01*
X38Y228D01*
X38Y229D01*
X37Y230D01*
X37Y232D01*
X36Y233D01*
X36Y234D01*
X35Y235D01*
X35Y236D01*
X34Y237D01*
X34Y238D01*
X33Y239D01*
X33Y240D01*
X32Y241D01*
X32Y243D01*
X31Y244D01*
X31Y245D01*
X30Y246D01*
X30Y248D01*
X29Y249D01*
X29Y250D01*
X28Y251D01*
X28Y253D01*
X27Y254D01*
X27Y255D01*
X26Y256D01*
X26Y258D01*
X25Y259D01*
X25Y260D01*
X24Y261D01*
X24Y263D01*
X23Y264D01*
X23Y266D01*
X22Y267D01*
X22Y269D01*
X21Y270D01*
X21Y272D01*
X20Y273D01*
X20Y275D01*
X19Y276D01*
X19Y278D01*
X18Y279D01*
X18Y281D01*
X17Y282D01*
X17Y284D01*
X16Y285D01*
X16Y288D01*
X15Y289D01*
X15Y291D01*
X14Y292D01*
X14Y295D01*
X13Y296D01*
X13Y299D01*
X12Y300D01*
X12Y303D01*
X11Y304D01*
X11Y307D01*
X10Y308D01*
X10Y311D01*
X9Y312D01*
X9Y316D01*
X8Y317D01*
X8Y321D01*
X7Y322D01*
X7Y326D01*
X6Y327D01*
X6Y332D01*
X5Y333D01*
X5Y338D01*
X4Y339D01*
X4Y345D01*
X3Y346D01*
X3Y353D01*
X2Y354D01*
X2Y363D01*
X1Y364D01*
X1Y378D01*
X0Y379D01*
X0Y2773D01*
X1Y2774D01*
X1Y2788D01*
X2Y2789D01*
X2Y2798D01*
X3Y2799D01*
X3Y2806D01*
X4Y2807D01*
X4Y2813D01*
X5Y2814D01*
X5Y2819D01*
X6Y2820D01*
X6Y2825D01*
X7Y2826D01*
X7Y2830D01*
X8Y2831D01*
X8Y2835D01*
X9Y2836D01*
X9Y2840D01*
X10Y2841D01*
X10Y2844D01*
X11Y2845D01*
X11Y2848D01*
X12Y2849D01*
X12Y2852D01*
X13Y2853D01*
X13Y2856D01*
X14Y2857D01*
X14Y2860D01*
X15Y2861D01*
X15Y2863D01*
X16Y2864D01*
X16Y2867D01*
X17Y2868D01*
X17Y2870D01*
X18Y2871D01*
X18Y2873D01*
X19Y2874D01*
X19Y2876D01*
X20Y2877D01*
X20Y2879D01*
X21Y2880D01*
X21Y2882D01*
X22Y2883D01*
X22Y2885D01*
X23Y2886D01*
X23Y2888D01*
X24Y2889D01*
X24Y2891D01*
X25Y2892D01*
X25Y2893D01*
X26Y2894D01*
X26Y2896D01*
X27Y2897D01*
X27Y2898D01*
X28Y2899D01*
X28Y2901D01*
X29Y2902D01*
X29Y2903D01*
X30Y2904D01*
X30Y2906D01*
X31Y2907D01*
X31Y2908D01*
X32Y2909D01*
X32Y2911D01*
X33Y2912D01*
X33Y2913D01*
X34Y2914D01*
X34Y2915D01*
X35Y2916D01*
X35Y2917D01*
X36Y2918D01*
X36Y2919D01*
X37Y2920D01*
X37Y2922D01*
X38Y2923D01*
X38Y2924D01*
X39Y2925D01*
X39Y2926D01*
X40Y2927D01*
X40Y2928D01*
X41Y2929D01*
X41Y2930D01*
X42Y2931D01*
X42Y2932D01*
X43Y2933D01*
X43Y2934D01*
X44Y2935D01*
X44Y2936D01*
X45Y2937D01*
X45Y2938D01*
X46Y2939D01*
X46Y2940D01*
X47Y2941D01*
X47Y2942D01*
X48Y2943D01*
X49Y2944D01*
X49Y2945D01*
X50Y2946D01*
X50Y2947D01*
X51Y2948D01*
X51Y2949D01*
X52Y2950D01*
X53Y2951D01*
X53Y2952D01*
X54Y2953D01*
X54Y2954D01*
X55Y2955D01*
X55Y2956D01*
X56Y2957D01*
X57Y2958D01*
X57Y2959D01*
X58Y2960D01*
X58Y2961D01*
X59Y2962D01*
X60Y2963D01*
X60Y2964D01*
X61Y2965D01*
X62Y2966D01*
X62Y2967D01*
X63Y2968D01*
X64Y2969D01*
X64Y2970D01*
X65Y2971D01*
X65Y2972D01*
X66Y2973D01*
X67Y2974D01*
X67Y2975D01*
X68Y2976D01*
X69Y2977D01*
X69Y2978D01*
X70Y2979D01*
X71Y2980D01*
X72Y2981D01*
X72Y2982D01*
X73Y2983D01*
X74Y2984D01*
X74Y2985D01*
X75Y2986D01*
X76Y2987D01*
X77Y2988D01*
X77Y2989D01*
X78Y2990D01*
X79Y2991D01*
X79Y2992D01*
X80Y2993D01*
X81Y2994D01*
X82Y2995D01*
X83Y2996D01*
X83Y2997D01*
X84Y2998D01*
X85Y2999D01*
X86Y3000D01*
X87Y3001D01*
X87Y3002D01*
X88Y3003D01*
X89Y3004D01*
X90Y3005D01*
X90Y3006D01*
X91Y3007D01*
X92Y3008D01*
X93Y3009D01*
X94Y3010D01*
X95Y3011D01*
X96Y3012D01*
X96Y3013D01*
X97Y3014D01*
X98Y3015D01*
X99Y3016D01*
X100Y3017D01*
X101Y3018D01*
X102Y3019D01*
X103Y3020D01*
X103Y3021D01*
X104Y3022D01*
X105Y3023D01*
X106Y3024D01*
X107Y3025D01*
X108Y3026D01*
X109Y3027D01*
X110Y3028D01*
X111Y3029D01*
X112Y3030D01*
X113Y3031D01*
X114Y3032D01*
X115Y3033D01*
X116Y3034D01*
X117Y3035D01*
X118Y3036D01*
X119Y3037D01*
X120Y3038D01*
X121Y3039D01*
X122Y3040D01*
X123Y3041D01*
X124Y3042D01*
X125Y3043D01*
X126Y3044D01*
X127Y3045D01*
X128Y3046D01*
X129Y3047D01*
X130Y3047D01*
X131Y3048D01*
X132Y3049D01*
X133Y3050D01*
X134Y3051D01*
X135Y3052D01*
X136Y3053D01*
X137Y3054D01*
X138Y3054D01*
X139Y3055D01*
X140Y3056D01*
X141Y3057D01*
X142Y3058D01*
X143Y3059D01*
X144Y3060D01*
X145Y3060D01*
X146Y3061D01*
X147Y3062D01*
X148Y3063D01*
X149Y3063D01*
X150Y3064D01*
X151Y3065D01*
X152Y3066D01*
X153Y3067D01*
X154Y3067D01*
X155Y3068D01*
X156Y3069D01*
X157Y3070D01*
X158Y3071D01*
X159Y3071D01*
X160Y3072D01*
X161Y3073D01*
X162Y3073D01*
X163Y3074D01*
X164Y3075D01*
X165Y3076D01*
X166Y3076D01*
X167Y3077D01*
X168Y3078D01*
X169Y3078D01*
X170Y3079D01*
X171Y3080D01*
X172Y3081D01*
X173Y3081D01*
X174Y3082D01*
X175Y3083D01*
X176Y3083D01*
X177Y3084D01*
X178Y3085D01*
X179Y3085D01*
X180Y3086D01*
X181Y3086D01*
X182Y3087D01*
X183Y3088D01*
X184Y3088D01*
X185Y3089D01*
X186Y3090D01*
X187Y3090D01*
X188Y3091D01*
X189Y3092D01*
X190Y3092D01*
X191Y3093D01*
X192Y3093D01*
X193Y3094D01*
X194Y3095D01*
X195Y3095D01*
X196Y3096D01*
X197Y3096D01*
X198Y3097D01*
X199Y3097D01*
X200Y3098D01*
X201Y3099D01*
X202Y3099D01*
X203Y3100D01*
X204Y3100D01*
X205Y3101D01*
X206Y3101D01*
X207Y3102D01*
X208Y3103D01*
X209Y3103D01*
X210Y3104D01*
X211Y3104D01*
X212Y3105D01*
X213Y3105D01*
X214Y3106D01*
X215Y3106D01*
X216Y3107D01*
X217Y3107D01*
X218Y3108D01*
X219Y3108D01*
X220Y3109D01*
X221Y3109D01*
X222Y3110D01*
X223Y3110D01*
X224Y3111D01*
X225Y3111D01*
X226Y3112D01*
X227Y3112D01*
X228Y3113D01*
X229Y3113D01*
X230Y3113D01*
X231Y3114D01*
X232Y3114D01*
X233Y3115D01*
X234Y3115D01*
X235Y3116D01*
X236Y3116D01*
X237Y3117D01*
X238Y3117D01*
X239Y3118D01*
X240Y3118D01*
X241Y3118D01*
X242Y3119D01*
X243Y3119D01*
X244Y3120D01*
X245Y3120D01*
X246Y3120D01*
X247Y3121D01*
X248Y3121D01*
X249Y3122D01*
X250Y3122D01*
X251Y3122D01*
X252Y3123D01*
X253Y3123D01*
X254Y3124D01*
X255Y3124D01*
X256Y3124D01*
X257Y3125D01*
X258Y3125D01*
X259Y3126D01*
X260Y3126D01*
X261Y3126D01*
X262Y3127D01*
X263Y3127D01*
X264Y3127D01*
X265Y3128D01*
X266Y3128D01*
X267Y3128D01*
X268Y3129D01*
X269Y3129D01*
X270Y3129D01*
X271Y3130D01*
X272Y3130D01*
X273Y3130D01*
X274Y3131D01*
X275Y3131D01*
X276Y3131D01*
X277Y3132D01*
X278Y3132D01*
X279Y3132D01*
X280Y3133D01*
X281Y3133D01*
X282Y3133D01*
X283Y3134D01*
X284Y3134D01*
X285Y3134D01*
X286Y3134D01*
X287Y3135D01*
X288Y3135D01*
X289Y3135D01*
X290Y3136D01*
X291Y3136D01*
X292Y3136D01*
X293Y3136D01*
X294Y3137D01*
X295Y3137D01*
X296Y3137D01*
X297Y3137D01*
X298Y3138D01*
X299Y3138D01*
X300Y3138D01*
X301Y3138D01*
X302Y3139D01*
X303Y3139D01*
X304Y3139D01*
X305Y3139D01*
X306Y3140D01*
X307Y3140D01*
X308Y3140D01*
X309Y3140D01*
X310Y3141D01*
X311Y3141D01*
X312Y3141D01*
X313Y3141D01*
X314Y3141D01*
X315Y3142D01*
X316Y3142D01*
X317Y3142D01*
X318Y3142D01*
X319Y3142D01*
X320Y3143D01*
X321Y3143D01*
X322Y3143D01*
X323Y3143D01*
X324Y3143D01*
X325Y3144D01*
X326Y3144D01*
X327Y3144D01*
X328Y3144D01*
X329Y3144D01*
X330Y3144D01*
X331Y3145D01*
X332Y3145D01*
X333Y3145D01*
X334Y3145D01*
X335Y3145D01*
X336Y3145D01*
X337Y3146D01*
X338Y3146D01*
X339Y3146D01*
X340Y3146D01*
X341Y3146D01*
X342Y3146D01*
X343Y3146D01*
X344Y3147D01*
X345Y3147D01*
X346Y3147D01*
X347Y3147D01*
X348Y3147D01*
X349Y3147D01*
X350Y3147D01*
X351Y3147D01*
X352Y3148D01*
X353Y3148D01*
X354Y3148D01*
X355Y3148D01*
X356Y3148D01*
X357Y3148D01*
X358Y3148D01*
X359Y3148D01*
X360Y3148D01*
X361Y3148D01*
X362Y3149D01*
X363Y3149D01*
X364Y3149D01*
X365Y3149D01*
X366Y3149D01*
X367Y3149D01*
X368Y3149D01*
X369Y3149D01*
X370Y3149D01*
X371Y3149D01*
X372Y3149D01*
X373Y3149D01*
X374Y3149D01*
X375Y3149D01*
X376Y3149D01*
X377Y3150D01*
D02*
G04 End of contour*
M02*