; NON-PLATED HOLES START AT T1
; THROUGH (PLATED) HOLES START AT T100
M48
INCH
T100C0.032000
T101C0.038000
T102C0.031497
T103C0.032778
T104C0.035000
T105C0.015748
%
T100
X020222Y001496
X016222Y004496
X013222Y004496
X011222Y001496
X015222Y001496
X016222Y001496
X012222Y004496
X018222Y004496
X019222Y004496
X017222Y004496
X020222Y004496
X018222Y001496
X014222Y004496
X019222Y001496
X017222Y001496
X013222Y001496
X012222Y001496
X011222Y004496
X015222Y004496
X014222Y001496
T101
X025222Y026496
X025222Y025496
X025222Y027496
T102
X021927Y023606
X021927Y022622
T103
X028222Y026496
X028222Y021496
T104
X011222Y028496
X002222Y026496
X030222Y003496
X029222Y023496
X005222Y027496
X014663Y030267
X005222Y020496
X005222Y025496
X020663Y030267
X020663Y028496
X025222Y023496
X005222Y026496
X005222Y023496
X008663Y030267
X011222Y030267
X030222Y007496
X014663Y028496
X005222Y021496
X002222Y020496
X002222Y021496
X002222Y022496
X005222Y024496
X023222Y028496
X017222Y030267
X008663Y028496
X005222Y022496
X002222Y025496
X002222Y027496
X002222Y023496
X002222Y024496
X017222Y028496
X023222Y030267
T105
X020209Y022479
X003662Y022411
X002791Y018353
X014211Y023485
X003222Y003496
X009220Y026504
X004689Y018353
X004207Y016485
X003736Y023512
T00
M30
